<?xml version="1.0" encoding="UTF-8"?>
<svg xmlns="http://www.w3.org/2000/svg" xmlns:xlink="http://www.w3.org/1999/xlink" width="120pt" height="120pt" viewBox="0 0 120 120" version="1.1">
<g id="surface270">
<path style=" stroke:none;fill-rule:nonzero;fill:rgb(66.27451%,66.27451%,66.27451%);fill-opacity:1;" d="M 9.4375 99.757812 L 78.148438 33.109375 L 73.679688 28.300781 L 67.152344 8.375 L 85.703125 14.902344 L 90.515625 18.679688 L 95.324219 13.871094 L 107.003906 26.238281 L 100.820312 31.050781 L 114.5625 45.132812 L 101.851562 59.5625 L 87.078125 43.417969 L 21.804688 114.1875 Z M 9.4375 99.757812 "/>
<path style=" stroke:none;fill-rule:nonzero;fill:rgb(66.27451%,66.27451%,66.27451%);fill-opacity:1;" d="M 114.5625 99.757812 L 45.851562 33.109375 L 50.320312 28.300781 L 56.847656 8.375 L 38.296875 14.902344 L 33.484375 18.679688 L 28.675781 13.871094 L 16.996094 26.238281 L 23.179688 31.050781 L 9.4375 45.132812 L 22.148438 59.5625 L 36.921875 43.417969 L 102.195312 114.1875 Z M 114.5625 99.757812 "/>
<path style=" stroke:none;fill-rule:nonzero;fill:rgb(43.137255%,43.137255%,43.137255%);fill-opacity:1;" d="M 10.960938 44.691406 L 38.539062 16.410156 L 54.09375 10.753906 L 48.4375 28.074219 L 22.273438 56.714844 Z M 10.960938 44.691406 "/>
<path style=" stroke:none;fill-rule:nonzero;fill:rgb(43.137255%,43.137255%,43.137255%);fill-opacity:1;" d="M 69.296875 10.398438 L 85.558594 17.117188 L 111.722656 45.046875 L 102.175781 56.714844 L 74.953125 27.722656 Z M 69.296875 10.398438 "/>
</g>
</svg>
