<?xml version="1.0" encoding="UTF-8"?>
<svg xmlns="http://www.w3.org/2000/svg" xmlns:xlink="http://www.w3.org/1999/xlink" width="24pt" height="24pt" viewBox="0 0 24 24" version="1.1">
<g id="surface67">
<path style=" stroke:none;fill-rule:nonzero;fill:rgb(43.921569%,43.921569%,43.921569%);fill-opacity:1;" d="M 8 12 C 8 14.210938 9.789062 16 12 16 C 14.210938 16 16 14.210938 16 12 C 16 9.789062 14.210938 8 12 8 C 9.789062 8 8 9.789062 8 12 Z M 14 12 C 14 13.105469 13.105469 14 12 14 C 10.894531 14 10 13.105469 10 12 C 10 10.894531 10.894531 10 12 10 C 13.105469 10 14 10.894531 14 12 Z M 14 12 "/>
<path style=" stroke:none;fill-rule:nonzero;fill:rgb(43.921569%,43.921569%,43.921569%);fill-opacity:1;" d="M 7 8 L 5.09375 8 C 6.898438 4.863281 10.585938 3.335938 14.082031 4.273438 C 17.578125 5.210938 20.007812 8.382812 20 12 L 22 12 C 22.003906 7.691406 19.246094 3.867188 15.160156 2.507812 C 11.070312 1.152344 6.570312 2.570312 4 6.023438 L 4 5 L 2 5 L 2 10 L 7 10 Z M 7 8 "/>
<path style=" stroke:none;fill-rule:nonzero;fill:rgb(43.921569%,43.921569%,43.921569%);fill-opacity:1;" d="M 17 16 L 18.910156 16 C 17.105469 19.136719 13.414062 20.667969 9.917969 19.726562 C 6.421875 18.789062 3.992188 15.621094 4 12 L 2 12 C 1.996094 16.308594 4.753906 20.132812 8.839844 21.492188 C 12.929688 22.847656 17.425781 21.433594 20 17.976562 L 20 19 L 22 19 L 22 14 L 17 14 Z M 17 16 "/>
</g>
</svg>
