<?xml version="1.0" encoding="UTF-8"?>
<svg xmlns="http://www.w3.org/2000/svg" xmlns:xlink="http://www.w3.org/1999/xlink" width="24pt" height="24pt" viewBox="0 0 24 24" version="1.1">
<g id="surface62">
<path style=" stroke:none;fill-rule:nonzero;fill:rgb(100%,100%,100%);fill-opacity:1;" d="M 22.199219 5.800781 L 18.898438 5.800781 C 19 5.300781 19 4.800781 18.800781 4.300781 C 18.5 3.601562 18 3 17.199219 2.601562 C 16.398438 2.199219 15.5 2.101562 14.699219 2.398438 C 13.898438 2.699219 13.199219 3.199219 12.800781 3.898438 L 12.101562 5 L 11.398438 3.800781 C 11 3.199219 10.300781 2.699219 9.5 2.398438 C 8.601562 2.101562 7.699219 2.199219 7 2.601562 C 5.601562 3.199219 5 4.5 5.199219 5.800781 L 1.898438 5.800781 L 1.898438 10.199219 L 3.800781 10.199219 L 3.898438 22 L 20.199219 22 L 20.101562 10.199219 L 22.199219 10.199219 Z M 14.5 4.699219 C 14.699219 4.398438 15 4.199219 15.300781 4.101562 C 15.601562 4 16 4.101562 16.300781 4.199219 C 16.601562 4.398438 16.898438 4.601562 17 4.898438 C 17 5.199219 17 5.5 16.898438 5.800781 L 14 5.800781 Z M 7.898438 4.199219 C 8.101562 4.101562 8.199219 4.101562 8.398438 4.101562 C 8.5 4.101562 8.699219 4.101562 8.800781 4.199219 C 9.101562 4.300781 9.398438 4.5 9.601562 4.800781 L 10.199219 5.800781 L 7.300781 5.800781 C 7 5.199219 7.300781 4.5 7.898438 4.199219 Z M 18.199219 19.699219 L 5.898438 19.699219 L 5.898438 10.101562 L 18.199219 10.101562 Z M 20.601562 8.800781 L 3.601562 8.800781 L 3.601562 7.101562 L 20.601562 7.101562 Z M 20.601562 8.800781 "/>
<path style=" stroke:none;fill-rule:nonzero;fill:rgb(100%,100%,100%);fill-opacity:1;" d="M 13.699219 13.199219 C 12.800781 12.101562 11.699219 11.300781 11.199219 10.898438 C 10.800781 10.601562 10.800781 10.898438 10.800781 11 C 10.898438 11.5 11.101562 12.5 9.699219 14.101562 C 8 16.398438 9.199219 18 10.398438 18.800781 C 10.898438 19.199219 11.601562 19.101562 11.601562 19.101562 C 11.699219 19.101562 11.898438 19.101562 11.898438 19 C 11.199219 18.601562 9.601562 17.398438 11.800781 14.199219 C 11.800781 14.199219 11.699219 15.398438 12.199219 15.800781 C 12.5 15.898438 13 15.398438 13 15.398438 C 13 15.398438 14.101562 17.699219 12.5 18.699219 C 12.398438 18.699219 12.398438 18.800781 12.199219 18.800781 C 12.300781 18.898438 12.5 18.898438 12.5 18.898438 C 13.300781 18.898438 14.199219 18.398438 14.800781 17.199219 C 15.601562 15.898438 14.800781 14.300781 13.699219 13.199219 Z M 13.699219 13.199219 "/>
</g>
</svg>
