<?xml version="1.0" encoding="UTF-8"?>
<svg xmlns="http://www.w3.org/2000/svg" xmlns:xlink="http://www.w3.org/1999/xlink" width="24pt" height="24pt" viewBox="0 0 24 24" version="1.1">
<g id="surface1">
<path style=" stroke:none;fill-rule:nonzero;fill:rgb(71.372549%,71.372549%,71.372549%);fill-opacity:1;" d="M 17.800781 15.398438 L 14.699219 12.601562 L 13.199219 11.300781 C 13 11.101562 12.800781 11 12.601562 10.898438 C 12.199219 10.699219 11.699219 10.699219 11.300781 10.800781 C 11.199219 10.800781 11.101562 10.800781 11 10.898438 C 10.898438 11 10.800781 11.101562 10.699219 11.199219 C 10.398438 11.699219 10 12.101562 9.5 12.398438 C 9 12.699219 8.300781 12.601562 7.898438 12.101562 C 8.101562 11.800781 8.199219 11.398438 8.300781 11.101562 C 8.300781 10.398438 8.601562 9.800781 9 9.300781 C 9.300781 9 9.699219 8.800781 10 8.601562 L 10.300781 8.5 C 9.398438 8.398438 8.5 8.601562 7.800781 9.101562 L 7.5 9.300781 C 7.300781 9.5 7.101562 9.601562 6.800781 9.699219 C 6.5 9.800781 6.199219 9.800781 6 9.800781 L 4 9.800781 C 4 9.800781 2.800781 9.601562 2.800781 9.699219 L 2.5 14.398438 C 2.5 14.398438 2.898438 14.800781 2.898438 14.800781 L 6.199219 14.800781 C 6.398438 14.300781 6.699219 13.898438 7.101562 13.699219 C 7.398438 13.601562 7.699219 13.601562 8 13.699219 C 8.101562 13.800781 8.300781 13.898438 8.300781 14 C 8.5 13.800781 8.800781 13.601562 9.101562 13.601562 C 9.398438 13.601562 9.699219 13.699219 9.898438 14 C 10.101562 13.800781 10.398438 13.601562 10.699219 13.601562 C 11 13.601562 11.300781 13.800781 11.5 14 C 11.800781 13.800781 12.101562 13.699219 12.5 13.800781 C 12.898438 13.898438 13.199219 14.300781 13.199219 14.699219 C 13.199219 14.898438 13.101562 15.101562 13 15.300781 C 12.601562 16 12.199219 16.601562 11.800781 17.300781 C 12.101562 17.699219 12.5 18 13 18 C 13.199219 18 13.300781 17.898438 13.398438 17.800781 C 13.398438 17.699219 13.398438 17.601562 13.398438 17.601562 C 13.398438 17.5 13.300781 17.398438 13.199219 17.398438 L 12.5 16.699219 L 12.800781 16.5 L 13.601562 17.199219 C 13.800781 17.398438 14.101562 17.601562 14.398438 17.601562 C 14.601562 17.601562 14.699219 17.5 14.800781 17.398438 C 14.898438 17.300781 14.898438 17.199219 14.898438 17.101562 C 14.800781 17 14.800781 16.898438 14.601562 16.800781 L 13.601562 15.800781 L 13.601562 15.601562 L 13.800781 15.398438 L 13.800781 15.300781 L 13.898438 15.398438 C 14.398438 15.898438 14.898438 16.300781 15.398438 16.699219 C 15.601562 16.898438 15.898438 17 16.199219 17 C 16.398438 16.898438 16.601562 16.699219 16.5 16.398438 C 16.398438 16.199219 16.300781 16 16.101562 15.898438 L 14.601562 14.5 L 14.898438 14.199219 L 14.898438 14.300781 C 15.5 14.800781 16.101562 15.398438 16.699219 15.898438 C 16.898438 16.101562 17.199219 16.199219 17.5 16.300781 C 17.800781 16.398438 18 16.199219 18.101562 15.898438 C 18.199219 15.898438 18 15.601562 17.800781 15.398438 Z M 17.800781 15.398438 "/>
<path style=" stroke:none;fill-rule:nonzero;fill:rgb(71.372549%,71.372549%,71.372549%);fill-opacity:1;" d="M 21.101562 9.898438 C 20.898438 9.898438 19.601562 10 19.5 10 L 17.101562 10 C 16.699219 10 16.300781 10 15.898438 9.898438 C 15.5 9.800781 15 9.5 14.699219 9.199219 C 14.300781 8.898438 13.898438 8.699219 13.398438 8.601562 C 13.101562 8.5 12.800781 8.5 12.5 8.5 L 12.101562 8.5 C 11.898438 8.5 11.699219 8.5 11.5 8.5 C 11.199219 8.5 11 8.601562 10.699219 8.800781 C 10.5 8.898438 10.300781 9 10.101562 9.101562 C 9.699219 9.199219 9.398438 9.5 9.101562 9.800781 C 9 9.898438 8.898438 10.199219 8.800781 10.398438 L 8.199219 11.699219 C 8.300781 11.800781 8.5 11.800781 8.601562 11.800781 L 8.699219 11.800781 C 9.101562 11.699219 9.398438 11.5 9.601562 11.199219 L 9.800781 11 C 10 10.699219 10.199219 10.5 10.5 10.300781 C 10.800781 10.101562 11.101562 10.101562 11.5 10.101562 L 11.898438 10.101562 C 12.101562 10.101562 12.398438 10.101562 12.601562 10.199219 C 12.800781 10.300781 13 10.398438 13.199219 10.601562 L 17.699219 14.5 C 17.800781 14.601562 17.898438 14.699219 18 14.699219 L 19.5 14.699219 L 21.300781 14.601562 C 21.300781 13.800781 21.5 13 21.398438 12.199219 C 21.300781 11.398438 21.101562 10.699219 21.101562 9.898438 Z M 21.101562 9.898438 "/>
<path style=" stroke:none;fill-rule:nonzero;fill:rgb(71.372549%,71.372549%,71.372549%);fill-opacity:1;" d="M 6.5 16.101562 C 6.699219 16.199219 6.898438 16.199219 7.101562 16.101562 C 7.300781 16 7.398438 15.800781 7.5 15.601562 L 7.898438 14.800781 C 7.898438 14.699219 8 14.601562 8 14.398438 C 8 14.300781 7.800781 14.199219 7.699219 14.101562 L 7.601562 14.101562 C 7 14.101562 6.601562 14.898438 6.398438 15.601562 C 6.398438 15.699219 6.398438 15.699219 6.398438 15.800781 C 6.398438 16 6.398438 16.101562 6.5 16.101562 Z M 6.5 16.101562 "/>
<path style=" stroke:none;fill-rule:nonzero;fill:rgb(71.372549%,71.372549%,71.372549%);fill-opacity:1;" d="M 9.601562 14.601562 C 9.601562 14.398438 9.5 14.199219 9.300781 14.199219 L 9.101562 14.199219 C 8.898438 14.300781 8.699219 14.398438 8.601562 14.601562 C 8.398438 14.898438 8.199219 15.199219 8 15.601562 C 7.898438 15.699219 7.898438 15.898438 7.800781 16 C 7.699219 16.199219 7.601562 16.300781 7.601562 16.5 C 7.601562 16.601562 7.601562 16.699219 7.699219 16.800781 C 7.800781 16.898438 7.898438 16.898438 8 16.898438 C 8.101562 16.898438 8.300781 16.800781 8.398438 16.699219 C 8.5 16.601562 8.5 16.5 8.601562 16.398438 L 9.101562 15.398438 L 9.300781 15.101562 C 9.398438 15 9.5 14.800781 9.601562 14.601562 Z M 9.601562 14.601562 "/>
<path style=" stroke:none;fill-rule:nonzero;fill:rgb(71.372549%,71.372549%,71.372549%);fill-opacity:1;" d="M 11.199219 14.5 C 11.199219 14.398438 11.101562 14.300781 10.898438 14.300781 L 10.699219 14.300781 C 10.398438 14.300781 10.101562 14.5 9.898438 15 L 9 16.601562 C 8.898438 16.800781 8.800781 17 8.800781 17.199219 C 8.800781 17.398438 9 17.601562 9.199219 17.601562 C 9.300781 17.601562 9.5 17.601562 9.601562 17.5 C 9.699219 17.398438 9.800781 17.300781 9.800781 17.199219 L 11.101562 15 C 11.199219 14.898438 11.199219 14.800781 11.199219 14.800781 C 11.300781 14.601562 11.300781 14.5 11.199219 14.5 Z M 11.199219 14.5 "/>
<path style=" stroke:none;fill-rule:nonzero;fill:rgb(71.372549%,71.372549%,71.372549%);fill-opacity:1;" d="M 12.5 14.398438 L 12.398438 14.398438 C 12 14.398438 11.800781 14.800781 11.5 15.199219 L 11.398438 15.398438 L 10.398438 17.199219 C 10.398438 17.300781 10.300781 17.398438 10.300781 17.5 C 10.300781 17.601562 10.300781 17.699219 10.300781 17.800781 C 10.398438 17.898438 10.398438 18 10.5 18 C 10.699219 18.101562 10.898438 18.101562 11.101562 17.898438 C 11.199219 17.800781 11.300781 17.699219 11.398438 17.5 L 12.699219 15.398438 C 12.800781 15.199219 12.898438 15 12.898438 14.800781 C 12.800781 14.601562 12.601562 14.398438 12.5 14.398438 Z M 12.5 14.398438 "/>
<path style=" stroke:none;fill-rule:nonzero;fill:rgb(71.372549%,71.372549%,71.372549%);fill-opacity:1;" d="M 15.800781 9.300781 C 15.898438 9.199219 16.300781 8.699219 16.300781 8.5 C 16.300781 8.398438 16.300781 8.398438 16.300781 8.5 C 16.101562 8.5 15.898438 8.5 15.699219 8.5 L 14.398438 8.5 C 14.800781 8.800781 15.300781 9.101562 15.800781 9.300781 Z M 15.800781 9.300781 "/>
<path style="fill:none;stroke-width:2;stroke-linecap:butt;stroke-linejoin:miter;stroke:rgb(71.372549%,71.372549%,71.372549%);stroke-opacity:1;stroke-miterlimit:10;" d="M 22 12.199219 C 22 17.722656 17.523438 22.199219 12 22.199219 C 6.476562 22.199219 2 17.722656 2 12.199219 C 2 6.675781 6.476562 2.199219 12 2.199219 C 17.523438 2.199219 22 6.675781 22 12.199219 Z M 22 12.199219 "/>
</g>
</svg>
