<?xml version="1.0" encoding="UTF-8"?>
<svg xmlns="http://www.w3.org/2000/svg" xmlns:xlink="http://www.w3.org/1999/xlink" width="24pt" height="24pt" viewBox="0 0 24 24" version="1.1">
<g id="surface148">
<path style=" stroke:none;fill-rule:nonzero;fill:rgb(71.372549%,71.372549%,71.372549%);fill-opacity:1;" d="M 22.199219 5.800781 L 18.898438 5.800781 C 19 5.300781 19 4.800781 18.800781 4.300781 C 18.5 3.601562 18 3 17.199219 2.601562 C 16.398438 2.199219 15.5 2.101562 14.699219 2.398438 C 13.898438 2.699219 13.199219 3.199219 12.800781 3.898438 L 12.101562 5 L 11.398438 3.800781 C 11 3.199219 10.300781 2.699219 9.5 2.398438 C 8.601562 2.101562 7.699219 2.199219 7 2.601562 C 5.601562 3.199219 5 4.5 5.199219 5.800781 L 1.898438 5.800781 L 1.898438 10.199219 L 3.800781 10.199219 L 3.898438 22 L 20.199219 22 L 20.101562 10.199219 L 22.199219 10.199219 Z M 14.5 4.699219 C 14.699219 4.398438 15 4.199219 15.300781 4.101562 C 15.601562 4 16 4.101562 16.300781 4.199219 C 16.601562 4.398438 16.898438 4.601562 17 4.898438 C 17 5.199219 17 5.5 16.898438 5.800781 L 14 5.800781 Z M 7.898438 4.199219 C 8.101562 4.101562 8.199219 4.101562 8.398438 4.101562 C 8.5 4.101562 8.699219 4.101562 8.800781 4.199219 C 9.101562 4.300781 9.398438 4.5 9.601562 4.800781 L 10.199219 5.800781 L 7.300781 5.800781 C 7 5.199219 7.300781 4.5 7.898438 4.199219 Z M 18.199219 19.699219 L 5.898438 19.699219 L 5.898438 10.101562 L 18.199219 10.101562 Z M 20.601562 8.800781 L 3.601562 8.800781 L 3.601562 7.101562 L 20.601562 7.101562 Z M 20.601562 8.800781 "/>
<path style=" stroke:none;fill-rule:nonzero;fill:rgb(71.372549%,71.372549%,71.372549%);fill-opacity:1;" d="M 15.601562 16.5 L 14.5 15.898438 L 15.5 15.699219 C 15.699219 15.699219 15.800781 15.5 15.699219 15.300781 C 15.699219 15.101562 15.5 15 15.300781 15.101562 L 13.699219 15.5 L 12.601562 14.898438 L 13.699219 14.300781 L 15.300781 14.699219 L 15.398438 14.699219 C 15.5 14.699219 15.699219 14.601562 15.699219 14.5 C 15.699219 14.300781 15.601562 14.199219 15.5 14.101562 L 14.5 13.898438 L 15.601562 13.300781 C 15.800781 13.199219 15.800781 13 15.699219 12.898438 C 15.601562 12.800781 15.398438 12.699219 15.300781 12.800781 L 14.199219 13.398438 L 14.5 12.5 C 14.5 12.300781 14.398438 12.199219 14.300781 12.101562 C 14.101562 12.101562 13.898438 12.199219 13.898438 12.300781 L 13.5 13.800781 L 12.398438 14.398438 L 12.398438 13.199219 L 13.601562 12.101562 C 13.699219 12 13.699219 11.800781 13.601562 11.699219 C 13.5 11.601562 13.300781 11.601562 13.101562 11.699219 L 12.398438 12.398438 L 12.398438 11.199219 C 12.398438 11 12.300781 10.898438 12.101562 10.898438 C 11.898438 10.898438 11.800781 11 11.800781 11.199219 L 11.800781 12.398438 L 11 11.601562 C 10.898438 11.5 10.699219 11.5 10.5 11.601562 C 10.398438 11.699219 10.398438 11.898438 10.5 12 L 11.699219 13.101562 L 11.699219 14.300781 L 10.601562 13.699219 L 10.199219 12.199219 C 10.199219 12 10 11.898438 9.800781 12 C 9.601562 12 9.5 12.199219 9.601562 12.398438 L 9.898438 13.300781 L 8.800781 12.699219 C 8.601562 12.601562 8.398438 12.699219 8.398438 12.800781 C 8.300781 12.898438 8.398438 13.101562 8.5 13.199219 L 9.601562 13.800781 L 8.601562 14 C 8.398438 14 8.300781 14.199219 8.398438 14.398438 C 8.398438 14.5 8.601562 14.601562 8.699219 14.601562 L 8.800781 14.601562 L 10.398438 14.199219 L 11.5 14.800781 L 10.398438 15.398438 L 8.800781 15 C 8.601562 15 8.398438 15.101562 8.398438 15.199219 C 8.398438 15.398438 8.5 15.5 8.601562 15.601562 L 9.601562 15.800781 L 8.5 16.398438 C 8.300781 16.5 8.300781 16.699219 8.398438 16.800781 C 8.5 16.898438 8.601562 17 8.699219 17 C 8.800781 17 8.800781 17 8.898438 17 L 9.898438 16.398438 L 9.601562 17.398438 C 9.601562 17.601562 9.699219 17.699219 9.800781 17.800781 L 9.898438 17.800781 C 10 17.800781 10.199219 17.699219 10.199219 17.601562 L 10.601562 16.101562 L 11.699219 15.5 L 11.699219 16.699219 L 10.5 17.800781 C 10.398438 17.898438 10.398438 18.101562 10.5 18.199219 C 10.601562 18.300781 10.800781 18.300781 11 18.199219 L 11.699219 17.5 L 11.699219 18.699219 C 11.699219 18.898438 11.800781 19 12 19 C 12.199219 19 12.300781 18.898438 12.300781 18.699219 L 12.300781 17.5 L 13 18.199219 C 13.101562 18.300781 13.101562 18.300781 13.199219 18.300781 C 13.300781 18.300781 13.398438 18.300781 13.398438 18.199219 C 13.5 18.101562 13.5 17.898438 13.398438 17.800781 L 12.199219 16.699219 L 12.199219 15.398438 L 13.300781 16 L 13.699219 17.5 C 13.699219 17.601562 13.898438 17.699219 14 17.699219 L 14.101562 17.699219 C 14.300781 17.699219 14.398438 17.5 14.300781 17.300781 L 14.300781 16.398438 L 15.398438 17 C 15.5 17 15.5 17 15.601562 17 C 15.699219 17 15.800781 16.898438 15.898438 16.800781 C 15.898438 16.800781 15.800781 16.601562 15.601562 16.5 Z M 15.601562 16.5 "/>
</g>
</svg>
