<?xml version="1.0" encoding="UTF-8"?>
<svg xmlns="http://www.w3.org/2000/svg" xmlns:xlink="http://www.w3.org/1999/xlink" width="24pt" height="24pt" viewBox="0 0 24 24" version="1.1">
<g id="surface54">
<path style=" stroke:none;fill-rule:nonzero;fill:rgb(5.882353%,4.313725%,8.627451%);fill-opacity:1;" d="M 24 12 C 24 18.628906 18.628906 24 12 24 C 5.371094 24 0 18.628906 0 12 C 0 5.371094 5.371094 0 12 0 C 18.628906 0 24 5.371094 24 12 Z M 24 12 "/>
<path style="fill-rule:nonzero;fill:rgb(5.882353%,4.313725%,8.627451%);fill-opacity:1;stroke-width:1.5;stroke-linecap:butt;stroke-linejoin:miter;stroke:rgb(21.176471%,61.176471%,38.431373%);stroke-opacity:1;stroke-miterlimit:4;" d="M 12 3 C 7 3 3 7 3 12 C 3 17 7 21 12 21 C 17 21 21 17 21 12 C 21 9.601562 20.101562 7.300781 18.398438 5.601562 C 16.699219 3.898438 14.398438 3 12 3 Z M 12 3 "/>
</g>
</svg>
