<?xml version="1.0" encoding="UTF-8"?>
<svg xmlns="http://www.w3.org/2000/svg" xmlns:xlink="http://www.w3.org/1999/xlink" width="24pt" height="24pt" viewBox="0 0 24 24" version="1.1">
<g id="surface215">
<path style=" stroke:none;fill-rule:nonzero;fill:rgb(21.176471%,61.176471%,38.431373%);fill-opacity:1;" d="M 12 6 C 8.699219 6 6 8.699219 6 12 C 6 15.300781 8.699219 18 12 18 C 15.300781 18 18 15.300781 18 12 C 18 8.699219 15.398438 6 12.101562 6 C 12.101562 6 12 6 12 6 Z M 12 0 C 5.398438 0 0 5.398438 0 12 C 0 18.601562 5.398438 24 12 24 C 18.601562 24 24 18.601562 24 12 C 24 5.398438 18.601562 0 12 0 Z M 12 21.601562 C 6.699219 21.601562 2.398438 17.300781 2.398438 12 C 2.398438 6.699219 6.699219 2.398438 12 2.398438 C 17.300781 2.398438 21.601562 6.699219 21.601562 12 C 21.601562 17.300781 17.300781 21.601562 12 21.601562 Z M 12 21.601562 "/>
</g>
</svg>
