<?xml version="1.0" encoding="UTF-8"?>
<svg xmlns="http://www.w3.org/2000/svg" xmlns:xlink="http://www.w3.org/1999/xlink" width="24pt" height="24pt" viewBox="0 0 24 24" version="1.1">
<g id="surface226">
<path style=" stroke:none;fill-rule:nonzero;fill:rgb(31.372549%,31.372549%,31.372549%);fill-opacity:1;" d="M 7 4 L 16 4 L 16 10 L 18 10 L 18 2 L 2 2 L 2 22 L 14 22 L 14 20 L 7 20 Z M 4 20 L 4 4 L 5 4 L 5 20 Z M 4 20 "/>
<path style=" stroke:none;fill-rule:nonzero;fill:rgb(31.372549%,31.372549%,31.372549%);fill-opacity:1;" d="M 15 11 L 15 6 L 8 6 L 8 11 Z M 10 8 L 13 8 L 13 9 L 10 9 Z M 10 8 "/>
<path style=" stroke:none;fill-rule:nonzero;fill:rgb(31.372549%,31.372549%,31.372549%);fill-opacity:1;" d="M 22 16 L 18 16 L 18 12 L 16 12 L 16 16 L 12 16 L 12 18 L 16 18 L 16 22 L 18 22 L 18 18 L 22 18 Z M 22 16 "/>
</g>
</svg>
