<?xml version="1.0" encoding="UTF-8"?>
<svg xmlns="http://www.w3.org/2000/svg" xmlns:xlink="http://www.w3.org/1999/xlink" width="26pt" height="26pt" viewBox="0 0 26 26" version="1.1">
<defs>
<filter id="alpha" filterUnits="objectBoundingBox" x="0%" y="0%" width="100%" height="100%">
  <feColorMatrix type="matrix" in="SourceGraphic" values="0 0 0 0 1 0 0 0 0 1 0 0 0 0 1 0 0 0 1 0"/>
</filter>
<mask id="mask0">
  <g filter="url(#alpha)">
<rect x="0" y="0" width="26" height="26" style="fill:rgb(0%,0%,0%);fill-opacity:0.501961;stroke:none;"/>
  </g>
</mask>
<clipPath id="clip1">
  <rect x="0" y="0" width="26" height="26"/>
</clipPath>
<g id="surface399" clip-path="url(#clip1)">
<path style=" stroke:none;fill-rule:nonzero;fill:rgb(100%,100%,100%);fill-opacity:1;" d="M 8 2 L 4 2 L 4 24 L 22 24 L 22 2 Z M 6 22 L 6 4 L 7 4 L 7 22 Z M 20 22 L 9 22 L 9 4 L 20 4 Z M 20 22 "/>
<path style=" stroke:none;fill-rule:nonzero;fill:rgb(100%,100%,100%);fill-opacity:1;" d="M 19 6 L 10 6 L 10 12 L 19 12 Z M 17 10 L 12 10 L 12 8 L 17 8 Z M 17 10 "/>
</g>
</defs>
<g id="surface395">
<use xlink:href="#surface399" mask="url(#mask0)"/>
</g>
</svg>
