<?xml version="1.0" encoding="UTF-8"?>
<svg xmlns="http://www.w3.org/2000/svg" xmlns:xlink="http://www.w3.org/1999/xlink" width="24pt" height="24pt" viewBox="0 0 24 24" version="1.1">
<g id="surface196">
<path style=" stroke:none;fill-rule:nonzero;fill:rgb(100%,100%,100%);fill-opacity:1;" d="M 12 7 C 9.238281 7 7 9.238281 7 12 C 7 14.761719 9.238281 17 12 17 C 14.761719 17 17 14.761719 17 12 C 16.996094 9.238281 14.761719 7.003906 12 7 Z M 12 15 C 10.34375 15 9 13.65625 9 12 C 9 10.34375 10.34375 9 12 9 C 13.65625 9 15 10.34375 15 12 C 15 13.65625 13.65625 15 12 15 Z M 12 15 "/>
<path style=" stroke:none;fill-rule:nonzero;fill:rgb(100%,100%,100%);fill-opacity:1;" d="M 11 2 L 13 2 L 13 6 L 11 6 Z M 11 2 "/>
<path style=" stroke:none;fill-rule:nonzero;fill:rgb(100%,100%,100%);fill-opacity:1;" d="M 11 18 L 13 18 L 13 22 L 11 22 Z M 11 18 "/>
<path style=" stroke:none;fill-rule:nonzero;fill:rgb(100%,100%,100%);fill-opacity:1;" d="M 2 11 L 6 11 L 6 13 L 2 13 Z M 2 11 "/>
<path style=" stroke:none;fill-rule:nonzero;fill:rgb(100%,100%,100%);fill-opacity:1;" d="M 18 11 L 22 11 L 22 13 L 18 13 Z M 18 11 "/>
<path style=" stroke:none;fill-rule:nonzero;fill:rgb(100%,100%,100%);fill-opacity:1;" d="M 4.222656 5.636719 L 5.636719 4.222656 L 8.464844 7.050781 L 7.050781 8.464844 Z M 4.222656 5.636719 "/>
<path style=" stroke:none;fill-rule:nonzero;fill:rgb(100%,100%,100%);fill-opacity:1;" d="M 15.535156 16.949219 L 16.949219 15.535156 L 19.777344 18.363281 L 18.363281 19.777344 Z M 15.535156 16.949219 "/>
<path style=" stroke:none;fill-rule:nonzero;fill:rgb(100%,100%,100%);fill-opacity:1;" d="M 4.222656 18.363281 L 7.050781 15.535156 L 8.464844 16.949219 L 5.636719 19.777344 Z M 4.222656 18.363281 "/>
<path style=" stroke:none;fill-rule:nonzero;fill:rgb(100%,100%,100%);fill-opacity:1;" d="M 15.535156 7.050781 L 18.363281 4.222656 L 19.777344 5.636719 L 16.949219 8.464844 Z M 15.535156 7.050781 "/>
</g>
</svg>
