<?xml version="1.0" encoding="UTF-8"?>
<svg xmlns="http://www.w3.org/2000/svg" xmlns:xlink="http://www.w3.org/1999/xlink" width="30pt" height="30pt" viewBox="0 0 30 30" version="1.1">
<g id="surface20">
<path style=" stroke:none;fill-rule:nonzero;fill:rgb(45.882353%,60.784314%,51.764706%);fill-opacity:1;" d="M 26.75 20.375 L 23.25 18.5 L 26.375 17.75 C 27 17.625 27.25 17 27.125 16.5 C 27 16 26.375 15.625 25.875 15.75 L 20.625 17.125 L 17.25 15.25 L 20.625 13.375 L 25.875 14.75 C 26 14.75 26 14.75 26.125 14.75 C 26.625 14.75 27 14.5 27.125 14 C 27.25 13.5 27 12.875 26.375 12.75 L 23.25 12 L 26.75 10.125 C 27.25 9.875 27.375 9.25 27.125 8.75 C 26.875 8.25 26.125 8.125 25.625 8.375 L 22.25 10 L 23.125 7 C 23.25 6.5 23 5.875 22.375 5.75 C 21.75 5.625 21.25 5.875 21.125 6.5 L 19.75 11.5 L 16.375 13.375 L 16.375 9.625 L 20 6 C 20.375 5.625 20.375 5 20 4.5 C 19.625 4.125 18.875 4.125 18.5 4.5 L 16.25 6.75 L 16.25 2.875 C 16.25 2.25 15.75 1.875 15.125 1.875 C 14.5 1.875 14 2.375 14 2.875 L 14 6.75 L 11.75 4.5 C 11.25 4.125 10.625 4.125 10.25 4.5 C 9.875 4.875 9.875 5.5 10.25 6 L 14.125 9.625 L 14.125 13.375 L 10.625 11.5 L 9.25 6.5 C 9.125 6 8.5 5.625 8 5.75 C 7.375 5.875 7.125 6.5 7.25 7 L 8 10 L 4.5 8.125 C 4 7.875 3.375 8 3 8.5 C 2.75 9 2.875 9.625 3.375 9.875 L 6.875 11.75 L 3.75 12.625 C 3.125 12.75 2.875 13.375 3 13.875 C 3.125 14.375 3.5 14.625 4 14.625 C 4.125 14.625 4.125 14.625 4.25 14.625 L 9.5 13.25 L 12.875 15.125 L 9.5 17 L 4.25 15.625 C 3.625 15.5 3.125 15.75 3 16.375 C 2.875 16.875 3.125 17.5 3.75 17.625 L 6.875 18.375 L 3.375 20.25 C 2.875 20.5 2.75 21.125 3 21.625 C 3.25 22 3.5 22.125 3.875 22.125 C 4 22.125 4.25 22.125 4.375 22 L 7.875 20.125 L 7 23.125 C 6.875 23.625 7.125 24.25 7.75 24.375 C 7.875 24.375 7.875 24.375 8 24.375 C 8.5 24.375 8.875 24.125 9 23.625 L 10.375 18.625 L 13.75 16.75 L 13.75 20.5 L 9.875 24.125 C 9.5 24.5 9.5 25.125 9.875 25.625 C 10.25 26 11 26 11.375 25.625 L 13.625 23.375 L 13.625 27.25 C 13.625 27.875 14.125 28.25 14.75 28.25 C 15.375 28.25 15.875 27.75 15.875 27.25 L 15.875 23.375 L 18.125 25.625 C 18.375 25.875 18.625 25.875 18.875 25.875 C 19.125 25.875 19.375 25.75 19.625 25.625 C 20 25.25 20 24.625 19.625 24.125 L 15.75 20.5 L 15.75 16.75 L 19.125 18.625 L 20.5 23.625 C 20.625 24.125 21 24.375 21.5 24.375 C 21.625 24.375 21.625 24.375 21.75 24.375 C 22.375 24.25 22.625 23.625 22.5 23.125 L 21.625 20.125 L 25.125 22 C 25.25 22.125 25.5 22.125 25.625 22.125 C 26 22.125 26.375 22 26.5 21.625 C 27.5 21.25 27.25 20.625 26.75 20.375 Z M 26.75 20.375 "/>
</g>
</svg>
