<?xml version="1.0" encoding="UTF-8"?>
<svg xmlns="http://www.w3.org/2000/svg" xmlns:xlink="http://www.w3.org/1999/xlink" width="24pt" height="24pt" viewBox="0 0 24 24" version="1.1">
<g id="surface29">
<path style=" stroke:none;fill-rule:nonzero;fill:rgb(100%,100%,100%);fill-opacity:1;" d="M 14 18 C 14 19.105469 13.105469 20 12 20 C 10.894531 20 10 19.105469 10 18 C 10 16.894531 10.894531 16 12 16 C 13.105469 16 14 16.894531 14 18 Z M 14 18 "/>
<path style=" stroke:none;fill-rule:nonzero;fill:rgb(100%,100%,100%);fill-opacity:1;" d="M 20.734375 9.394531 C 15.789062 4.867188 8.210938 4.867188 3.265625 9.394531 L 1.921875 7.914062 C 7.628906 2.695312 16.371094 2.695312 22.078125 7.914062 Z M 20.734375 9.394531 "/>
<path style=" stroke:none;fill-rule:nonzero;fill:rgb(100%,100%,100%);fill-opacity:1;" d="M 18.046875 12.347656 C 14.625 9.21875 9.375 9.21875 5.953125 12.347656 L 4.609375 10.867188 C 8.792969 7.042969 15.207031 7.042969 19.390625 10.867188 Z M 18.046875 12.347656 "/>
<path style=" stroke:none;fill-rule:nonzero;fill:rgb(100%,100%,100%);fill-opacity:1;" d="M 8.640625 15.304688 L 7.300781 13.824219 C 9.964844 11.390625 14.042969 11.390625 16.707031 13.824219 L 15.363281 15.304688 C 13.4375 13.621094 10.566406 13.621094 8.640625 15.304688 Z M 8.640625 15.304688 "/>
</g>
</svg>
