<?xml version="1.0" encoding="UTF-8"?>
<svg xmlns="http://www.w3.org/2000/svg" xmlns:xlink="http://www.w3.org/1999/xlink" width="17pt" height="18pt" viewBox="0 0 17 18" version="1.1">
<defs>
<filter id="alpha" filterUnits="objectBoundingBox" x="0%" y="0%" width="100%" height="100%">
  <feColorMatrix type="matrix" in="SourceGraphic" values="0 0 0 0 1 0 0 0 0 1 0 0 0 0 1 0 0 0 1 0"/>
</filter>
<mask id="mask0">
  <g filter="url(#alpha)">
<rect x="0" y="0" width="17" height="18" style="fill:rgb(0%,0%,0%);fill-opacity:0.694118;stroke:none;"/>
  </g>
</mask>
<clipPath id="clip1">
  <rect x="0" y="0" width="18" height="17"/>
</clipPath>
<g id="surface28" clip-path="url(#clip1)">
<path style=" stroke:none;fill-rule:evenodd;fill:rgb(100%,100%,100%);fill-opacity:1;" d="M 16.800781 14.800781 L 10.101562 8 L 16.800781 1.199219 L 17.300781 0.699219 L 16.800781 0.199219 C 16.496094 -0.101562 16.003906 -0.101562 15.699219 0.199219 L 9 6.898438 L 2.300781 0.199219 C 1.996094 -0.101562 1.503906 -0.101562 1.199219 0.199219 L 0.699219 0.699219 L 1.199219 1.199219 L 7.898438 8 L 1.199219 14.800781 C 0.898438 15.105469 0.898438 15.59375 1.199219 15.898438 L 1.699219 16.398438 L 2.199219 15.898438 L 8.898438 9.101562 L 15.601562 15.898438 L 16.101562 16.398438 L 16.601562 15.898438 C 17.101562 15.5 17.101562 15 16.800781 14.800781 Z M 16.800781 14.800781 "/>
</g>
</defs>
<g id="surface24">
<use xlink:href="#surface28" mask="url(#mask0)"/>
</g>
</svg>
