<?xml version="1.0" encoding="UTF-8"?>
<svg xmlns="http://www.w3.org/2000/svg" xmlns:xlink="http://www.w3.org/1999/xlink" width="24pt" height="24pt" viewBox="0 0 24 24" version="1.1">
<g id="surface180">
<path style="fill-rule:nonzero;fill:rgb(21.176471%,61.176471%,38.431373%);fill-opacity:1;stroke-width:0.15;stroke-linecap:butt;stroke-linejoin:miter;stroke:rgb(100%,100%,100%);stroke-opacity:1;stroke-miterlimit:10;" d="M 15.898438 13.800781 L 18.300781 15.199219 L 20.699219 13.800781 L 18.300781 12.398438 Z M 15.898438 13.800781 "/>
<path style="fill-rule:nonzero;fill:rgb(21.176471%,61.176471%,38.431373%);fill-opacity:1;stroke-width:0.15;stroke-linecap:butt;stroke-linejoin:miter;stroke:rgb(100%,100%,100%);stroke-opacity:1;stroke-miterlimit:10;" d="M 12.800781 15.601562 L 15.101562 17 L 17.5 15.601562 L 15.101562 14.300781 Z M 12.800781 15.601562 "/>
<path style="fill-rule:nonzero;fill:rgb(21.176471%,61.176471%,38.431373%);fill-opacity:1;stroke-width:0.15;stroke-linecap:butt;stroke-linejoin:miter;stroke:rgb(100%,100%,100%);stroke-opacity:1;stroke-miterlimit:10;" d="M 6.398438 15.601562 L 8.800781 17 L 11.199219 15.601562 L 8.800781 14.300781 Z M 6.398438 15.601562 "/>
<path style="fill-rule:nonzero;fill:rgb(21.176471%,61.176471%,38.431373%);fill-opacity:1;stroke-width:0.15;stroke-linecap:butt;stroke-linejoin:miter;stroke:rgb(100%,100%,100%);stroke-opacity:1;stroke-miterlimit:10;" d="M 3.101562 13.800781 L 5.5 15.199219 L 7.898438 13.800781 L 5.5 12.398438 Z M 3.101562 13.800781 "/>
<path style="fill-rule:nonzero;fill:rgb(21.176471%,61.176471%,38.431373%);fill-opacity:1;stroke-width:0.15;stroke-linecap:butt;stroke-linejoin:miter;stroke:rgb(100%,100%,100%);stroke-opacity:1;stroke-miterlimit:10;" d="M 9.601562 17.398438 L 12 18.800781 L 14.300781 17.398438 L 12 16.101562 Z M 9.601562 17.398438 "/>
<path style="fill-rule:nonzero;fill:rgb(21.176471%,61.176471%,38.431373%);fill-opacity:1;stroke-width:0.15;stroke-linecap:butt;stroke-linejoin:miter;stroke:rgb(100%,100%,100%);stroke-opacity:1;stroke-miterlimit:10;" d="M 3.199219 17.5 L 5.601562 18.898438 L 8 17.5 L 5.601562 16.101562 Z M 3.199219 17.5 "/>
<path style="fill-rule:nonzero;fill:rgb(21.176471%,61.176471%,38.431373%);fill-opacity:1;stroke-width:0.15;stroke-linecap:butt;stroke-linejoin:miter;stroke:rgb(100%,100%,100%);stroke-opacity:1;stroke-miterlimit:10;" d="M 19.101562 15.601562 L 21.5 17 L 23.898438 15.601562 L 21.5 14.199219 Z M 19.101562 15.601562 "/>
<path style="fill-rule:nonzero;fill:rgb(21.176471%,61.176471%,38.431373%);fill-opacity:1;stroke-width:0.15;stroke-linecap:butt;stroke-linejoin:miter;stroke:rgb(100%,100%,100%);stroke-opacity:1;stroke-miterlimit:10;" d="M 15.898438 17.398438 L 18.300781 18.800781 L 20.601562 17.398438 L 18.300781 16.101562 Z M 15.898438 17.398438 "/>
<path style="fill-rule:nonzero;fill:rgb(21.176471%,61.176471%,38.431373%);fill-opacity:1;stroke-width:0.15;stroke-linecap:butt;stroke-linejoin:miter;stroke:rgb(100%,100%,100%);stroke-opacity:1;stroke-miterlimit:10;" d="M 12.699219 19.300781 L 15.101562 20.601562 L 17.5 19.300781 L 15.101562 17.898438 Z M 12.699219 19.300781 "/>
<path style="fill-rule:nonzero;fill:rgb(21.176471%,61.176471%,38.431373%);fill-opacity:1;stroke-width:0.15;stroke-linecap:butt;stroke-linejoin:miter;stroke:rgb(100%,100%,100%);stroke-opacity:1;stroke-miterlimit:10;" d="M 9.601562 21.101562 L 12 22.5 L 14.398438 21.101562 L 12 19.800781 Z M 9.601562 21.101562 "/>
<path style="fill-rule:nonzero;fill:rgb(21.176471%,61.176471%,38.431373%);fill-opacity:1;stroke-width:0.15;stroke-linecap:butt;stroke-linejoin:miter;stroke:rgb(100%,100%,100%);stroke-opacity:1;stroke-miterlimit:10;" d="M 6.398438 19.300781 L 8.800781 20.601562 L 11.101562 19.300781 L 8.800781 17.898438 Z M 6.398438 19.300781 "/>
<path style="fill-rule:nonzero;fill:rgb(21.176471%,61.176471%,38.431373%);fill-opacity:1;stroke-width:0.15;stroke-linecap:butt;stroke-linejoin:miter;stroke:rgb(100%,100%,100%);stroke-opacity:1;stroke-miterlimit:10;" d="M 0.101562 15.601562 L 2.5 17 L 4.898438 15.601562 L 2.5 14.199219 Z M 0.101562 15.601562 "/>
<path style="fill-rule:nonzero;fill:rgb(0%,0%,0%);fill-opacity:1;stroke-width:0.15;stroke-linecap:butt;stroke-linejoin:miter;stroke:rgb(100%,100%,100%);stroke-opacity:1;stroke-miterlimit:10;" d="M 11.199219 4.699219 L 8.800781 3.300781 L 6.398438 4.699219 L 8.800781 6.101562 Z M 11.199219 4.699219 "/>
<path style="fill-rule:nonzero;fill:rgb(0%,0%,0%);fill-opacity:1;stroke-width:0.15;stroke-linecap:butt;stroke-linejoin:miter;stroke:rgb(100%,100%,100%);stroke-opacity:1;stroke-miterlimit:10;" d="M 17.5 4.699219 L 15.101562 3.300781 L 12.800781 4.699219 L 15.101562 6.101562 Z M 17.5 4.699219 "/>
<path style="fill-rule:nonzero;fill:rgb(0%,0%,0%);fill-opacity:1;stroke-width:0.15;stroke-linecap:butt;stroke-linejoin:miter;stroke:rgb(100%,100%,100%);stroke-opacity:1;stroke-miterlimit:10;" d="M 14.300781 6.5 L 12 5.101562 L 9.601562 6.5 L 12 7.898438 Z M 14.300781 6.5 "/>
<path style="fill-rule:nonzero;fill:rgb(0%,0%,0%);fill-opacity:1;stroke-width:0.15;stroke-linecap:butt;stroke-linejoin:miter;stroke:rgb(100%,100%,100%);stroke-opacity:1;stroke-miterlimit:10;" d="M 14.300781 2.898438 L 12 1.5 L 9.601562 2.898438 L 12 4.199219 Z M 14.300781 2.898438 "/>
<path style="fill-rule:nonzero;fill:rgb(0%,0%,0%);fill-opacity:1;stroke-width:0.15;stroke-linecap:butt;stroke-linejoin:miter;stroke:rgb(100%,100%,100%);stroke-opacity:1;stroke-miterlimit:10;" d="M 11.601562 12.199219 L 9.199219 10.800781 L 9.199219 13.601562 L 11.601562 14.898438 Z M 11.601562 12.199219 "/>
<path style="fill-rule:nonzero;fill:rgb(0%,0%,0%);fill-opacity:1;stroke-width:0.15;stroke-linecap:butt;stroke-linejoin:miter;stroke:rgb(100%,100%,100%);stroke-opacity:1;stroke-miterlimit:10;" d="M 8.398438 6.699219 L 6 5.398438 L 6 8.101562 L 8.398438 9.5 Z M 8.398438 6.699219 "/>
<path style="fill-rule:nonzero;fill:rgb(0%,0%,0%);fill-opacity:1;stroke-width:0.15;stroke-linecap:butt;stroke-linejoin:miter;stroke:rgb(100%,100%,100%);stroke-opacity:1;stroke-miterlimit:10;" d="M 11.601562 8.601562 L 9.199219 7.199219 L 9.199219 9.898438 L 11.601562 11.300781 Z M 11.601562 8.601562 "/>
<path style="fill-rule:nonzero;fill:rgb(0%,0%,0%);fill-opacity:1;stroke-width:0.15;stroke-linecap:butt;stroke-linejoin:miter;stroke:rgb(100%,100%,100%);stroke-opacity:1;stroke-miterlimit:10;" d="M 8.398438 10.398438 L 6 9 L 6 11.800781 L 8.398438 13.101562 Z M 8.398438 10.398438 "/>
<path style="fill-rule:nonzero;fill:rgb(0%,0%,0%);fill-opacity:1;stroke-width:0.15;stroke-linecap:butt;stroke-linejoin:miter;stroke:rgb(100%,100%,100%);stroke-opacity:1;stroke-miterlimit:10;" d="M 14.699219 7.199219 L 12.398438 8.601562 L 12.398438 11.300781 L 14.699219 9.898438 Z M 14.699219 7.199219 "/>
<path style="fill-rule:nonzero;fill:rgb(0%,0%,0%);fill-opacity:1;stroke-width:0.15;stroke-linecap:butt;stroke-linejoin:miter;stroke:rgb(100%,100%,100%);stroke-opacity:1;stroke-miterlimit:10;" d="M 14.699219 10.800781 L 12.398438 12.199219 L 12.398438 14.898438 L 14.699219 13.601562 Z M 14.699219 10.800781 "/>
<path style="fill-rule:nonzero;fill:rgb(0%,0%,0%);fill-opacity:1;stroke-width:0.15;stroke-linecap:butt;stroke-linejoin:miter;stroke:rgb(100%,100%,100%);stroke-opacity:1;stroke-miterlimit:10;" d="M 17.898438 5.300781 L 15.5 6.699219 L 15.5 9.5 L 17.898438 8.101562 Z M 17.898438 5.300781 "/>
<path style="fill-rule:nonzero;fill:rgb(0%,0%,0%);fill-opacity:1;stroke-width:0.15;stroke-linecap:butt;stroke-linejoin:miter;stroke:rgb(100%,100%,100%);stroke-opacity:1;stroke-miterlimit:10;" d="M 17.898438 9 L 15.5 10.398438 L 15.5 13.101562 L 17.898438 11.800781 Z M 17.898438 9 "/>
</g>
</svg>
