<?xml version="1.0" encoding="UTF-8"?>
<svg xmlns="http://www.w3.org/2000/svg" xmlns:xlink="http://www.w3.org/1999/xlink" width="24pt" height="24pt" viewBox="0 0 24 24" version="1.1">
<g id="surface52">
<path style=" stroke:none;fill-rule:nonzero;fill:rgb(48.627451%,46.27451%,52.941176%);fill-opacity:1;" d="M 16.332031 15 L 13 12.5 L 13 9 L 15.5 9 L 15.5 2 L 8.5 2 L 8.5 9 L 11 9 L 11 12.5 L 7.667969 15 L 2 15 L 2 22 L 9 22 L 9 16.5 L 12 14.25 L 15 16.5 L 15 22 L 22 22 L 22 15 Z M 10.5 4 L 13.5 4 L 13.5 7 L 10.5 7 Z M 7 20 L 4 20 L 4 17 L 7 17 Z M 20 20 L 17 20 L 17 17 L 20 17 Z M 20 20 "/>
</g>
</svg>
