<?xml version="1.0" encoding="UTF-8"?>
<svg xmlns="http://www.w3.org/2000/svg" xmlns:xlink="http://www.w3.org/1999/xlink" width="24pt" height="24pt" viewBox="0 0 24 24" version="1.1">
<g id="surface212">
<path style=" stroke:none;fill-rule:nonzero;fill:rgb(45.882353%,60.784314%,51.764706%);fill-opacity:1;" d="M 19.601562 16.800781 C 20.5 15.398438 21 13.699219 21 12 L 19 12 C 19 13.199219 18.699219 14.300781 18.199219 15.300781 Z M 19.601562 16.800781 "/>
<path style=" stroke:none;fill-rule:nonzero;fill:rgb(45.882353%,60.784314%,51.764706%);fill-opacity:1;" d="M 15.300781 18.199219 C 12.199219 19.898438 8.300781 19 6.199219 16 L 9 16 L 9 14 L 3 14 L 3 20 L 5 20 L 5 17.601562 C 7.800781 21.199219 12.898438 22 16.800781 19.601562 Z M 15.300781 18.199219 "/>
<path style=" stroke:none;fill-rule:nonzero;fill:rgb(45.882353%,60.784314%,51.764706%);fill-opacity:1;" d="M 8.699219 5.800781 C 11.800781 4.101562 15.699219 5 17.800781 8 L 15 8 L 15 10 L 21 10 L 21 4 L 19 4 L 19 6.398438 C 16.199219 2.800781 11.101562 2 7.199219 4.398438 Z M 8.699219 5.800781 "/>
<path style=" stroke:none;fill-rule:nonzero;fill:rgb(45.882353%,60.784314%,51.764706%);fill-opacity:1;" d="M 4.398438 7.199219 C 3.5 8.601562 3 10.300781 3 12 L 5 12 C 5 10.800781 5.300781 9.699219 5.800781 8.699219 Z M 4.398438 7.199219 "/>
<path style=" stroke:none;fill-rule:nonzero;fill:rgb(45.882353%,60.784314%,51.764706%);fill-opacity:1;" d="M 3.300781 4.699219 L 4.699219 3.300781 L 20.699219 19.300781 L 19.300781 20.699219 Z M 3.300781 4.699219 "/>
</g>
</svg>
