<?xml version="1.0" encoding="UTF-8"?>
<svg xmlns="http://www.w3.org/2000/svg" xmlns:xlink="http://www.w3.org/1999/xlink" width="24pt" height="24pt" viewBox="0 0 24 24" version="1.1">
<g id="surface42">
<path style=" stroke:none;fill-rule:nonzero;fill:rgb(100%,100%,100%);fill-opacity:1;" d="M 11.53125 16.769531 C 11.523438 16.488281 11.519531 16.277344 11.519531 16.136719 C 11.519531 15.308594 11.636719 14.59375 11.871094 13.992188 C 12.042969 13.539062 12.320312 13.082031 12.703125 12.621094 C 12.984375 12.285156 13.488281 11.796875 14.21875 11.148438 C 14.953125 10.503906 15.425781 9.992188 15.644531 9.609375 C 15.863281 9.226562 15.972656 8.808594 15.972656 8.355469 C 15.972656 7.535156 15.652344 6.816406 15.011719 6.195312 C 14.371094 5.570312 13.585938 5.261719 12.65625 5.261719 C 11.757812 5.261719 11.007812 5.542969 10.40625 6.105469 C 9.804688 6.667969 9.410156 7.546875 9.222656 8.742188 L 7.054688 8.484375 C 7.25 6.882812 7.828125 5.65625 8.796875 4.804688 C 9.761719 3.953125 11.035156 3.527344 12.621094 3.527344 C 14.300781 3.527344 15.640625 3.984375 16.640625 4.898438 C 17.640625 5.8125 18.140625 6.917969 18.140625 8.214844 C 18.140625 8.964844 17.964844 9.65625 17.613281 10.289062 C 17.261719 10.921875 16.574219 11.691406 15.550781 12.597656 C 14.863281 13.207031 14.414062 13.65625 14.203125 13.945312 C 13.992188 14.234375 13.835938 14.566406 13.734375 14.941406 C 13.632812 15.316406 13.574219 15.925781 13.558594 16.769531 Z M 11.402344 21 L 11.402344 18.597656 L 13.804688 18.597656 L 13.804688 21 Z M 11.402344 21 "/>
</g>
</svg>
