<?xml version="1.0" encoding="UTF-8"?>
<svg xmlns="http://www.w3.org/2000/svg" xmlns:xlink="http://www.w3.org/1999/xlink" width="24pt" height="24pt" viewBox="0 0 24 24" version="1.1">
<g id="surface238">
<path style=" stroke:none;fill-rule:nonzero;fill:rgb(45.882353%,60.784314%,51.764706%);fill-opacity:1;" d="M 14 18 C 14 19.105469 13.105469 20 12 20 C 10.894531 20 10 19.105469 10 18 C 10 16.894531 10.894531 16 12 16 C 13.105469 16 14 16.894531 14 18 Z M 14 18 "/>
<path style=" stroke:none;fill-rule:nonzero;fill:rgb(45.882353%,60.784314%,51.764706%);fill-opacity:1;" d="M 10 4.199219 C 7 4.601562 4.199219 5.898438 1.898438 7.898438 L 3.199219 9.398438 C 5.101562 7.699219 7.5 6.601562 10 6.199219 Z M 10 4.199219 "/>
<path style=" stroke:none;fill-rule:nonzero;fill:rgb(45.882353%,60.784314%,51.764706%);fill-opacity:1;" d="M 14 4.199219 L 14 6.199219 C 16.5 6.601562 18.898438 7.699219 20.699219 9.398438 L 22 7.898438 C 19.800781 5.898438 17 4.601562 14 4.199219 Z M 14 4.199219 "/>
<path style=" stroke:none;fill-rule:nonzero;fill:rgb(45.882353%,60.784314%,51.764706%);fill-opacity:1;" d="M 10 8.199219 C 8 8.601562 6.101562 9.5 4.601562 10.898438 L 6 12.300781 C 7.101562 11.300781 8.5 10.5 10 10.199219 Z M 10 8.199219 "/>
<path style=" stroke:none;fill-rule:nonzero;fill:rgb(45.882353%,60.784314%,51.764706%);fill-opacity:1;" d="M 14 8.199219 L 14 10.300781 C 15.5 10.601562 16.898438 11.398438 18 12.398438 L 19.300781 10.898438 C 17.898438 9.5 16 8.601562 14 8.199219 Z M 14 8.199219 "/>
<path style=" stroke:none;fill-rule:nonzero;fill:rgb(45.882353%,60.784314%,51.764706%);fill-opacity:1;" d="M 10 12.300781 C 9 12.601562 8.101562 13.101562 7.300781 13.800781 L 8.601562 15.300781 C 9 15 9.5 14.699219 10 14.5 Z M 10 12.300781 "/>
<path style=" stroke:none;fill-rule:nonzero;fill:rgb(45.882353%,60.784314%,51.764706%);fill-opacity:1;" d="M 14 12.300781 L 14 14.5 C 14.5 14.699219 15 15 15.398438 15.300781 L 16.699219 13.800781 C 15.898438 13.101562 15 12.601562 14 12.300781 Z M 14 12.300781 "/>
<path style=" stroke:none;fill-rule:nonzero;fill:rgb(45.882353%,60.784314%,51.764706%);fill-opacity:1;" d="M 11 3 L 11 14.101562 C 11.699219 14 12.300781 14 13 14.101562 L 13 3 Z M 11 3 "/>
</g>
</svg>
