<?xml version="1.0" encoding="UTF-8"?>
<svg xmlns="http://www.w3.org/2000/svg" xmlns:xlink="http://www.w3.org/1999/xlink" width="24pt" height="24pt" viewBox="0 0 24 24" version="1.1">
<g id="surface178">
<path style=" stroke:none;fill-rule:nonzero;fill:rgb(48.627451%,46.27451%,52.941176%);fill-opacity:1;" d="M 6 5 L 18 5 L 18 7.585938 L 17.207031 6.792969 L 15.792969 8.207031 L 19 11.414062 L 22.207031 8.207031 L 20.792969 6.792969 L 20 7.585938 L 20 3 L 4 3 L 4 10 L 6 10 Z M 6 5 "/>
<path style=" stroke:none;fill-rule:nonzero;fill:rgb(48.627451%,46.27451%,52.941176%);fill-opacity:1;" d="M 12 8 C 9.789062 8 8 9.789062 8 12 C 8 14.210938 9.789062 16 12 16 C 14.210938 16 16 14.210938 16 12 C 16 9.789062 14.210938 8 12 8 Z M 12 14 C 10.894531 14 10 13.105469 10 12 C 10 10.894531 10.894531 10 12 10 C 13.105469 10 14 10.894531 14 12 C 14 13.105469 13.105469 14 12 14 Z M 12 14 "/>
<path style=" stroke:none;fill-rule:nonzero;fill:rgb(48.627451%,46.27451%,52.941176%);fill-opacity:1;" d="M 18 19 L 6 19 L 6 16.414062 L 6.792969 17.207031 L 8.207031 15.792969 L 5 12.585938 L 1.792969 15.792969 L 3.207031 17.207031 L 4 16.414062 L 4 21 L 20 21 L 20 14 L 18 14 Z M 18 19 "/>
</g>
</svg>
