<?xml version="1.0" encoding="UTF-8"?>
<svg xmlns="http://www.w3.org/2000/svg" xmlns:xlink="http://www.w3.org/1999/xlink" width="24pt" height="24pt" viewBox="0 0 24 24" version="1.1">
<g id="surface302">
<path style=" stroke:none;fill-rule:nonzero;fill:rgb(48.627451%,46.27451%,52.941176%);fill-opacity:1;" d="M 18 6 L 18 4.855469 C 17.925781 3.3125 16.695312 2.078125 15.152344 2 C 13.613281 1.921875 12.261719 3.027344 12.035156 4.554688 L 12 4.585938 L 11.96875 4.554688 C 11.734375 3 10.34375 1.886719 8.777344 2.003906 C 7.210938 2.121094 6 3.429688 6 5 L 6 6 L 2 6 L 2 12 L 4 12 L 4 22 L 20 22 L 20 12 L 22 12 L 22 6 Z M 14 5.414062 L 14 5 C 14 4.449219 14.449219 4 15 4 C 15.550781 4 16 4.449219 16 5 L 16 6 L 13.414062 6 Z M 13 8 L 13 16 L 11 16 L 11 8 Z M 8 5 C 8 4.449219 8.449219 4 9 4 C 9.550781 4 10 4.449219 10 5 L 10 5.414062 L 10.585938 6 L 8 6 Z M 4 8 L 9 8 L 9 10 L 4 10 Z M 18 20 L 6 20 L 6 12 L 9 12 L 9 18 L 15 18 L 15 12 L 18 12 Z M 20 10 L 15 10 L 15 8 L 20 8 Z M 20 10 "/>
</g>
</svg>
