<?xml version="1.0" encoding="UTF-8"?>
<svg xmlns="http://www.w3.org/2000/svg" xmlns:xlink="http://www.w3.org/1999/xlink" width="24pt" height="24pt" viewBox="0 0 24 24" version="1.1">
<g id="surface98">
<path style=" stroke:none;fill-rule:nonzero;fill:rgb(100%,100%,100%);fill-opacity:1;" d="M 12 19 C 9.710938 19.003906 7.5625 17.882812 6.257812 16 L 9 16 L 9 14 L 3 14 L 3 20 L 5 20 L 5 17.628906 C 7.386719 20.609375 11.394531 21.757812 14.996094 20.492188 C 18.597656 19.222656 21.007812 15.820312 21 12 L 19 12 C 18.996094 15.863281 15.863281 18.996094 12 19 Z M 12 19 "/>
<path style=" stroke:none;fill-rule:nonzero;fill:rgb(100%,100%,100%);fill-opacity:1;" d="M 19 4 L 19 6.371094 C 16.613281 3.390625 12.605469 2.242188 9.003906 3.507812 C 5.402344 4.777344 2.992188 8.179688 3 12 L 5 12 C 5 8.941406 6.984375 6.238281 9.902344 5.320312 C 12.824219 4.40625 15.996094 5.488281 17.746094 8 L 15 8 L 15 10 L 21 10 L 21 4 Z M 19 4 "/>
</g>
</svg>
