<?xml version="1.0" encoding="UTF-8"?>
<svg xmlns="http://www.w3.org/2000/svg" xmlns:xlink="http://www.w3.org/1999/xlink" width="24pt" height="24pt" viewBox="0 0 24 24" version="1.1">
<g id="surface280">
<path style="fill-rule:nonzero;fill:rgb(21.176471%,61.176471%,38.431373%);fill-opacity:1;stroke-width:0.15;stroke-linecap:butt;stroke-linejoin:miter;stroke:rgb(100%,100%,100%);stroke-opacity:1;stroke-miterlimit:10;" d="M 15.601562 13.601562 L 17.699219 14.898438 L 19.898438 13.601562 L 17.699219 12.398438 Z M 15.601562 13.601562 "/>
<path style="fill-rule:nonzero;fill:rgb(21.176471%,61.176471%,38.431373%);fill-opacity:1;stroke-width:0.15;stroke-linecap:butt;stroke-linejoin:miter;stroke:rgb(100%,100%,100%);stroke-opacity:1;stroke-miterlimit:10;" d="M 12.699219 15.300781 L 14.800781 16.5 L 17 15.300781 L 14.800781 14.101562 Z M 12.699219 15.300781 "/>
<path style="fill-rule:nonzero;fill:rgb(21.176471%,61.176471%,38.431373%);fill-opacity:1;stroke-width:0.15;stroke-linecap:butt;stroke-linejoin:miter;stroke:rgb(100%,100%,100%);stroke-opacity:1;stroke-miterlimit:10;" d="M 6.898438 15.300781 L 9.101562 16.601562 L 11.300781 15.300781 L 9.101562 14.101562 Z M 6.898438 15.300781 "/>
<path style="fill-rule:nonzero;fill:rgb(21.176471%,61.176471%,38.431373%);fill-opacity:1;stroke-width:0.15;stroke-linecap:butt;stroke-linejoin:miter;stroke:rgb(100%,100%,100%);stroke-opacity:1;stroke-miterlimit:10;" d="M 3.898438 13.601562 L 6.101562 14.898438 L 8.300781 13.601562 L 6.101562 12.398438 Z M 3.898438 13.601562 "/>
<path style="fill-rule:nonzero;fill:rgb(21.176471%,61.176471%,38.431373%);fill-opacity:1;stroke-width:0.15;stroke-linecap:butt;stroke-linejoin:miter;stroke:rgb(100%,100%,100%);stroke-opacity:1;stroke-miterlimit:10;" d="M 9.800781 17 L 12 18.199219 L 14.101562 17 L 12 15.699219 Z M 9.800781 17 "/>
<path style="fill-rule:nonzero;fill:rgb(21.176471%,61.176471%,38.431373%);fill-opacity:1;stroke-width:0.15;stroke-linecap:butt;stroke-linejoin:miter;stroke:rgb(100%,100%,100%);stroke-opacity:1;stroke-miterlimit:10;" d="M 4 17 L 6.101562 18.199219 L 8.300781 17 L 6.101562 15.699219 Z M 4 17 "/>
<path style="fill-rule:nonzero;fill:rgb(21.176471%,61.176471%,38.431373%);fill-opacity:1;stroke-width:0.15;stroke-linecap:butt;stroke-linejoin:miter;stroke:rgb(100%,100%,100%);stroke-opacity:1;stroke-miterlimit:10;" d="M 18.5 15.300781 L 20.601562 16.5 L 22.800781 15.300781 L 20.601562 14 Z M 18.5 15.300781 "/>
<path style="fill-rule:nonzero;fill:rgb(21.176471%,61.176471%,38.431373%);fill-opacity:1;stroke-width:0.15;stroke-linecap:butt;stroke-linejoin:miter;stroke:rgb(100%,100%,100%);stroke-opacity:1;stroke-miterlimit:10;" d="M 15.5 17 L 17.699219 18.199219 L 19.800781 17 L 17.699219 15.699219 Z M 15.5 17 "/>
<path style="fill-rule:nonzero;fill:rgb(21.176471%,61.176471%,38.431373%);fill-opacity:1;stroke-width:0.15;stroke-linecap:butt;stroke-linejoin:miter;stroke:rgb(100%,100%,100%);stroke-opacity:1;stroke-miterlimit:10;" d="M 12.699219 18.601562 L 14.800781 19.898438 L 17 18.601562 L 14.800781 17.398438 Z M 12.699219 18.601562 "/>
<path style="fill-rule:nonzero;fill:rgb(21.176471%,61.176471%,38.431373%);fill-opacity:1;stroke-width:0.15;stroke-linecap:butt;stroke-linejoin:miter;stroke:rgb(100%,100%,100%);stroke-opacity:1;stroke-miterlimit:10;" d="M 9.800781 20.300781 L 12 21.5 L 14.199219 20.300781 L 12 19.101562 Z M 9.800781 20.300781 "/>
<path style="fill-rule:nonzero;fill:rgb(21.176471%,61.176471%,38.431373%);fill-opacity:1;stroke-width:0.15;stroke-linecap:butt;stroke-linejoin:miter;stroke:rgb(100%,100%,100%);stroke-opacity:1;stroke-miterlimit:10;" d="M 6.898438 18.601562 L 9 19.898438 L 11.199219 18.601562 L 9 17.398438 Z M 6.898438 18.601562 "/>
<path style="fill-rule:nonzero;fill:rgb(21.176471%,61.176471%,38.431373%);fill-opacity:1;stroke-width:0.15;stroke-linecap:butt;stroke-linejoin:miter;stroke:rgb(100%,100%,100%);stroke-opacity:1;stroke-miterlimit:10;" d="M 1.199219 15.300781 L 3.398438 16.5 L 5.5 15.300781 L 3.398438 14 Z M 1.199219 15.300781 "/>
<path style="fill-rule:nonzero;fill:rgb(0%,0%,0%);fill-opacity:1;stroke-width:0.15;stroke-linecap:butt;stroke-linejoin:miter;stroke:rgb(100%,100%,100%);stroke-opacity:1;stroke-miterlimit:10;" d="M 11.199219 5.300781 L 9.101562 4.101562 L 6.898438 5.300781 L 6.898438 5.398438 L 9.101562 6.601562 L 11.199219 5.398438 Z M 11.199219 5.300781 "/>
<path style="fill-rule:nonzero;fill:rgb(0%,0%,0%);fill-opacity:1;stroke-width:0.15;stroke-linecap:butt;stroke-linejoin:miter;stroke:rgb(100%,100%,100%);stroke-opacity:1;stroke-miterlimit:10;" d="M 17 5.300781 L 14.800781 4.101562 L 12.699219 5.300781 L 12.699219 5.398438 L 14.800781 6.601562 L 17 5.398438 Z M 17 5.300781 "/>
<path style="fill-rule:nonzero;fill:rgb(0%,0%,0%);fill-opacity:1;stroke-width:0.15;stroke-linecap:butt;stroke-linejoin:miter;stroke:rgb(100%,100%,100%);stroke-opacity:1;stroke-miterlimit:10;" d="M 14.101562 7 L 12 5.800781 L 9.800781 7 L 12 8.199219 Z M 14.101562 7 "/>
<path style="fill-rule:nonzero;fill:rgb(0%,0%,0%);fill-opacity:1;stroke-width:0.15;stroke-linecap:butt;stroke-linejoin:miter;stroke:rgb(100%,100%,100%);stroke-opacity:1;stroke-miterlimit:10;" d="M 14.101562 3.699219 L 12 2.5 L 9.800781 3.699219 L 12 4.898438 Z M 14.101562 3.699219 "/>
<path style="fill-rule:nonzero;fill:rgb(0%,0%,0%);fill-opacity:1;stroke-width:0.15;stroke-linecap:butt;stroke-linejoin:miter;stroke:rgb(100%,100%,100%);stroke-opacity:1;stroke-miterlimit:10;" d="M 11.601562 12.199219 L 9.5 10.898438 L 9.5 13.398438 L 11.601562 14.699219 Z M 11.601562 12.199219 "/>
<path style="fill-rule:nonzero;fill:rgb(0%,0%,0%);fill-opacity:1;stroke-width:0.15;stroke-linecap:butt;stroke-linejoin:miter;stroke:rgb(100%,100%,100%);stroke-opacity:1;stroke-miterlimit:10;" d="M 8.699219 7.199219 L 6.601562 6 L 6.601562 8.5 L 8.699219 9.699219 Z M 8.699219 7.199219 "/>
<path style="fill-rule:nonzero;fill:rgb(0%,0%,0%);fill-opacity:1;stroke-width:0.15;stroke-linecap:butt;stroke-linejoin:miter;stroke:rgb(100%,100%,100%);stroke-opacity:1;stroke-miterlimit:10;" d="M 11.601562 8.898438 L 9.5 7.601562 L 9.5 10.101562 L 11.601562 11.398438 Z M 11.601562 8.898438 "/>
<path style="fill-rule:nonzero;fill:rgb(0%,0%,0%);fill-opacity:1;stroke-width:0.15;stroke-linecap:butt;stroke-linejoin:miter;stroke:rgb(100%,100%,100%);stroke-opacity:1;stroke-miterlimit:10;" d="M 8.699219 10.5 L 6.601562 9.300781 L 6.601562 11.800781 L 8.699219 13 Z M 8.699219 10.5 "/>
<path style="fill-rule:nonzero;fill:rgb(0%,0%,0%);fill-opacity:1;stroke-width:0.15;stroke-linecap:butt;stroke-linejoin:miter;stroke:rgb(100%,100%,100%);stroke-opacity:1;stroke-miterlimit:10;" d="M 14.5 7.601562 L 12.300781 8.898438 L 12.300781 11.398438 L 14.5 10.101562 Z M 14.5 7.601562 "/>
<path style="fill-rule:nonzero;fill:rgb(0%,0%,0%);fill-opacity:1;stroke-width:0.15;stroke-linecap:butt;stroke-linejoin:miter;stroke:rgb(100%,100%,100%);stroke-opacity:1;stroke-miterlimit:10;" d="M 14.5 10.898438 L 12.300781 12.199219 L 12.300781 14.699219 L 14.5 13.398438 Z M 14.5 10.898438 "/>
<path style="fill-rule:nonzero;fill:rgb(0%,0%,0%);fill-opacity:1;stroke-width:0.15;stroke-linecap:butt;stroke-linejoin:miter;stroke:rgb(100%,100%,100%);stroke-opacity:1;stroke-miterlimit:10;" d="M 17.398438 5.898438 L 15.199219 7.199219 L 15.199219 9.699219 L 17.398438 8.398438 Z M 17.398438 5.898438 "/>
<path style="fill-rule:nonzero;fill:rgb(0%,0%,0%);fill-opacity:1;stroke-width:0.15;stroke-linecap:butt;stroke-linejoin:miter;stroke:rgb(100%,100%,100%);stroke-opacity:1;stroke-miterlimit:10;" d="M 17.398438 9.300781 L 15.199219 10.5 L 15.199219 13 L 17.398438 11.800781 Z M 17.398438 9.300781 "/>
</g>
</svg>
