<?xml version="1.0" encoding="UTF-8"?>
<svg xmlns="http://www.w3.org/2000/svg" xmlns:xlink="http://www.w3.org/1999/xlink" width="24pt" height="24pt" viewBox="0 0 24 24" version="1.1">
<defs>
<filter id="alpha" filterUnits="objectBoundingBox" x="0%" y="0%" width="100%" height="100%">
  <feColorMatrix type="matrix" in="SourceGraphic" values="0 0 0 0 1 0 0 0 0 1 0 0 0 0 1 0 0 0 1 0"/>
</filter>
<mask id="mask0">
  <g filter="url(#alpha)">
<rect x="0" y="0" width="24" height="24" style="fill:rgb(0%,0%,0%);fill-opacity:0.6;stroke:none;"/>
  </g>
</mask>
<clipPath id="clip1">
  <rect x="0" y="0" width="24" height="24"/>
</clipPath>
<g id="surface22" clip-path="url(#clip1)">
<path style=" stroke:none;fill-rule:nonzero;fill:rgb(0%,0%,0%);fill-opacity:1;" d="M 4 5.539062 L 9.300781 10.714844 L 10.699219 9.285156 L 5.285156 4 L 8 4 L 8 2 L 2 2 L 2 8 L 4 8 Z M 4 5.539062 "/>
<path style=" stroke:none;fill-rule:nonzero;fill:rgb(0%,0%,0%);fill-opacity:1;" d="M 20 18.585938 L 14.707031 13.292969 L 13.292969 14.707031 L 18.585938 20 L 16 20 L 16 22 L 22 22 L 22 16 L 20 16 Z M 20 18.585938 "/>
<path style=" stroke:none;fill-rule:nonzero;fill:rgb(0%,0%,0%);fill-opacity:1;" d="M 9.285156 13.300781 L 4 18.714844 L 4 16 L 2 16 L 2 22 L 8 22 L 8 20 L 5.539062 20 L 10.714844 14.699219 Z M 9.285156 13.300781 "/>
<path style=" stroke:none;fill-rule:nonzero;fill:rgb(0%,0%,0%);fill-opacity:1;" d="M 16 2 L 16 4 L 18.585938 4 L 13.292969 9.292969 L 14.707031 10.707031 L 20 5.414062 L 20 8 L 22 8 L 22 2 Z M 16 2 "/>
</g>
</defs>
<g id="surface18">
<use xlink:href="#surface22" mask="url(#mask0)"/>
</g>
</svg>
