<?xml version="1.0" encoding="UTF-8"?>
<svg xmlns="http://www.w3.org/2000/svg" xmlns:xlink="http://www.w3.org/1999/xlink" width="24pt" height="24pt" viewBox="0 0 24 24" version="1.1">
<defs>
<filter id="alpha" filterUnits="objectBoundingBox" x="0%" y="0%" width="100%" height="100%">
  <feColorMatrix type="matrix" in="SourceGraphic" values="0 0 0 0 1 0 0 0 0 1 0 0 0 0 1 0 0 0 1 0"/>
</filter>
<mask id="mask0">
  <g filter="url(#alpha)">
<rect x="0" y="0" width="24" height="24" style="fill:rgb(0%,0%,0%);fill-opacity:0.701961;stroke:none;"/>
  </g>
</mask>
<clipPath id="clip1">
  <rect x="0" y="0" width="24" height="24"/>
</clipPath>
<g id="surface113" clip-path="url(#clip1)">
<path style=" stroke:none;fill-rule:nonzero;fill:rgb(100%,100%,100%);fill-opacity:1;" d="M 17 8.542969 L 17 2 L 2 2 L 2 19.820312 L 14 22.21875 L 14 20 L 17 20 L 17 13.542969 L 15 13.542969 L 15 18 L 14 18 L 14 4.179688 L 13.101562 4 L 15 4 L 15 8.542969 Z M 12 19.78125 L 4 18.179688 L 4 4.21875 L 12 5.820312 Z M 12 19.78125 "/>
<path style=" stroke:none;fill-rule:nonzero;fill:rgb(100%,100%,100%);fill-opacity:1;" d="M 18.707031 7.335938 L 17.292969 8.75 L 18.585938 10.042969 L 15 10.042969 L 15 12.042969 L 18.585938 12.042969 L 17.292969 13.335938 L 18.707031 14.75 L 22.414062 11.042969 Z M 18.707031 7.335938 "/>
</g>
</defs>
<g id="surface109">
<use xlink:href="#surface113" mask="url(#mask0)"/>
</g>
</svg>
