<?xml version="1.0" encoding="UTF-8"?>
<svg xmlns="http://www.w3.org/2000/svg" xmlns:xlink="http://www.w3.org/1999/xlink" width="24pt" height="24pt" viewBox="0 0 24 24" version="1.1">
<g id="surface209">
<path style=" stroke:none;fill-rule:nonzero;fill:rgb(43.921569%,43.921569%,43.921569%);fill-opacity:1;" d="M 14.652344 4.324219 C 14.652344 5.609375 13.609375 6.652344 12.324219 6.652344 C 11.042969 6.652344 10 5.609375 10 4.324219 C 10 3.039062 11.042969 2 12.324219 2 C 13.609375 2 14.652344 3.039062 14.652344 4.324219 Z M 14.652344 4.324219 "/>
<path style=" stroke:none;fill-rule:nonzero;fill:rgb(43.921569%,43.921569%,43.921569%);fill-opacity:1;" d="M 14.652344 19.675781 C 14.652344 20.957031 13.609375 22 12.324219 22 C 11.042969 22 10 20.957031 10 19.675781 C 10 18.390625 11.042969 17.347656 12.324219 17.347656 C 13.609375 17.347656 14.652344 18.390625 14.652344 19.675781 Z M 14.652344 19.675781 "/>
<path style=" stroke:none;fill-rule:nonzero;fill:rgb(43.921569%,43.921569%,43.921569%);fill-opacity:1;" d="M 14.652344 12 C 14.652344 13.285156 13.609375 14.324219 12.324219 14.324219 C 11.042969 14.324219 10 13.285156 10 12 C 10 10.714844 11.042969 9.671875 12.324219 9.671875 C 13.609375 9.671875 14.652344 10.714844 14.652344 12 Z M 14.652344 12 "/>
</g>
</svg>
