<?xml version="1.0" encoding="UTF-8"?>
<svg xmlns="http://www.w3.org/2000/svg" xmlns:xlink="http://www.w3.org/1999/xlink" width="24pt" height="24pt" viewBox="0 0 24 24" version="1.1">
<g id="surface175">
<path style=" stroke:none;fill-rule:nonzero;fill:rgb(45.882353%,60.784314%,51.764706%);fill-opacity:1;" d="M 6 5 L 18 5 L 18 7.601562 L 17.199219 6.800781 L 15.800781 8.199219 L 19 11.398438 L 22.199219 8.199219 L 20.800781 6.800781 L 20 7.601562 L 20 3 L 4 3 L 4 10 L 6 10 Z M 6 5 "/>
<path style=" stroke:none;fill-rule:nonzero;fill:rgb(45.882353%,60.784314%,51.764706%);fill-opacity:1;" d="M 12 8 C 9.800781 8 8 9.800781 8 12 C 8 14.199219 9.800781 16 12 16 C 14.199219 16 16 14.199219 16 12 C 16 9.800781 14.199219 8 12 8 Z M 12 14 C 10.898438 14 10 13.101562 10 12 C 10 10.898438 10.898438 10 12 10 C 13.101562 10 14 10.898438 14 12 C 14 13.101562 13.101562 14 12 14 Z M 12 14 "/>
<path style=" stroke:none;fill-rule:nonzero;fill:rgb(45.882353%,60.784314%,51.764706%);fill-opacity:1;" d="M 18 19 L 6 19 L 6 16.398438 L 6.800781 17.199219 L 8.199219 15.800781 L 5 12.601562 L 1.800781 15.800781 L 3.199219 17.199219 L 4 16.398438 L 4 21 L 20 21 L 20 14 L 18 14 Z M 18 19 "/>
</g>
</svg>
