<?xml version="1.0" encoding="UTF-8"?>
<svg xmlns="http://www.w3.org/2000/svg" xmlns:xlink="http://www.w3.org/1999/xlink" width="30pt" height="24pt" viewBox="0 0 30 24" version="1.1">
<g id="surface185">
<path style=" stroke:none;fill-rule:nonzero;fill:rgb(100%,100%,100%);fill-opacity:1;" d="M 21.40625 22.351562 C 21.796875 21.269531 21.992188 20.128906 21.992188 18.980469 C 21.964844 14.597656 19.113281 10.734375 14.933594 9.421875 C 14.660156 8.015625 13.425781 7 11.992188 7 C 10.554688 7 9.324219 8.015625 9.046875 9.421875 C 6.4375 10.226562 4.269531 12.0625 3.050781 14.503906 C 1.828125 16.945312 1.65625 19.78125 2.574219 22.351562 C 1.535156 22.910156 0.925781 24.023438 1.007812 25.199219 C 1.089844 26.371094 1.855469 27.386719 2.960938 27.792969 C 4.066406 28.199219 5.304688 27.921875 6.128906 27.078125 C 9.625 29.617188 14.355469 29.617188 17.851562 27.078125 C 18.675781 27.925781 19.917969 28.210938 21.027344 27.804688 C 22.132812 27.398438 22.902344 26.378906 22.984375 25.203125 C 23.066406 24.023438 22.449219 22.910156 21.40625 22.351562 Z M 11.992188 8.980469 C 12.542969 8.980469 12.992188 9.425781 12.992188 9.980469 C 12.992188 10.53125 12.542969 10.980469 11.992188 10.980469 C 11.4375 10.980469 10.992188 10.53125 10.992188 9.980469 C 10.992188 9.425781 11.4375 8.980469 11.992188 8.980469 Z M 3.992188 25.980469 C 3.4375 25.980469 2.992188 25.53125 2.992188 24.980469 C 2.992188 24.425781 3.4375 23.980469 3.992188 23.980469 C 4.542969 23.980469 4.992188 24.425781 4.992188 24.980469 C 4.992188 25.53125 4.542969 25.980469 3.992188 25.980469 Z M 11.992188 26.980469 C 10.160156 26.976562 8.390625 26.347656 6.96875 25.195312 C 6.96875 25.125 6.992188 25.054688 6.992188 24.980469 C 6.988281 23.5625 6 22.339844 4.613281 22.046875 C 3.757812 20.011719 3.785156 17.714844 4.6875 15.699219 C 5.589844 13.683594 7.289062 12.136719 9.375 11.421875 C 9.894531 12.378906 10.898438 12.976562 11.988281 12.976562 C 13.082031 12.976562 14.085938 12.378906 14.605469 11.421875 C 17.816406 12.550781 19.972656 15.574219 19.992188 18.980469 C 19.988281 20.03125 19.777344 21.074219 19.367188 22.046875 C 17.984375 22.339844 16.992188 23.5625 16.992188 24.980469 C 16.992188 25.054688 17.007812 25.125 17.011719 25.195312 C 15.59375 26.347656 13.820312 26.976562 11.992188 26.980469 Z M 19.992188 25.980469 C 19.4375 25.980469 18.992188 25.53125 18.992188 24.980469 C 18.992188 24.425781 19.4375 23.980469 19.992188 23.980469 C 20.542969 23.980469 20.992188 24.425781 20.992188 24.980469 C 20.992188 25.53125 20.542969 25.980469 19.992188 25.980469 Z M 19.992188 25.980469 "/>
<path style=" stroke:none;fill-rule:evenodd;fill:rgb(100%,100%,100%);fill-opacity:1;" d="M 16.992188 22.980469 L 16.992188 14.628906 L 11.992188 18.691406 L 6.992188 14.628906 L 6.992188 22.980469 L 8.992188 22.980469 L 8.992188 18.828125 L 11.992188 21.269531 L 14.992188 18.832031 L 14.992188 22.980469 Z M 16.992188 22.980469 "/>
</g>
</svg>
