<?xml version="1.0" encoding="UTF-8"?>
<svg xmlns="http://www.w3.org/2000/svg" xmlns:xlink="http://www.w3.org/1999/xlink" width="40pt" height="24pt" viewBox="0 0 40 24" version="1.1">
<g id="surface106">
<path style=" stroke:none;fill-rule:nonzero;fill:rgb(100%,100%,100%);fill-opacity:1;" d="M 14.898438 35 L 9.101562 35 L 8.785156 31.863281 L 8.71875 31.835938 L 6.28125 33.835938 L 2.167969 29.726562 L 4.167969 27.285156 L 4.140625 27.21875 L 1 26.898438 L 1 21.101562 L 4.136719 20.785156 L 4.164062 20.71875 L 2.164062 18.28125 L 6.277344 14.167969 L 8.714844 16.167969 L 8.78125 16.140625 L 9.101562 13 L 14.898438 13 L 15.214844 16.136719 L 15.28125 16.164062 L 17.71875 14.164062 L 21.828125 18.269531 L 19.828125 20.710938 L 19.855469 20.777344 L 23 21.101562 L 23 26.898438 L 19.863281 27.214844 L 19.835938 27.28125 L 21.835938 29.71875 L 17.726562 33.828125 L 15.289062 31.828125 L 15.222656 31.855469 Z M 10.898438 33 L 13.101562 33 L 13.359375 30.390625 L 13.988281 30.191406 C 14.328125 30.082031 14.660156 29.941406 14.980469 29.777344 L 15.5625 29.476562 L 17.59375 31.140625 L 19.144531 29.589844 L 17.480469 27.554688 L 17.777344 26.972656 C 17.945312 26.652344 18.082031 26.324219 18.191406 25.980469 L 18.394531 25.355469 L 21 25.101562 L 21 22.898438 L 18.390625 22.640625 L 18.191406 22.015625 C 18.082031 21.671875 17.941406 21.339844 17.777344 21.023438 L 17.476562 20.441406 L 19.136719 18.410156 L 17.589844 16.859375 L 15.558594 18.523438 L 14.972656 18.226562 C 14.65625 18.058594 14.324219 17.921875 13.980469 17.8125 L 13.355469 17.609375 L 13.101562 15 L 10.898438 15 L 10.640625 17.609375 L 10.011719 17.808594 C 9.671875 17.917969 9.339844 18.058594 9.019531 18.222656 L 8.4375 18.523438 L 6.410156 16.859375 L 4.863281 18.410156 L 6.527344 20.445312 L 6.226562 21.027344 C 6.058594 21.347656 5.921875 21.679688 5.8125 22.019531 L 5.613281 22.644531 L 3 22.898438 L 3 25.101562 L 5.609375 25.359375 L 5.808594 25.984375 C 5.917969 26.328125 6.058594 26.660156 6.222656 26.976562 L 6.523438 27.558594 L 4.863281 29.589844 L 6.410156 31.140625 L 8.441406 29.476562 L 9.027344 29.773438 C 9.34375 29.941406 9.675781 30.078125 10.019531 30.1875 L 10.644531 30.390625 Z M 10.898438 33 "/>
<path style=" stroke:none;fill-rule:nonzero;fill:rgb(100%,100%,100%);fill-opacity:1;" d="M 12 28 C 9.789062 28 8 26.210938 8 24 C 8 21.789062 9.789062 20 12 20 C 14.210938 20 16 21.789062 16 24 C 16 25.0625 15.578125 26.078125 14.828125 26.828125 C 14.078125 27.578125 13.0625 28 12 28 Z M 12 22 C 10.894531 22 10 22.894531 10 24 C 10 25.105469 10.894531 26 12 26 C 13.105469 26 14 25.105469 14 24 C 14 22.894531 13.105469 22 12 22 Z M 12 22 "/>
</g>
</svg>
