<?xml version="1.0" encoding="UTF-8"?>
<svg xmlns="http://www.w3.org/2000/svg" xmlns:xlink="http://www.w3.org/1999/xlink" width="40pt" height="24pt" viewBox="0 0 40 24" version="1.1">
<g id="surface108">
<path style=" stroke:none;fill-rule:nonzero;fill:rgb(45.882353%,60.784314%,51.764706%);fill-opacity:1;" d="M 14.898438 35 L 9.101562 35 L 8.800781 31.898438 L 8.699219 31.898438 L 6.300781 33.898438 L 2.199219 29.800781 L 4.199219 27.398438 L 4.199219 27.300781 L 1 26.898438 L 1 21.101562 L 4.101562 20.800781 L 4.101562 20.699219 L 2.101562 18.300781 L 6.199219 14.199219 L 8.601562 16.199219 L 8.699219 16.199219 L 9.101562 13 L 14.898438 13 L 15.199219 16.101562 L 15.300781 16.101562 L 17.699219 14.101562 L 21.800781 18.199219 L 19.800781 20.601562 L 19.800781 20.699219 L 23 21.101562 L 23 26.898438 L 19.898438 27.199219 L 19.898438 27.300781 L 21.898438 29.699219 L 17.800781 33.800781 L 15.398438 31.800781 L 15.300781 31.800781 Z M 10.898438 33 L 13.101562 33 L 13.398438 30.398438 L 14 30.199219 C 14.300781 30.101562 14.699219 30 15 29.800781 L 15.601562 29.5 L 17.601562 31.199219 L 19.101562 29.699219 L 17.398438 27.699219 L 17.699219 27.101562 C 17.898438 26.800781 18 26.5 18.101562 26.101562 L 18.300781 25.5 L 20.898438 25.199219 L 20.898438 22.898438 L 18.300781 22.601562 L 18.199219 22 C 18.101562 21.699219 18 21.300781 17.800781 21 L 17.5 20.398438 L 19.199219 18.398438 L 17.699219 16.898438 L 15.699219 18.601562 L 15 18.199219 C 14.699219 18 14.300781 17.898438 14 17.800781 L 13.398438 17.601562 L 13.101562 15 L 10.898438 15 L 10.601562 17.601562 L 10 17.800781 C 9.699219 17.898438 9.300781 18.101562 9 18.199219 L 8.398438 18.5 L 6.398438 16.800781 L 4.898438 18.398438 L 6.601562 20.398438 L 6.199219 21 C 6.101562 21.300781 5.898438 21.699219 5.800781 22 L 5.601562 22.601562 L 3 22.898438 L 3 25.101562 L 5.601562 25.398438 L 5.800781 26 C 5.898438 26.300781 6 26.699219 6.199219 27 L 6.5 27.601562 L 4.800781 29.601562 L 6.300781 31.101562 L 8.300781 29.398438 L 9 29.800781 C 9.300781 30 9.699219 30.101562 10 30.199219 L 10.601562 30.398438 Z M 10.898438 33 "/>
<path style=" stroke:none;fill-rule:nonzero;fill:rgb(45.882353%,60.784314%,51.764706%);fill-opacity:1;" d="M 12 28 C 9.800781 28 8 26.199219 8 24 C 8 21.800781 9.800781 20 12 20 C 14.199219 20 16 21.800781 16 24 C 16 25.101562 15.601562 26.101562 14.800781 26.800781 C 14 27.5 13.101562 28 12 28 Z M 12 22 C 10.898438 22 10 22.898438 10 24 C 10 25.101562 10.898438 26 12 26 C 13.101562 26 14 25.101562 14 24 C 14 22.898438 13.101562 22 12 22 Z M 12 22 "/>
</g>
</svg>
