<?xml version="1.0" encoding="UTF-8"?>
<svg xmlns="http://www.w3.org/2000/svg" xmlns:xlink="http://www.w3.org/1999/xlink" width="30pt" height="24pt" viewBox="0 0 30 24" version="1.1">
<g id="surface141">
<path style=" stroke:none;fill-rule:nonzero;fill:rgb(45.882353%,60.784314%,51.764706%);fill-opacity:1;" d="M 21.398438 22.398438 C 21.800781 21.300781 22 20.199219 22 19 C 22 14.601562 19.101562 10.800781 14.898438 9.398438 C 14.699219 8 13.398438 7 12 7 C 10.601562 7 9.300781 8 9 9.398438 C 6.398438 10.199219 4.300781 12.101562 3 14.5 C 1.699219 16.898438 1.601562 19.800781 2.5 22.300781 C 1.5 22.898438 0.898438 24 0.898438 25.101562 C 1 26.300781 1.699219 27.300781 2.898438 27.699219 C 4 28.101562 5.199219 27.800781 6.101562 27 C 9.601562 29.5 14.300781 29.5 17.800781 27 C 18.601562 27.800781 19.898438 28.101562 21 27.699219 C 22.101562 27.300781 22.898438 26.300781 23 25.101562 C 23.101562 24 22.398438 22.898438 21.398438 22.398438 Z M 12 9 C 12.601562 9 13 9.398438 13 10 C 13 10.601562 12.601562 11 12 11 C 11.398438 11 11 10.601562 11 10 C 11 9.398438 11.398438 9 12 9 Z M 4 26 C 3.398438 26 3 25.601562 3 25 C 3 24.398438 3.398438 24 4 24 C 4.601562 24 5 24.398438 5 25 C 5 25.5 4.5 26 4 26 Z M 12 27 C 10.199219 27 8.398438 26.398438 7 25.199219 C 7 25.101562 7 25.101562 7 25 C 7 23.601562 6 22.398438 4.601562 22.101562 C 3.699219 20.101562 3.800781 17.800781 4.699219 15.800781 C 5.601562 13.800781 7.300781 12.199219 9.398438 11.5 C 9.898438 12.398438 10.898438 13 12 13 C 13.101562 13 14.101562 12.398438 14.601562 11.398438 C 17.800781 12.5 20 15.601562 20 19 C 20 20.101562 19.800781 21.101562 19.398438 22.101562 C 18 22.300781 17 23.601562 17 25 C 17 25.101562 17 25.101562 17 25.199219 C 15.601562 26.300781 13.800781 27 12 27 Z M 20 26 C 19.398438 26 19 25.601562 19 25 C 19 24.398438 19.398438 24 20 24 C 20.601562 24 21 24.398438 21 25 C 21 25.5 20.5 26 20 26 Z M 20 26 "/>
<path style=" stroke:none;fill-rule:nonzero;fill:rgb(45.882353%,60.784314%,51.764706%);fill-opacity:1;" d="M 17 23 L 17 14.601562 L 12 18.699219 L 7 14.601562 L 7 23 L 9 23 L 9 18.800781 L 12 21.300781 L 15 18.800781 L 15 23 Z M 17 23 "/>
</g>
</svg>
