<?xml version="1.0" encoding="UTF-8"?>
<svg xmlns="http://www.w3.org/2000/svg" xmlns:xlink="http://www.w3.org/1999/xlink" width="30pt" height="39pt" viewBox="0 0 30 39" version="1.1">
<g id="surface58">
<path style=" stroke:none;fill-rule:nonzero;fill:rgb(21.176471%,61.176471%,38.431373%);fill-opacity:1;" d="M 21 18 L 23.75 18 L 23.75 20.75 L 21 20.75 Z M 21 18 "/>
<path style=" stroke:none;fill-rule:nonzero;fill:rgb(21.176471%,61.176471%,38.431373%);fill-opacity:1;" d="M 13.625 18 L 16.375 18 L 16.375 20.75 L 13.625 20.75 Z M 13.625 18 "/>
<path style=" stroke:none;fill-rule:nonzero;fill:rgb(21.176471%,61.176471%,38.431373%);fill-opacity:1;" d="M 21 25.375 L 23.75 25.375 L 23.75 28.125 L 21 28.125 Z M 21 25.375 "/>
<path style=" stroke:none;fill-rule:nonzero;fill:rgb(21.176471%,61.176471%,38.431373%);fill-opacity:1;" d="M 13.625 10.625 L 16.375 10.625 L 16.375 13.375 L 13.625 13.375 Z M 13.625 10.625 "/>
<path style=" stroke:none;fill-rule:nonzero;fill:rgb(21.176471%,61.176471%,38.431373%);fill-opacity:1;" d="M 13.625 25.375 L 16.375 25.375 L 16.375 28.125 L 13.625 28.125 Z M 13.625 25.375 "/>
<path style=" stroke:none;fill-rule:nonzero;fill:rgb(21.176471%,61.176471%,38.431373%);fill-opacity:1;" d="M 21 10.625 L 23.75 10.625 L 23.75 13.375 L 21 13.375 Z M 21 10.625 "/>
<path style=" stroke:none;fill-rule:nonzero;fill:rgb(21.176471%,61.176471%,38.431373%);fill-opacity:1;" d="M 6.25 10.625 L 9 10.625 L 9 13.375 L 6.25 13.375 Z M 6.25 10.625 "/>
<path style=" stroke:none;fill-rule:nonzero;fill:rgb(21.176471%,61.176471%,38.431373%);fill-opacity:1;" d="M 6.25 18 L 9 18 L 9 20.75 L 6.25 20.75 Z M 6.25 18 "/>
<path style=" stroke:none;fill-rule:nonzero;fill:rgb(21.176471%,61.176471%,38.431373%);fill-opacity:1;" d="M 6.25 25.375 L 9 25.375 L 9 28.125 L 6.25 28.125 Z M 6.25 25.375 "/>
</g>
</svg>
