<?xml version="1.0" encoding="UTF-8"?>
<svg xmlns="http://www.w3.org/2000/svg" xmlns:xlink="http://www.w3.org/1999/xlink" width="30pt" height="30pt" viewBox="0 0 30 30" version="1.1">
<defs>
<filter id="alpha" filterUnits="objectBoundingBox" x="0%" y="0%" width="100%" height="100%">
  <feColorMatrix type="matrix" in="SourceGraphic" values="0 0 0 0 1 0 0 0 0 1 0 0 0 0 1 0 0 0 1 0"/>
</filter>
<mask id="mask0">
  <g filter="url(#alpha)">
<rect x="0" y="0" width="30" height="30" style="fill:rgb(0%,0%,0%);fill-opacity:0.701961;stroke:none;"/>
  </g>
</mask>
<clipPath id="clip1">
  <rect x="0" y="0" width="30" height="30"/>
</clipPath>
<g id="surface170" clip-path="url(#clip1)">
<path style=" stroke:none;fill-rule:nonzero;fill:rgb(45.882353%,60.784314%,51.764706%);fill-opacity:1;" d="M 15 27 C 8.398438 27 3 21.601562 3 15 C 3 8.398438 8.398438 3 15 3 C 21.601562 3 27 8.398438 27 15 C 27 21.601562 21.601562 27 15 27 Z M 15 6 C 10 6 6 10 6 15 C 6 20 10 24 15 24 C 20 24 24 20 24 15 C 24 10 20 6 15 6 Z M 15 6 "/>
<path style=" stroke:none;fill-rule:nonzero;fill:rgb(45.882353%,60.784314%,51.764706%);fill-opacity:1;" d="M 21 18 L 13.5 18 L 13.5 9 L 16.5 9 L 16.5 15 L 21 15 Z M 21 18 "/>
</g>
</defs>
<g id="surface166">
<use xlink:href="#surface170" mask="url(#mask0)"/>
</g>
</svg>
