<?xml version="1.0" encoding="UTF-8"?>
<svg xmlns="http://www.w3.org/2000/svg" xmlns:xlink="http://www.w3.org/1999/xlink" width="24pt" height="28pt" viewBox="0 0 24 28" version="1.1">
<g id="surface64">
<path style=" stroke:none;fill-rule:nonzero;fill:rgb(100%,100%,100%);fill-opacity:1;" d="M 24.449219 11.964844 L 25.707031 10.707031 L 24.292969 9.292969 L 23.035156 10.550781 C 21.585938 9.34375 19.851562 8.53125 18 8.191406 L 18 7 C 18 4.238281 15.761719 2 13 2 C 10.238281 2 8 4.238281 8 7 L 8 8 L 7 8 L 7 18 L 14.160156 18 L 16.160156 16 L 9 16 L 9 10 L 17 10 L 17 15.160156 L 19 13.160156 L 19 10.523438 C 19.945312 10.859375 20.828125 11.347656 21.609375 11.976562 L 12.792969 20.792969 L 14.207031 22.207031 L 23.023438 13.390625 C 24.304688 14.980469 25 16.960938 25 19 L 25 20 L 27 20 L 27 19 C 27 16.429688 26.097656 13.9375 24.449219 11.964844 Z M 16 8 L 10 8 L 10 7 C 10 5.34375 11.34375 4 13 4 C 14.65625 4 16 5.34375 16 7 Z M 16 8 "/>
</g>
</svg>
