<?xml version="1.0" encoding="UTF-8"?>
<svg xmlns="http://www.w3.org/2000/svg" xmlns:xlink="http://www.w3.org/1999/xlink" width="26pt" height="40pt" viewBox="0 0 26 40" version="1.1">
<defs>
<filter id="alpha" filterUnits="objectBoundingBox" x="0%" y="0%" width="100%" height="100%">
  <feColorMatrix type="matrix" in="SourceGraphic" values="0 0 0 0 1 0 0 0 0 1 0 0 0 0 1 0 0 0 1 0"/>
</filter>
<mask id="mask0">
  <g filter="url(#alpha)">
<rect x="0" y="0" width="26" height="40" style="fill:rgb(0%,0%,0%);fill-opacity:0.501961;stroke:none;"/>
  </g>
</mask>
<clipPath id="clip1">
  <rect x="0" y="0" width="40" height="26"/>
</clipPath>
<g id="surface74" clip-path="url(#clip1)">
<path style=" stroke:none;fill-rule:nonzero;fill:rgb(45.882353%,60.784314%,51.764706%);fill-opacity:1;" d="M 34 11.199219 C 34 15 30.898438 18.199219 27.101562 18.199219 C 27.101562 18.199219 27 18.199219 27 18.199219 L 7 18.199219 C 3.199219 18.199219 0 15.101562 0 11.300781 C 0 11.300781 0 11.199219 0 11.199219 C 0 7.398438 3.101562 4.199219 6.898438 4.199219 C 6.898438 4.199219 7 4.199219 7 4.199219 L 27 4.199219 C 30.800781 4.199219 34 7.300781 34 11.199219 Z M 34 11.199219 "/>
</g>
</defs>
<g id="surface70">
<use xlink:href="#surface74" mask="url(#mask0)"/>
<path style=" stroke:none;fill-rule:nonzero;fill:rgb(21.176471%,61.176471%,38.431373%);fill-opacity:1;" d="M 27 1 C 32.5 1 37 5.5 37 11 C 37 16.5 32.5 21 27 21 C 21.5 21 17 16.5 17 11 C 17 5.5 21.5 1 27 1 Z M 27 1 "/>
</g>
</svg>
