<?xml version="1.0" encoding="UTF-8"?>
<svg xmlns="http://www.w3.org/2000/svg" xmlns:xlink="http://www.w3.org/1999/xlink" width="30pt" height="30pt" viewBox="0 0 30 30" version="1.1">
<g id="surface24">
<path style=" stroke:none;fill-rule:nonzero;fill:rgb(43.921569%,43.921569%,43.921569%);fill-opacity:1;" d="M 27.75 7.25 L 23.625 7.25 C 23.75 6.625 23.75 6 23.5 5.375 C 23.125 4.5 22.5 3.75 21.5 3.25 C 20.5 2.75 19.375 2.625 18.375 3 C 17.375 3.375 16.5 4 16 4.875 L 15.125 6.25 L 14.25 4.75 C 13.75 4 12.875 3.375 11.875 3 C 10.75 2.625 9.625 2.75 8.75 3.25 C 7 4 6.25 5.625 6.5 7.25 L 2.375 7.25 L 2.375 12.75 L 4.75 12.75 L 4.875 27.5 L 25.25 27.5 L 25.125 12.75 L 27.75 12.75 C 27.75 12.75 27.75 7.25 27.75 7.25 Z M 18.125 5.875 C 18.375 5.5 18.75 5.25 19.125 5.125 C 19.5 5 20 5.125 20.375 5.25 C 20.75 5.5 21.125 5.75 21.25 6.125 C 21.25 6.5 21.25 6.875 21.125 7.25 L 17.5 7.25 Z M 9.875 5.25 C 10.125 5.125 10.25 5.125 10.5 5.125 C 10.625 5.125 10.875 5.125 11 5.25 C 11.375 5.375 11.75 5.625 12 6 L 12.75 7.25 L 9.125 7.25 C 8.75 6.5 9.125 5.625 9.875 5.25 Z M 22.75 24.625 L 7.375 24.625 L 7.375 12.625 L 22.75 12.625 Z M 25.75 11 L 4.5 11 L 4.5 8.875 L 25.75 8.875 Z M 25.75 11 "/>
<path style=" stroke:none;fill-rule:nonzero;fill:rgb(43.921569%,43.921569%,43.921569%);fill-opacity:1;" d="M 17.125 16.5 C 16 15.125 14.625 14.125 14 13.625 C 13.5 13.25 13.5 13.625 13.5 13.75 C 13.625 14.375 13.875 15.625 12.125 17.625 C 10 20.5 11.5 22.5 13 23.5 C 13.625 24 14.5 23.875 14.5 23.875 C 14.625 23.875 14.875 23.875 14.875 23.75 C 14 23.25 12 21.75 14.75 17.75 C 14.75 17.75 14.625 19.25 15.25 19.75 C 15.625 19.875 16.25 19.25 16.25 19.25 C 16.25 19.25 17.625 22.125 15.625 23.375 C 15.5 23.375 15.5 23.5 15.25 23.5 C 15.375 23.625 15.625 23.625 15.625 23.625 C 16.625 23.625 17.75 23 18.5 21.5 C 19.5 19.875 18.5 17.875 17.125 16.5 Z M 17.125 16.5 "/>
</g>
</svg>
