<?xml version="1.0" encoding="UTF-8"?>
<svg xmlns="http://www.w3.org/2000/svg" xmlns:xlink="http://www.w3.org/1999/xlink" width="24pt" height="24pt" viewBox="0 0 24 24" version="1.1">
<g id="surface36">
<path style=" stroke:none;fill-rule:nonzero;fill:rgb(31.372549%,31.372549%,31.372549%);fill-opacity:1;" d="M 8 12 C 8 14.199219 9.800781 16 12 16 C 14.199219 16 16 14.199219 16 12 C 16 9.800781 14.199219 8 12 8 C 9.800781 8 8 9.800781 8 12 Z M 14 12 C 14 13.101562 13.101562 14 12 14 C 10.898438 14 10 13.101562 10 12 C 10 10.898438 10.898438 10 12 10 C 13.101562 10 14 10.898438 14 12 Z M 14 12 "/>
<path style=" stroke:none;fill-rule:nonzero;fill:rgb(31.372549%,31.372549%,31.372549%);fill-opacity:1;" d="M 7 8 L 5.101562 8 C 7.300781 4.199219 12.199219 2.898438 16 5.101562 C 18.5 6.5 20 9.199219 20 12 L 22 12 C 22 6.5 17.5 2 12 2 C 8.898438 2 5.898438 3.5 4 6 L 4 5 L 2 5 L 2 10 L 7 10 Z M 7 8 "/>
<path style=" stroke:none;fill-rule:nonzero;fill:rgb(31.372549%,31.372549%,31.372549%);fill-opacity:1;" d="M 17 16 L 18.898438 16 C 16.699219 19.800781 11.800781 21.101562 8 18.898438 C 5.5 17.5 4 14.800781 4 12 L 2 12 C 2 17.5 6.5 22 12 22 C 15.199219 22 18.101562 20.5 20 18 L 20 19 L 22 19 L 22 14 L 17 14 Z M 17 16 "/>
</g>
</svg>
