<?xml version="1.0" encoding="UTF-8"?>
<svg xmlns="http://www.w3.org/2000/svg" xmlns:xlink="http://www.w3.org/1999/xlink" width="30pt" height="30pt" viewBox="0 0 30 30" version="1.1">
<g id="surface65">
<path style=" stroke:none;fill-rule:nonzero;fill:rgb(43.921569%,43.921569%,43.921569%);fill-opacity:1;" d="M 10 15 C 10 17.75 12.25 20 15 20 C 17.75 20 20 17.75 20 15 C 20 12.25 17.75 10 15 10 C 12.25 10 10 12.25 10 15 Z M 17.5 15 C 17.5 16.375 16.375 17.5 15 17.5 C 13.625 17.5 12.5 16.375 12.5 15 C 12.5 13.625 13.625 12.5 15 12.5 C 16.375 12.5 17.5 13.625 17.5 15 Z M 17.5 15 "/>
<path style=" stroke:none;fill-rule:nonzero;fill:rgb(43.921569%,43.921569%,43.921569%);fill-opacity:1;" d="M 8.75 10 L 6.375 10 C 9.125 5.25 15.25 3.625 20 6.375 C 23.125 8.125 25 11.5 25 15 L 27.5 15 C 27.5 8.125 21.875 2.5 15 2.5 C 11.125 2.5 7.375 4.375 5 7.5 L 5 6.25 L 2.5 6.25 L 2.5 12.5 L 8.75 12.5 Z M 8.75 10 "/>
<path style=" stroke:none;fill-rule:nonzero;fill:rgb(43.921569%,43.921569%,43.921569%);fill-opacity:1;" d="M 21.25 20 L 23.625 20 C 20.875 24.75 14.75 26.375 10 23.625 C 6.875 21.875 5 18.5 5 15 L 2.5 15 C 2.5 21.875 8.125 27.5 15 27.5 C 19 27.5 22.625 25.625 25 22.5 L 25 23.75 L 27.5 23.75 L 27.5 17.5 L 21.25 17.5 Z M 21.25 20 "/>
</g>
</svg>
