<?xml version="1.0" encoding="UTF-8"?>
<svg xmlns="http://www.w3.org/2000/svg" xmlns:xlink="http://www.w3.org/1999/xlink" width="30pt" height="30pt" viewBox="0 0 30 30" version="1.1">
<g id="surface5">
<path style=" stroke:none;fill-rule:nonzero;fill:rgb(43.921569%,43.921569%,43.921569%);fill-opacity:1;" d="M 22.25 19.25 L 18.375 15.75 L 16.5 14.125 C 16.25 13.875 16 13.75 15.75 13.625 C 15.25 13.375 14.625 13.375 14.125 13.5 C 14 13.5 13.875 13.5 13.75 13.625 C 13.625 13.75 13.5 13.875 13.375 14 C 13 14.625 12.5 15.125 11.875 15.5 C 11.25 15.875 10.375 15.75 9.875 15.125 C 10.125 14.75 10.25 14.25 10.375 13.875 C 10.375 13 10.75 12.25 11.25 11.625 C 11.625 11.25 12.125 11 12.5 10.75 L 12.875 10.625 C 11.75 10.5 10.625 10.75 9.75 11.375 L 9.375 11.625 C 9.125 11.875 8.875 12 8.5 12.125 C 8.125 12.25 7.75 12.25 7.5 12.25 L 5 12.25 C 5 12.25 3.5 12 3.5 12.125 L 3.125 18 L 3.625 18.5 L 7.75 18.5 C 8 17.875 8.375 17.375 8.875 17.125 C 9.25 17 9.625 17 10 17.125 C 10.125 17.25 10.375 17.375 10.375 17.5 C 10.625 17.25 11 17 11.375 17 C 11.75 17 12.125 17.125 12.375 17.5 C 12.625 17.25 13 17 13.375 17 C 13.75 17 14.125 17.25 14.375 17.5 C 14.75 17.25 15.125 17.125 15.625 17.25 C 16.125 17.375 16.5 17.875 16.5 18.375 C 16.5 18.625 16.375 18.875 16.25 19.125 C 15.75 20 15.25 20.75 14.75 21.625 C 15.125 22.125 15.625 22.5 16.25 22.5 C 16.5 22.5 16.625 22.375 16.75 22.25 C 16.75 22.125 16.75 22 16.75 22 C 16.75 21.875 16.625 21.75 16.5 21.75 L 15.625 20.875 L 16 20.625 L 17 21.5 C 17.25 21.75 17.625 22 18 22 C 18.25 22 18.375 21.875 18.5 21.75 C 18.625 21.625 18.625 21.5 18.625 21.375 C 18.5 21.25 18.5 21.125 18.25 21 L 17 19.75 L 17 19.5 L 17.25 19.25 L 17.25 19.125 L 17.375 19.25 C 18 19.875 18.625 20.375 19.25 20.875 C 19.5 21.125 19.875 21.25 20.25 21.25 C 20.5 21.125 20.75 20.875 20.625 20.5 C 20.5 20.25 20.375 20 20.125 19.875 L 18.25 18.125 L 18.625 17.75 L 18.625 17.875 C 19.375 18.5 20.125 19.25 20.875 19.875 C 21.125 20.125 21.5 20.25 21.875 20.375 C 22.25 20.5 22.5 20.25 22.625 19.875 C 22.75 19.875 22.5 19.5 22.25 19.25 Z M 22.25 19.25 "/>
<path style=" stroke:none;fill-rule:nonzero;fill:rgb(43.921569%,43.921569%,43.921569%);fill-opacity:1;" d="M 26.375 12.375 C 26.125 12.375 24.5 12.5 24.375 12.5 L 21.375 12.5 C 20.875 12.5 20.375 12.5 19.875 12.375 C 19.375 12.25 18.75 11.875 18.375 11.5 C 17.875 11.125 17.375 10.875 16.75 10.75 C 16.375 10.625 16 10.625 15.625 10.625 L 15.125 10.625 C 14.875 10.625 14.625 10.625 14.375 10.625 C 14 10.625 13.75 10.75 13.375 11 C 13.125 11.125 12.875 11.25 12.625 11.375 C 12.125 11.5 11.75 11.875 11.375 12.25 C 11.25 12.375 11.125 12.75 11 13 L 10.25 14.625 C 10.375 14.75 10.625 14.75 10.75 14.75 L 10.875 14.75 C 11.375 14.625 11.75 14.375 12 14 L 12.25 13.75 C 12.5 13.375 12.75 13.125 13.125 12.875 C 13.5 12.625 13.875 12.625 14.375 12.625 L 14.875 12.625 C 15.125 12.625 15.5 12.625 15.75 12.75 C 16 12.875 16.25 13 16.5 13.25 L 22.125 18.125 C 22.25 18.25 22.375 18.375 22.5 18.375 L 24.375 18.375 L 26.625 18.25 C 26.625 17.25 26.875 16.25 26.75 15.25 C 26.625 14.25 26.375 13.375 26.375 12.375 Z M 26.375 12.375 "/>
<path style=" stroke:none;fill-rule:nonzero;fill:rgb(43.921569%,43.921569%,43.921569%);fill-opacity:1;" d="M 8.125 20.125 C 8.375 20.25 8.625 20.25 8.875 20.125 C 9.125 20 9.25 19.75 9.375 19.5 L 9.875 18.5 C 9.875 18.375 10 18.25 10 18 C 10 17.875 9.75 17.75 9.625 17.625 L 9.5 17.625 C 8.75 17.625 8.25 18.625 8 19.5 C 8 19.625 8 19.625 8 19.75 C 8 20 8 20.125 8.125 20.125 Z M 8.125 20.125 "/>
<path style=" stroke:none;fill-rule:nonzero;fill:rgb(43.921569%,43.921569%,43.921569%);fill-opacity:1;" d="M 12 18.25 C 12 18 11.875 17.75 11.625 17.75 L 11.375 17.75 C 11.125 17.875 10.875 18 10.75 18.25 C 10.5 18.625 10.25 19 10 19.5 C 9.875 19.625 9.875 19.875 9.75 20 C 9.625 20.25 9.5 20.375 9.5 20.625 C 9.5 20.75 9.5 20.875 9.625 21 C 9.75 21.125 9.875 21.125 10 21.125 C 10.125 21.125 10.375 21 10.5 20.875 C 10.625 20.75 10.625 20.625 10.75 20.5 L 11.375 19.25 L 11.625 18.875 C 11.75 18.75 11.875 18.5 12 18.25 Z M 12 18.25 "/>
<path style=" stroke:none;fill-rule:nonzero;fill:rgb(43.921569%,43.921569%,43.921569%);fill-opacity:1;" d="M 14 18.125 C 14 18 13.875 17.875 13.625 17.875 L 13.375 17.875 C 13 17.875 12.625 18.125 12.375 18.75 L 11.25 20.75 C 11.125 21 11 21.25 11 21.5 C 11 21.75 11.25 22 11.5 22 C 11.625 22 11.875 22 12 21.875 C 12.125 21.75 12.25 21.625 12.25 21.5 L 13.875 18.75 C 14 18.625 14 18.5 14 18.5 C 14.125 18.25 14.125 18.125 14 18.125 Z M 14 18.125 "/>
<path style=" stroke:none;fill-rule:nonzero;fill:rgb(43.921569%,43.921569%,43.921569%);fill-opacity:1;" d="M 15.625 18 L 15.5 18 C 15 18 14.75 18.5 14.375 19 L 14.25 19.25 L 13 21.5 C 13 21.625 12.875 21.75 12.875 21.875 C 12.875 22 12.875 22.125 12.875 22.25 C 13 22.375 13 22.5 13.125 22.5 C 13.375 22.625 13.625 22.625 13.875 22.375 C 14 22.25 14.125 22.125 14.25 21.875 L 15.875 19.25 C 16 19 16.125 18.75 16.125 18.5 C 16 18.25 15.75 18 15.625 18 Z M 15.625 18 "/>
<path style=" stroke:none;fill-rule:nonzero;fill:rgb(43.921569%,43.921569%,43.921569%);fill-opacity:1;" d="M 19.75 11.625 C 19.875 11.5 20.375 10.875 20.375 10.625 C 20.375 10.5 20.375 10.5 20.375 10.625 C 20.125 10.625 19.875 10.625 19.625 10.625 L 18 10.625 C 18.5 11 19.125 11.375 19.75 11.625 Z M 19.75 11.625 "/>
<path style="fill:none;stroke-width:2;stroke-linecap:butt;stroke-linejoin:miter;stroke:rgb(43.921569%,43.921569%,43.921569%);stroke-opacity:1;stroke-miterlimit:10;" d="M 22 12.2 C 22 17.721875 17.525 22.2 12 22.2 C 6.475 22.2 2 17.721875 2 12.2 C 2 6.675 6.475 2.2 12 2.2 C 17.525 2.2 22 6.675 22 12.2 Z M 22 12.2 " transform="matrix(1.25,0,0,1.25,0,0)"/>
</g>
</svg>
