<?xml version="1.0" encoding="UTF-8"?>
<svg xmlns="http://www.w3.org/2000/svg" xmlns:xlink="http://www.w3.org/1999/xlink" width="24pt" height="24pt" viewBox="0 0 24 24" version="1.1">
<g id="surface153">
<path style=" stroke:none;fill-rule:nonzero;fill:rgb(43.921569%,43.921569%,43.921569%);fill-opacity:1;" d="M 18 6 L 18 4.898438 C 17.898438 3.199219 16.5 2 14.898438 2 C 13.5 2.101562 12.300781 3.101562 12.101562 4.601562 C 11.699219 2.898438 10.199219 1.800781 8.601562 2 C 7.101562 2.199219 6 3.5 6 5 L 6 6 L 2 6 L 2 12 L 4 12 L 4 22 L 20 22 L 20 12 L 22 12 L 22 6 Z M 14 5.398438 L 14 5 C 14 4.398438 14.398438 4 15 4 C 15.601562 4 16 4.398438 16 5 L 16 6 L 13.398438 6 Z M 13 8 L 13 16 L 11 16 L 11 8 Z M 8 5 C 8 4.398438 8.398438 4 9 4 C 9.601562 4 10 4.398438 10 5 L 10 5.398438 L 10.601562 6 L 8 6 Z M 4 8 L 9 8 L 9 10 L 4 10 Z M 18 20 L 6 20 L 6 12 L 9 12 L 9 18 L 15 18 L 15 12 L 18 12 Z M 20 10 L 15 10 L 15 8 L 20 8 Z M 20 10 "/>
</g>
</svg>
