<?xml version="1.0" encoding="UTF-8"?>
<svg xmlns="http://www.w3.org/2000/svg" xmlns:xlink="http://www.w3.org/1999/xlink" width="30pt" height="30pt" viewBox="0 0 30 30" version="1.1">
<g id="surface49">
<path style=" stroke:none;fill-rule:nonzero;fill:rgb(43.921569%,43.921569%,43.921569%);fill-opacity:1;" d="M 27.75 7.25 L 23.625 7.25 C 23.75 6.625 23.75 6 23.5 5.375 C 23.125 4.5 22.5 3.75 21.5 3.25 C 20.5 2.75 19.375 2.625 18.375 3 C 17.375 3.375 16.5 4 16 4.875 L 15.125 6.25 L 14.25 4.75 C 13.75 4 12.875 3.375 11.875 3 C 10.75 2.625 9.625 2.75 8.75 3.25 C 7 4 6.25 5.625 6.5 7.25 L 2.375 7.25 L 2.375 12.75 L 4.75 12.75 L 4.875 27.5 L 25.25 27.5 L 25.125 12.75 L 27.75 12.75 C 27.75 12.75 27.75 7.25 27.75 7.25 Z M 18.125 5.875 C 18.375 5.5 18.75 5.25 19.125 5.125 C 19.5 5 20 5.125 20.375 5.25 C 20.75 5.5 21.125 5.75 21.25 6.125 C 21.25 6.5 21.25 6.875 21.125 7.25 L 17.5 7.25 Z M 9.875 5.25 C 10.125 5.125 10.25 5.125 10.5 5.125 C 10.625 5.125 10.875 5.125 11 5.25 C 11.375 5.375 11.75 5.625 12 6 L 12.75 7.25 L 9.125 7.25 C 8.75 6.5 9.125 5.625 9.875 5.25 Z M 22.75 24.625 L 7.375 24.625 L 7.375 12.625 L 22.75 12.625 Z M 25.75 11 L 4.5 11 L 4.5 8.875 L 25.75 8.875 Z M 25.75 11 "/>
<path style=" stroke:none;fill-rule:nonzero;fill:rgb(43.921569%,43.921569%,43.921569%);fill-opacity:1;" d="M 19.5 20.625 L 18.125 19.875 L 19.375 19.625 C 19.625 19.625 19.75 19.375 19.625 19.125 C 19.625 18.875 19.375 18.75 19.125 18.875 L 17.125 19.375 L 15.75 18.625 L 17.125 17.875 L 19.125 18.375 L 19.25 18.375 C 19.375 18.375 19.625 18.25 19.625 18.125 C 19.625 17.875 19.5 17.75 19.375 17.625 L 18.125 17.375 L 19.5 16.625 C 19.75 16.5 19.75 16.25 19.625 16.125 C 19.5 16 19.25 15.875 19.125 16 L 17.75 16.75 L 18.125 15.625 C 18.125 15.375 18 15.25 17.875 15.125 C 17.625 15.125 17.375 15.25 17.375 15.375 L 16.875 17.25 L 15.5 18 L 15.5 16.5 L 17 15.125 C 17.125 15 17.125 14.75 17 14.625 C 16.875 14.5 16.625 14.5 16.375 14.625 L 15.5 15.5 L 15.5 14 C 15.5 13.75 15.375 13.625 15.125 13.625 C 14.875 13.625 14.75 13.75 14.75 14 L 14.75 15.5 L 13.75 14.5 C 13.625 14.375 13.375 14.375 13.125 14.5 C 13 14.625 13 14.875 13.125 15 L 14.625 16.375 L 14.625 17.875 L 13.25 17.125 L 12.75 15.25 C 12.75 15 12.5 14.875 12.25 15 C 12 15 11.875 15.25 12 15.5 L 12.375 16.625 L 11 15.875 C 10.75 15.75 10.5 15.875 10.5 16 C 10.375 16.125 10.5 16.375 10.625 16.5 L 12 17.25 L 10.75 17.5 C 10.5 17.5 10.375 17.75 10.5 18 C 10.5 18.125 10.75 18.25 10.875 18.25 L 11 18.25 L 13 17.75 L 14.375 18.5 L 13 19.25 L 11 18.75 C 10.75 18.75 10.5 18.875 10.5 19 C 10.5 19.25 10.625 19.375 10.75 19.5 L 12 19.75 L 10.625 20.5 C 10.375 20.625 10.375 20.875 10.5 21 C 10.625 21.125 10.75 21.25 10.875 21.25 C 11 21.25 11 21.25 11.125 21.25 L 12.375 20.5 L 12 21.75 C 12 22 12.125 22.125 12.25 22.25 L 12.375 22.25 C 12.5 22.25 12.75 22.125 12.75 22 L 13.25 20.125 L 14.625 19.375 L 14.625 20.875 L 13.125 22.25 C 13 22.375 13 22.625 13.125 22.75 C 13.25 22.875 13.5 22.875 13.75 22.75 L 14.625 21.875 L 14.625 23.375 C 14.625 23.625 14.75 23.75 15 23.75 C 15.25 23.75 15.375 23.625 15.375 23.375 L 15.375 21.875 L 16.25 22.75 C 16.375 22.875 16.375 22.875 16.5 22.875 C 16.625 22.875 16.75 22.875 16.75 22.75 C 16.875 22.625 16.875 22.375 16.75 22.25 L 15.25 20.875 L 15.25 19.25 L 16.625 20 L 17.125 21.875 C 17.125 22 17.375 22.125 17.5 22.125 L 17.625 22.125 C 17.875 22.125 18 21.875 17.875 21.625 L 17.875 20.5 L 19.25 21.25 C 19.375 21.25 19.375 21.25 19.5 21.25 C 19.625 21.25 19.75 21.125 19.875 21 C 19.875 21 19.75 20.75 19.5 20.625 Z M 19.5 20.625 "/>
</g>
</svg>
