<?xml version="1.0" encoding="UTF-8"?>
<svg xmlns="http://www.w3.org/2000/svg" xmlns:xlink="http://www.w3.org/1999/xlink" width="24pt" height="24pt" viewBox="0 0 24 24" version="1.1">
<g id="surface168">
<path style=" stroke:none;fill-rule:nonzero;fill:rgb(21.176471%,61.176471%,38.431373%);fill-opacity:1;" d="M 15 10.5 L 20 10.5 L 20 5.5 L 18 5.5 L 18 6.699219 C 15.601562 3.898438 11.601562 3.199219 8.300781 4.898438 C 5 6.601562 3.398438 10.300781 4.199219 13.898438 C 5 17.5 8.300781 20 12 20 C 14.101562 20 16.199219 19.199219 17.699219 17.699219 L 16.300781 16.300781 C 14.5 18.101562 11.800781 18.601562 9.5 17.5 C 7.199219 16.398438 5.800781 14 6 11.5 C 6.199219 9 8 6.898438 10.398438 6.199219 C 12.800781 5.5 15.398438 6.398438 16.898438 8.5 L 15 8.5 Z M 15 10.5 "/>
</g>
</svg>
