<?xml version="1.0" encoding="UTF-8"?>
<svg xmlns="http://www.w3.org/2000/svg" xmlns:xlink="http://www.w3.org/1999/xlink" width="24pt" height="24pt" viewBox="0 0 24 24" version="1.1">
<g id="surface74">
<path style=" stroke:none;fill-rule:nonzero;fill:rgb(100%,100%,100%);fill-opacity:1;" d="M 19.449219 11.964844 L 20.707031 10.707031 L 19.292969 9.292969 L 18.035156 10.550781 C 16.585938 9.34375 14.851562 8.53125 13 8.191406 L 13 7 C 13 4.238281 10.761719 2 8 2 C 5.238281 2 3 4.238281 3 7 L 3 8 L 2 8 L 2 18 L 9.160156 18 L 11.160156 16 L 4 16 L 4 10 L 12 10 L 12 15.160156 L 14 13.160156 L 14 10.523438 C 14.945312 10.859375 15.828125 11.347656 16.609375 11.976562 L 7.792969 20.792969 L 9.207031 22.207031 L 18.023438 13.390625 C 19.304688 14.980469 20 16.960938 20 19 L 20 20 L 22 20 L 22 19 C 22 16.429688 21.097656 13.9375 19.449219 11.964844 Z M 11 8 L 5 8 L 5 7 C 5 5.34375 6.34375 4 8 4 C 9.65625 4 11 5.34375 11 7 Z M 11 8 "/>
</g>
</svg>
