<?xml version="1.0" encoding="UTF-8"?>
<svg xmlns="http://www.w3.org/2000/svg" xmlns:xlink="http://www.w3.org/1999/xlink" width="24pt" height="24pt" viewBox="0 0 24 24" version="1.1">
<g id="surface1">
<path style=" stroke:none;fill-rule:nonzero;fill:rgb(43.921569%,43.921569%,43.921569%);fill-opacity:1;" d="M 12 16 C 9.789062 16 8 14.210938 8 12 C 8 9.789062 9.789062 8 12 8 C 14.210938 8 16 9.789062 16 12 C 16.011719 13.0625 15.59375 14.085938 14.839844 14.839844 C 14.085938 15.59375 13.0625 16.011719 12 16 Z M 12 9.601562 C 10.675781 9.601562 9.601562 10.675781 9.601562 12 C 9.601562 13.324219 10.675781 14.398438 12 14.398438 C 13.324219 14.398438 14.398438 13.324219 14.398438 12 C 14.410156 11.359375 14.164062 10.742188 13.710938 10.289062 C 13.257812 9.835938 12.640625 9.589844 12 9.601562 Z M 12 9.601562 "/>
<path style=" stroke:none;fill-rule:nonzero;fill:rgb(43.921569%,43.921569%,43.921569%);fill-opacity:1;" d="M 12 20 C 7.4375 20 3.664062 17.421875 1.066406 12.445312 C 0.910156 12.167969 0.910156 11.832031 1.066406 11.554688 C 3.664062 6.578125 7.4375 4 12 4 C 16.5625 4 20.335938 6.578125 22.933594 11.554688 C 23.089844 11.832031 23.089844 12.167969 22.933594 12.445312 C 20.335938 17.421875 16.5625 20 12 20 Z M 2.71875 12 C 4.292969 14.933594 7.199219 18.222656 12 18.222656 C 16.800781 18.222656 19.707031 14.933594 21.28125 12 C 19.707031 9.066406 16.800781 5.777344 12 5.777344 C 7.199219 5.777344 4.292969 9.066406 2.71875 12 Z M 2.71875 12 "/>
</g>
</svg>
