<?xml version="1.0" encoding="UTF-8"?>
<svg xmlns="http://www.w3.org/2000/svg" xmlns:xlink="http://www.w3.org/1999/xlink" width="24pt" height="24pt" viewBox="0 0 24 24" version="1.1">
<g id="surface140">
<path style=" stroke:none;fill-rule:nonzero;fill:rgb(31.372549%,31.372549%,31.372549%);fill-opacity:1;" d="M 19.398438 12 L 20.699219 10.699219 L 19.300781 9.300781 L 18 10.601562 C 16.601562 9.398438 14.800781 8.601562 13 8.199219 L 13 7 C 13 4.199219 10.800781 2 8 2 C 5.199219 2 3 4.199219 3 7 L 3 8 L 2 8 L 2 18 L 9.199219 18 L 11.199219 16 L 4 16 L 4 10 L 12 10 L 12 15.199219 L 14 13.199219 L 14 10.601562 C 14.898438 10.898438 15.800781 11.398438 16.601562 12 L 7.800781 20.800781 L 9.199219 22.199219 L 18 13.398438 C 19.300781 15 20 17 20 19 L 20 20 L 22 20 L 22 19 C 22 16.398438 21.101562 13.898438 19.398438 12 Z M 11 8 L 5 8 L 5 7 C 5 5.300781 6.300781 4 8 4 C 9.699219 4 11 5.300781 11 7 Z M 11 8 "/>
</g>
</svg>
