<?xml version="1.0" encoding="UTF-8"?>
<svg xmlns="http://www.w3.org/2000/svg" xmlns:xlink="http://www.w3.org/1999/xlink" width="100pt" height="100pt" viewBox="0 0 100 100" version="1.1">
<g id="surface290">
<path style=" stroke:none;fill-rule:nonzero;fill:rgb(83.921569%,83.921569%,83.921569%);fill-opacity:1;" d="M 41 28 L 59 28 L 59 46 L 41 46 Z M 41 28 "/>
<path style=" stroke:none;fill-rule:nonzero;fill:rgb(31.372549%,31.372549%,31.372549%);fill-opacity:1;" d="M 81 58 L 83 58 L 83 62 L 81 62 Z M 81 58 "/>
<path style=" stroke:none;fill-rule:nonzero;fill:rgb(31.372549%,31.372549%,31.372549%);fill-opacity:1;" d="M 81 91 L 19 91 L 19 84 L 17 84 L 17 93 L 83 93 L 83 66 L 81 66 Z M 81 91 "/>
<path style=" stroke:none;fill-rule:nonzero;fill:rgb(31.372549%,31.372549%,31.372549%);fill-opacity:1;" d="M 17 76 L 19 76 L 19 80 L 17 80 Z M 17 76 "/>
<path style=" stroke:none;fill-rule:nonzero;fill:rgb(31.372549%,31.372549%,31.372549%);fill-opacity:1;" d="M 80 27 L 80 29 L 87 29 L 87 45 L 60 45 L 60 29 L 76 29 L 76 27 L 66.300781 27 C 71.300781 23.5 72.5 16.699219 69 11.699219 C 65.5 6.699219 58.699219 5.5 53.699219 9 C 52.101562 10.101562 50.800781 11.699219 50 13.5 C 47.5 8 41 5.5 35.398438 8 C 29.800781 10.5 27.398438 17 29.898438 22.601562 C 30.699219 24.398438 32 25.898438 33.601562 27.101562 L 11 27.101562 L 11 47.101562 L 17 47.101562 L 17 72.101562 L 19 72.101562 L 19 47 L 81 47 L 81 54 L 83 54 L 83 47 L 89 47 L 89 27 Z M 60 9 C 65 9 69 13 69 18 C 69 23 65 27 60 27 L 51 27 L 51 18 C 51 13 55 9 60 9 Z M 31 18 C 31 13 35 9 40 9 C 45 9 49 13 49 18 L 49 27 L 40 27 C 35 27 31 23 31 18 Z M 17 45 L 13 45 L 13 29 L 40 29 L 40 45 Z M 42 45 L 42 29 L 58 29 L 58 45 Z M 42 45 "/>
<path style="fill-rule:nonzero;fill:rgb(31.372549%,31.372549%,31.372549%);fill-opacity:1;stroke-width:0.5;stroke-linecap:butt;stroke-linejoin:miter;stroke:rgb(100%,100%,100%);stroke-opacity:1;stroke-miterlimit:10;" d="M 56.398438 72.101562 L 60.199219 74.300781 L 64 72.101562 L 60.199219 69.898438 Z M 56.398438 72.101562 "/>
<path style="fill-rule:nonzero;fill:rgb(31.372549%,31.372549%,31.372549%);fill-opacity:1;stroke-width:0.5;stroke-linecap:butt;stroke-linejoin:miter;stroke:rgb(100%,100%,100%);stroke-opacity:1;stroke-miterlimit:10;" d="M 51.199219 74.898438 L 55 77.101562 L 58.800781 74.898438 L 55 72.800781 Z M 51.199219 74.898438 "/>
<path style="fill-rule:nonzero;fill:rgb(31.372549%,31.372549%,31.372549%);fill-opacity:1;stroke-width:0.5;stroke-linecap:butt;stroke-linejoin:miter;stroke:rgb(100%,100%,100%);stroke-opacity:1;stroke-miterlimit:10;" d="M 40.898438 75 L 44.898438 77.199219 L 48.699219 75 L 44.898438 72.800781 Z M 40.898438 75 "/>
<path style="fill-rule:nonzero;fill:rgb(31.372549%,31.372549%,31.372549%);fill-opacity:1;stroke-width:0.5;stroke-linecap:butt;stroke-linejoin:miter;stroke:rgb(100%,100%,100%);stroke-opacity:1;stroke-miterlimit:10;" d="M 35.800781 71.898438 L 39.601562 74.199219 L 43.5 71.898438 L 39.601562 69.699219 Z M 35.800781 71.898438 "/>
<path style="fill-rule:nonzero;fill:rgb(31.372549%,31.372549%,31.372549%);fill-opacity:1;stroke-width:0.5;stroke-linecap:butt;stroke-linejoin:miter;stroke:rgb(100%,100%,100%);stroke-opacity:1;stroke-miterlimit:10;" d="M 46.101562 77.800781 L 49.898438 80 L 53.699219 77.800781 L 49.898438 75.601562 Z M 46.101562 77.800781 "/>
<path style="fill-rule:nonzero;fill:rgb(31.372549%,31.372549%,31.372549%);fill-opacity:1;stroke-width:0.5;stroke-linecap:butt;stroke-linejoin:miter;stroke:rgb(100%,100%,100%);stroke-opacity:1;stroke-miterlimit:10;" d="M 35.800781 78 L 39.699219 80.199219 L 43.5 78 L 39.699219 75.601562 Z M 35.800781 78 "/>
<path style="fill-rule:nonzero;fill:rgb(31.372549%,31.372549%,31.372549%);fill-opacity:1;stroke-width:0.5;stroke-linecap:butt;stroke-linejoin:miter;stroke:rgb(100%,100%,100%);stroke-opacity:1;stroke-miterlimit:10;" d="M 61.398438 74.898438 L 65.199219 77.101562 L 69 74.898438 L 65.199219 72.699219 Z M 61.398438 74.898438 "/>
<path style="fill-rule:nonzero;fill:rgb(31.372549%,31.372549%,31.372549%);fill-opacity:1;stroke-width:0.5;stroke-linecap:butt;stroke-linejoin:miter;stroke:rgb(100%,100%,100%);stroke-opacity:1;stroke-miterlimit:10;" d="M 56.300781 77.800781 L 60.101562 80 L 63.898438 77.800781 L 60.101562 75.601562 Z M 56.300781 77.800781 "/>
<path style="fill-rule:nonzero;fill:rgb(31.372549%,31.372549%,31.372549%);fill-opacity:1;stroke-width:0.5;stroke-linecap:butt;stroke-linejoin:miter;stroke:rgb(100%,100%,100%);stroke-opacity:1;stroke-miterlimit:10;" d="M 51.199219 80.800781 L 55 83 L 58.800781 80.800781 L 55 78.601562 Z M 51.199219 80.800781 "/>
<path style="fill-rule:nonzero;fill:rgb(31.372549%,31.372549%,31.372549%);fill-opacity:1;stroke-width:0.5;stroke-linecap:butt;stroke-linejoin:miter;stroke:rgb(100%,100%,100%);stroke-opacity:1;stroke-miterlimit:10;" d="M 46.199219 83.800781 L 50 85.898438 L 53.800781 83.800781 L 50 81.601562 Z M 46.199219 83.800781 "/>
<path style="fill-rule:nonzero;fill:rgb(31.372549%,31.372549%,31.372549%);fill-opacity:1;stroke-width:0.5;stroke-linecap:butt;stroke-linejoin:miter;stroke:rgb(100%,100%,100%);stroke-opacity:1;stroke-miterlimit:10;" d="M 40.898438 80.800781 L 44.699219 83 L 48.5 80.800781 L 44.699219 78.601562 Z M 40.898438 80.800781 "/>
<path style="fill-rule:nonzero;fill:rgb(31.372549%,31.372549%,31.372549%);fill-opacity:1;stroke-width:0.5;stroke-linecap:butt;stroke-linejoin:miter;stroke:rgb(100%,100%,100%);stroke-opacity:1;stroke-miterlimit:10;" d="M 31 74.898438 L 34.800781 77.101562 L 38.601562 74.898438 L 34.800781 72.699219 Z M 31 74.898438 "/>
<path style="fill-rule:nonzero;fill:rgb(31.372549%,31.372549%,31.372549%);fill-opacity:1;stroke-width:0.5;stroke-linecap:butt;stroke-linejoin:miter;stroke:rgb(100%,100%,100%);stroke-opacity:1;stroke-miterlimit:10;" d="M 48.699219 57.398438 L 44.898438 55.199219 L 41.101562 57.398438 L 44.898438 59.601562 Z M 48.699219 57.398438 "/>
<path style="fill-rule:nonzero;fill:rgb(31.372549%,31.372549%,31.372549%);fill-opacity:1;stroke-width:0.5;stroke-linecap:butt;stroke-linejoin:miter;stroke:rgb(100%,100%,100%);stroke-opacity:1;stroke-miterlimit:10;" d="M 58.800781 57.398438 L 55 55.199219 L 51.199219 57.398438 L 55 59.601562 Z M 58.800781 57.398438 "/>
<path style="fill-rule:nonzero;fill:rgb(31.372549%,31.372549%,31.372549%);fill-opacity:1;stroke-width:0.5;stroke-linecap:butt;stroke-linejoin:miter;stroke:rgb(100%,100%,100%);stroke-opacity:1;stroke-miterlimit:10;" d="M 53.800781 60.300781 L 50 58.101562 L 46.199219 60.300781 L 50 62.5 Z M 53.800781 60.300781 "/>
<path style="fill-rule:nonzero;fill:rgb(31.372549%,31.372549%,31.372549%);fill-opacity:1;stroke-width:0.5;stroke-linecap:butt;stroke-linejoin:miter;stroke:rgb(100%,100%,100%);stroke-opacity:1;stroke-miterlimit:10;" d="M 53.800781 54.398438 L 50 52.300781 L 46.199219 54.398438 L 46.199219 54.5 L 50 56.601562 L 53.800781 54.5 Z M 53.800781 54.398438 "/>
<path style="fill-rule:nonzero;fill:rgb(31.372549%,31.372549%,31.372549%);fill-opacity:1;stroke-width:0.5;stroke-linecap:butt;stroke-linejoin:miter;stroke:rgb(100%,100%,100%);stroke-opacity:1;stroke-miterlimit:10;" d="M 49.300781 69.5 L 45.5 67.300781 L 45.5 71.699219 L 49.300781 73.898438 Z M 49.300781 69.5 "/>
<path style="fill-rule:nonzero;fill:rgb(31.372549%,31.372549%,31.372549%);fill-opacity:1;stroke-width:0.5;stroke-linecap:butt;stroke-linejoin:miter;stroke:rgb(100%,100%,100%);stroke-opacity:1;stroke-miterlimit:10;" d="M 44.199219 60.699219 L 40.398438 58.5 L 40.398438 62.898438 L 44.199219 65.101562 Z M 44.199219 60.699219 "/>
<path style="fill-rule:nonzero;fill:rgb(31.372549%,31.372549%,31.372549%);fill-opacity:1;stroke-width:0.5;stroke-linecap:butt;stroke-linejoin:miter;stroke:rgb(100%,100%,100%);stroke-opacity:1;stroke-miterlimit:10;" d="M 49.300781 63.601562 L 45.5 61.398438 L 45.5 65.800781 L 49.300781 68 Z M 49.300781 63.601562 "/>
<path style="fill-rule:nonzero;fill:rgb(31.372549%,31.372549%,31.372549%);fill-opacity:1;stroke-width:0.5;stroke-linecap:butt;stroke-linejoin:miter;stroke:rgb(100%,100%,100%);stroke-opacity:1;stroke-miterlimit:10;" d="M 44.199219 66.601562 L 40.398438 64.300781 L 40.398438 68.800781 L 44.199219 71 Z M 44.199219 66.601562 "/>
<path style="fill-rule:nonzero;fill:rgb(31.372549%,31.372549%,31.372549%);fill-opacity:1;stroke-width:0.5;stroke-linecap:butt;stroke-linejoin:miter;stroke:rgb(100%,100%,100%);stroke-opacity:1;stroke-miterlimit:10;" d="M 54.398438 61.398438 L 50.601562 63.601562 L 50.601562 68 L 54.398438 65.800781 Z M 54.398438 61.398438 "/>
<path style="fill-rule:nonzero;fill:rgb(31.372549%,31.372549%,31.372549%);fill-opacity:1;stroke-width:0.5;stroke-linecap:butt;stroke-linejoin:miter;stroke:rgb(100%,100%,100%);stroke-opacity:1;stroke-miterlimit:10;" d="M 54.398438 67.300781 L 50.601562 69.5 L 50.601562 73.898438 L 54.398438 71.699219 Z M 54.398438 67.300781 "/>
<path style="fill-rule:nonzero;fill:rgb(31.372549%,31.372549%,31.372549%);fill-opacity:1;stroke-width:0.5;stroke-linecap:butt;stroke-linejoin:miter;stroke:rgb(100%,100%,100%);stroke-opacity:1;stroke-miterlimit:10;" d="M 59.398438 58.5 L 55.601562 60.699219 L 55.601562 65.101562 L 59.398438 62.898438 Z M 59.398438 58.5 "/>
<path style="fill-rule:nonzero;fill:rgb(31.372549%,31.372549%,31.372549%);fill-opacity:1;stroke-width:0.5;stroke-linecap:butt;stroke-linejoin:miter;stroke:rgb(100%,100%,100%);stroke-opacity:1;stroke-miterlimit:10;" d="M 59.398438 64.300781 L 55.601562 66.601562 L 55.601562 71 L 59.398438 68.800781 Z M 59.398438 64.300781 "/>
</g>
</svg>
