<?xml version="1.0" encoding="UTF-8"?>
<svg xmlns="http://www.w3.org/2000/svg" xmlns:xlink="http://www.w3.org/1999/xlink" width="100pt" height="100pt" viewBox="0 0 100 100" version="1.1">
<g id="surface244">
<path style=" stroke:none;fill-rule:nonzero;fill:rgb(83.921569%,83.921569%,83.921569%);fill-opacity:1;" d="M 60.398438 16.398438 C 60.398438 21.039062 56.640625 24.800781 52 24.800781 C 47.359375 24.800781 43.601562 21.039062 43.601562 16.398438 C 43.601562 11.761719 47.359375 8 52 8 C 56.640625 8 60.398438 11.761719 60.398438 16.398438 Z M 60.398438 16.398438 "/>
<path style=" stroke:none;fill-rule:nonzero;fill:rgb(83.921569%,83.921569%,83.921569%);fill-opacity:1;" d="M 94 79.398438 C 94 84.039062 90.238281 87.800781 85.601562 87.800781 C 80.960938 87.800781 77.199219 84.039062 77.199219 79.398438 C 77.199219 74.761719 80.960938 71 85.601562 71 C 90.238281 71 94 74.761719 94 79.398438 Z M 94 79.398438 "/>
<path style=" stroke:none;fill-rule:nonzero;fill:rgb(83.921569%,83.921569%,83.921569%);fill-opacity:1;" d="M 26.800781 79.398438 C 26.800781 84.039062 23.039062 87.800781 18.398438 87.800781 C 13.761719 87.800781 10 84.039062 10 79.398438 C 10 74.761719 13.761719 71 18.398438 71 C 23.039062 71 26.800781 74.761719 26.800781 79.398438 Z M 26.800781 79.398438 "/>
<path style=" stroke:none;fill-rule:nonzero;fill:rgb(83.921569%,83.921569%,83.921569%);fill-opacity:1;" d="M 39.199219 53.152344 L 39.199219 71 L 31.199219 71 L 31.199219 36.347656 L 52 53.246094 L 72.800781 36.347656 L 72.800781 71 L 64.800781 71 L 64.800781 53.152344 L 52 63.554688 "/>
<path style=" stroke:none;fill-rule:nonzero;fill:rgb(40%,40%,40%);fill-opacity:1;" d="M 30.199219 34.246094 L 30.199219 72 L 40.199219 72 L 40.199219 55.253906 L 44.082031 58.410156 L 45.34375 56.855469 L 38.199219 51.054688 L 38.199219 70 L 32.199219 70 L 32.199219 38.445312 L 52 54.535156 L 71.800781 38.445312 L 71.800781 52 L 73.800781 52 L 73.800781 34.246094 L 52 51.957031 Z M 30.199219 34.246094 "/>
<path style=" stroke:none;fill-rule:nonzero;fill:rgb(40%,40%,40%);fill-opacity:1;" d="M 71.800781 70 L 65.800781 70 L 65.800781 51.054688 L 52 62.265625 L 48.300781 59.257812 L 47.035156 60.808594 L 52 64.84375 L 63.800781 55.257812 L 63.800781 72 L 73.800781 72 L 73.800781 64 L 71.800781 64 Z M 71.800781 70 "/>
<path style=" stroke:none;fill-rule:nonzero;fill:rgb(40%,40%,40%);fill-opacity:1;" d="M 71.800781 56 L 73.800781 56 L 73.800781 60 L 71.800781 60 Z M 71.800781 56 "/>
<path style=" stroke:none;fill-rule:nonzero;fill:rgb(40%,40%,40%);fill-opacity:1;" d="M 87.355469 70.171875 C 89.636719 65.15625 90.808594 59.707031 90.800781 54.199219 C 90.707031 36.421875 78.621094 20.945312 61.390625 16.554688 C 61.390625 16.503906 61.398438 16.453125 61.398438 16.398438 C 61.398438 11.207031 57.191406 7 52 7 C 46.808594 7 42.601562 11.207031 42.601562 16.398438 C 42.601562 16.453125 42.605469 16.5 42.609375 16.554688 C 31.445312 19.335938 22.09375 26.929688 17.078125 37.285156 C 12.0625 47.640625 11.90625 59.6875 16.644531 70.171875 C 12.316406 70.984375 9.132812 74.699219 8.988281 79.101562 C 8.847656 83.507812 11.78125 87.417969 16.050781 88.511719 C 20.316406 89.609375 24.773438 87.589844 26.765625 83.660156 C 41.285156 96.113281 62.714844 96.113281 77.234375 83.660156 C 79.230469 87.585938 83.679688 89.59375 87.941406 88.5 C 92.207031 87.40625 95.136719 83.5 94.996094 79.101562 C 94.855469 74.703125 91.679688 70.988281 87.355469 70.171875 Z M 52 9 C 56.085938 9 59.398438 12.3125 59.398438 16.398438 C 59.398438 20.488281 56.085938 23.800781 52 23.800781 C 47.914062 23.800781 44.601562 20.488281 44.601562 16.398438 C 44.605469 12.316406 47.914062 9.003906 52 9 Z M 18.398438 86.800781 C 14.3125 86.800781 11 83.488281 11 79.398438 C 11 75.3125 14.3125 72 18.398438 72 C 22.488281 72 25.800781 75.3125 25.800781 79.398438 C 25.796875 83.484375 22.484375 86.796875 18.398438 86.800781 Z M 52 91 C 42.96875 91.007812 34.25 87.683594 27.511719 81.667969 C 28.207031 78.925781 27.625 76.015625 25.929688 73.753906 C 24.234375 71.492188 21.605469 70.117188 18.777344 70.019531 C 14.046875 60.089844 14.007812 48.5625 18.667969 38.601562 C 23.328125 28.636719 32.203125 21.28125 42.859375 18.550781 C 43.851562 22.796875 47.640625 25.800781 52 25.800781 C 56.359375 25.800781 60.148438 22.796875 61.140625 18.550781 C 77.367188 22.804688 88.714844 37.425781 88.800781 54.199219 C 88.8125 59.675781 87.589844 65.082031 85.222656 70.019531 C 82.394531 70.117188 79.765625 71.492188 78.070312 73.753906 C 76.375 76.015625 75.792969 78.925781 76.488281 81.667969 C 69.75 87.683594 61.03125 91.003906 52 91 Z M 85.601562 86.800781 C 81.511719 86.800781 78.199219 83.488281 78.199219 79.398438 C 78.199219 75.3125 81.511719 72 85.601562 72 C 89.6875 72 93 75.3125 93 79.398438 C 92.996094 83.484375 89.683594 86.796875 85.601562 86.800781 Z M 85.601562 86.800781 "/>
</g>
</svg>
