<?xml version="1.0" encoding="UTF-8"?>
<svg xmlns="http://www.w3.org/2000/svg" xmlns:xlink="http://www.w3.org/1999/xlink" width="100pt" height="100pt" viewBox="0 0 100 100" version="1.1">
<g id="surface47">
<path style=" stroke:none;fill-rule:nonzero;fill:rgb(45.882353%,60.784314%,51.764706%);fill-opacity:1;" d="M 18 8 L 29 8 L 29 92 L 18 92 Z M 18 8 "/>
<path style=" stroke:none;fill-rule:nonzero;fill:rgb(45.882353%,60.784314%,51.764706%);fill-opacity:1;" d="M 81 17 L 86 17 L 86 29 L 81 29 Z M 81 17 "/>
<path style=" stroke:none;fill-rule:nonzero;fill:rgb(45.882353%,60.784314%,51.764706%);fill-opacity:1;" d="M 81 38 L 86 38 L 86 50 L 81 50 Z M 81 38 "/>
<path style=" stroke:none;fill-rule:nonzero;fill:rgb(45.882353%,60.784314%,51.764706%);fill-opacity:1;" d="M 81 59 L 86 59 L 86 71 L 81 71 Z M 81 59 "/>
<path style=" stroke:none;fill-rule:nonzero;fill:rgb(45.882353%,60.784314%,51.764706%);fill-opacity:1;" d="M 64 36 C 64 40.96875 59.96875 45 55 45 C 50.03125 45 46 40.96875 46 36 C 46 31.03125 50.03125 27 55 27 C 59.96875 27 64 31.03125 64 36 Z M 64 36 "/>
<path style=" stroke:none;fill-rule:nonzero;fill:rgb(45.882353%,60.784314%,51.764706%);fill-opacity:1;" d="M 70.601562 64 C 67.5 55.199219 63.5 49 55.300781 49 C 47.101562 49 42.800781 55.199219 39.5 64 Z M 70.601562 64 "/>
<path style=" stroke:none;fill-rule:nonzero;fill:rgb(43.921569%,43.921569%,43.921569%);fill-opacity:1;" d="M 64 7 L 68 7 L 68 9 L 64 9 Z M 64 7 "/>
<path style=" stroke:none;fill-rule:nonzero;fill:rgb(43.921569%,43.921569%,43.921569%);fill-opacity:1;" d="M 28 76 L 30 76 L 30 80 L 28 80 Z M 28 76 "/>
<path style=" stroke:none;fill-rule:nonzero;fill:rgb(43.921569%,43.921569%,43.921569%);fill-opacity:1;" d="M 87 30 L 87 16 L 82 16 L 82 7 L 72 7 L 72 9 L 80 9 L 80 91 L 30 91 L 30 84 L 28 84 L 28 91 L 19 91 L 19 9 L 28 9 L 28 72 L 30 72 L 30 9 L 60 9 L 60 7 L 17 7 L 17 93 L 82 93 L 82 72 L 87 72 L 87 58 L 82 58 L 82 51 L 87 51 L 87 37 L 82 37 L 82 30 Z M 82 18 L 85 18 L 85 28 L 82 28 Z M 85 60 L 85 70 L 82 70 L 82 60 Z M 85 39 L 85 49 L 82 49 L 82 39 Z M 85 39 "/>
<path style=" stroke:none;fill-rule:nonzero;fill:rgb(43.921569%,43.921569%,43.921569%);fill-opacity:1;" d="M 45 36 C 45 41.5 49.5 46 55 46 C 60.5 46 65 41.5 65 36 C 65 30.5 60.5 26 55 26 C 49.5 26 45 30.5 45 36 Z M 63 36 C 63 40.398438 59.398438 44 55 44 C 50.601562 44 47 40.398438 47 36 C 47 31.601562 50.601562 28 55 28 C 59.398438 28 63 31.601562 63 36 Z M 63 36 "/>
<path style=" stroke:none;fill-rule:nonzero;fill:rgb(43.921569%,43.921569%,43.921569%);fill-opacity:1;" d="M 55.300781 48 C 45.601562 48 41.300781 56.398438 38.601562 63.699219 L 38.101562 65 L 72 65 L 71.5 63.699219 C 68.800781 55.898438 64.800781 48 55.300781 48 Z M 41 63 C 44.601562 53.898438 48.898438 50 55.300781 50 C 61.699219 50 65.699219 53.800781 69.199219 63 Z M 41 63 "/>
</g>
</svg>
