<?xml version="1.0" encoding="UTF-8"?>
<svg xmlns="http://www.w3.org/2000/svg" xmlns:xlink="http://www.w3.org/1999/xlink" width="100pt" height="100pt" viewBox="0 0 100 100" version="1.1">
<g id="surface10">
<path style=" stroke:none;fill-rule:nonzero;fill:rgb(21.176471%,61.176471%,38.431373%);fill-opacity:1;" d="M 50 26 C 36.699219 26 26 36.699219 26 50 C 26 63.300781 36.699219 74 50 74 C 63.300781 74 74 63.300781 74 50 C 74 36.699219 63.300781 26 50 26 Z M 50 68 C 40.101562 68 32 59.898438 32 50 C 32 40.101562 40.101562 32 50 32 C 59.898438 32 68 40.101562 68 50 C 68 59.898438 59.898438 68 50 68 Z M 50 68 "/>
<path style=" stroke:none;fill-rule:nonzero;fill:rgb(31.372549%,31.372549%,31.372549%);fill-opacity:1;" d="M 50 31 C 39.5 31 31 39.5 31 50 C 31 60.5 39.5 69 50 69 C 60.5 69 69 60.5 69 50 C 69 39.5 60.5 31 50 31 Z M 50 67 C 40.601562 67 33 59.398438 33 50 C 33 40.601562 40.601562 33 50 33 C 59.398438 33 67 40.601562 67 50 C 67 59.398438 59.398438 67 50 67 Z M 50 67 "/>
<path style=" stroke:none;fill-rule:nonzero;fill:rgb(31.372549%,31.372549%,31.372549%);fill-opacity:1;" d="M 83 56 L 85 56 L 85 60 L 83 60 Z M 83 56 "/>
<path style=" stroke:none;fill-rule:nonzero;fill:rgb(31.372549%,31.372549%,31.372549%);fill-opacity:1;" d="M 83 44 L 85 44 L 85 52 L 83 52 Z M 83 44 "/>
<path style=" stroke:none;fill-rule:nonzero;fill:rgb(31.372549%,31.372549%,31.372549%);fill-opacity:1;" d="M 15 48 L 17 48 L 17 56 L 15 56 Z M 15 48 "/>
<path style=" stroke:none;fill-rule:nonzero;fill:rgb(31.372549%,31.372549%,31.372549%);fill-opacity:1;" d="M 15 40 L 17 40 L 17 44 L 15 44 Z M 15 40 "/>
<path style=" stroke:none;fill-rule:nonzero;fill:rgb(31.372549%,31.372549%,31.372549%);fill-opacity:1;" d="M 95.199219 71 L 85 71 L 85 64 L 83 64 L 83 73 L 90.800781 73 L 76 90.5 L 61.199219 73 L 68 73 L 68 71 L 63.5 71 C 75.101562 63.5 78.5 48.101562 71 36.5 C 64.601562 26.601562 52.101562 22.5 41.101562 26.699219 L 24 6.5 L 4.800781 29 L 15 29 L 15 36 L 17 36 L 17 27 L 9.199219 27 L 24 9.5 L 38.800781 27 L 32 27 L 32 29 L 36.5 29 C 24.898438 36.5 21.5 51.898438 29 63.5 C 35.398438 73.398438 47.898438 77.5 58.898438 73.300781 L 76 93.5 Z M 27 50 C 27 37.300781 37.300781 27 50 27 C 62.699219 27 73 37.300781 73 50 C 73 62.699219 62.699219 73 50 73 C 37.300781 73 27 62.699219 27 50 Z M 27 50 "/>
<path style="fill-rule:nonzero;fill:rgb(31.372549%,31.372549%,31.372549%);fill-opacity:1;stroke-width:0.25;stroke-linecap:butt;stroke-linejoin:miter;stroke:rgb(100%,100%,100%);stroke-opacity:1;stroke-miterlimit:10;" d="M 55.199219 52.398438 L 58.300781 54.199219 L 61.398438 52.398438 L 58.300781 50.699219 Z M 55.199219 52.398438 "/>
<path style="fill-rule:nonzero;fill:rgb(31.372549%,31.372549%,31.372549%);fill-opacity:1;stroke-width:0.25;stroke-linecap:butt;stroke-linejoin:miter;stroke:rgb(100%,100%,100%);stroke-opacity:1;stroke-miterlimit:10;" d="M 51 54.699219 L 54.101562 56.5 L 57.199219 54.699219 L 54.101562 53 Z M 51 54.699219 "/>
<path style="fill-rule:nonzero;fill:rgb(31.372549%,31.372549%,31.372549%);fill-opacity:1;stroke-width:0.25;stroke-linecap:butt;stroke-linejoin:miter;stroke:rgb(100%,100%,100%);stroke-opacity:1;stroke-miterlimit:10;" d="M 42.601562 54.800781 L 45.898438 56.601562 L 48.898438 54.800781 L 45.898438 53 Z M 42.601562 54.800781 "/>
<path style="fill-rule:nonzero;fill:rgb(31.372549%,31.372549%,31.372549%);fill-opacity:1;stroke-width:0.25;stroke-linecap:butt;stroke-linejoin:miter;stroke:rgb(100%,100%,100%);stroke-opacity:1;stroke-miterlimit:10;" d="M 38.5 52.300781 L 41.5 54.101562 L 44.699219 52.300781 L 41.5 50.5 Z M 38.5 52.300781 "/>
<path style="fill-rule:nonzero;fill:rgb(31.372549%,31.372549%,31.372549%);fill-opacity:1;stroke-width:0.25;stroke-linecap:butt;stroke-linejoin:miter;stroke:rgb(100%,100%,100%);stroke-opacity:1;stroke-miterlimit:10;" d="M 46.800781 57.101562 L 49.898438 58.898438 L 53 57.101562 L 49.898438 55.300781 Z M 46.800781 57.101562 "/>
<path style="fill-rule:nonzero;fill:rgb(31.372549%,31.372549%,31.372549%);fill-opacity:1;stroke-width:0.25;stroke-linecap:butt;stroke-linejoin:miter;stroke:rgb(100%,100%,100%);stroke-opacity:1;stroke-miterlimit:10;" d="M 38.5 57.199219 L 41.601562 59 L 44.699219 57.199219 L 41.601562 55.300781 Z M 38.5 57.199219 "/>
<path style="fill-rule:nonzero;fill:rgb(31.372549%,31.372549%,31.372549%);fill-opacity:1;stroke-width:0.25;stroke-linecap:butt;stroke-linejoin:miter;stroke:rgb(100%,100%,100%);stroke-opacity:1;stroke-miterlimit:10;" d="M 59.300781 54.699219 L 62.398438 56.5 L 65.398438 54.699219 L 62.398438 52.898438 Z M 59.300781 54.699219 "/>
<path style="fill-rule:nonzero;fill:rgb(31.372549%,31.372549%,31.372549%);fill-opacity:1;stroke-width:0.25;stroke-linecap:butt;stroke-linejoin:miter;stroke:rgb(100%,100%,100%);stroke-opacity:1;stroke-miterlimit:10;" d="M 55.101562 57.101562 L 58.199219 58.898438 L 61.300781 57.101562 L 58.199219 55.300781 Z M 55.101562 57.101562 "/>
<path style="fill-rule:nonzero;fill:rgb(31.372549%,31.372549%,31.372549%);fill-opacity:1;stroke-width:0.25;stroke-linecap:butt;stroke-linejoin:miter;stroke:rgb(100%,100%,100%);stroke-opacity:1;stroke-miterlimit:10;" d="M 51 59.5 L 54.101562 61.300781 L 57.199219 59.5 L 54.101562 57.699219 Z M 51 59.5 "/>
<path style="fill-rule:nonzero;fill:rgb(31.372549%,31.372549%,31.372549%);fill-opacity:1;stroke-width:0.25;stroke-linecap:butt;stroke-linejoin:miter;stroke:rgb(100%,100%,100%);stroke-opacity:1;stroke-miterlimit:10;" d="M 46.898438 61.898438 L 50 63.699219 L 53.101562 61.898438 L 50 60.199219 Z M 46.898438 61.898438 "/>
<path style="fill-rule:nonzero;fill:rgb(31.372549%,31.372549%,31.372549%);fill-opacity:1;stroke-width:0.25;stroke-linecap:butt;stroke-linejoin:miter;stroke:rgb(100%,100%,100%);stroke-opacity:1;stroke-miterlimit:10;" d="M 42.601562 59.5 L 45.699219 61.300781 L 48.800781 59.5 L 45.699219 57.699219 Z M 42.601562 59.5 "/>
<path style="fill-rule:nonzero;fill:rgb(31.372549%,31.372549%,31.372549%);fill-opacity:1;stroke-width:0.25;stroke-linecap:butt;stroke-linejoin:miter;stroke:rgb(100%,100%,100%);stroke-opacity:1;stroke-miterlimit:10;" d="M 34.601562 54.699219 L 37.601562 56.5 L 40.699219 54.699219 L 37.601562 52.898438 Z M 34.601562 54.699219 "/>
<path style="fill-rule:nonzero;fill:rgb(31.372549%,31.372549%,31.372549%);fill-opacity:1;stroke-width:0.25;stroke-linecap:butt;stroke-linejoin:miter;stroke:rgb(100%,100%,100%);stroke-opacity:1;stroke-miterlimit:10;" d="M 48.898438 40.5 L 45.898438 38.699219 L 42.800781 40.5 L 45.898438 42.300781 Z M 48.898438 40.5 "/>
<path style="fill-rule:nonzero;fill:rgb(31.372549%,31.372549%,31.372549%);fill-opacity:1;stroke-width:0.25;stroke-linecap:butt;stroke-linejoin:miter;stroke:rgb(100%,100%,100%);stroke-opacity:1;stroke-miterlimit:10;" d="M 57.199219 40.5 L 54.101562 38.699219 L 51 40.5 L 54.101562 42.300781 Z M 57.199219 40.5 "/>
<path style="fill-rule:nonzero;fill:rgb(31.372549%,31.372549%,31.372549%);fill-opacity:1;stroke-width:0.25;stroke-linecap:butt;stroke-linejoin:miter;stroke:rgb(100%,100%,100%);stroke-opacity:1;stroke-miterlimit:10;" d="M 53.101562 42.800781 L 50 41.101562 L 46.898438 42.800781 L 50 44.601562 Z M 53.101562 42.800781 "/>
<path style="fill-rule:nonzero;fill:rgb(31.372549%,31.372549%,31.372549%);fill-opacity:1;stroke-width:0.25;stroke-linecap:butt;stroke-linejoin:miter;stroke:rgb(100%,100%,100%);stroke-opacity:1;stroke-miterlimit:10;" d="M 53.101562 38.101562 L 50 36.300781 L 46.898438 38.101562 L 50 39.800781 Z M 53.101562 38.101562 "/>
<path style="fill-rule:nonzero;fill:rgb(31.372549%,31.372549%,31.372549%);fill-opacity:1;stroke-width:0.25;stroke-linecap:butt;stroke-linejoin:miter;stroke:rgb(100%,100%,100%);stroke-opacity:1;stroke-miterlimit:10;" d="M 49.398438 50.300781 L 46.300781 48.5 L 46.300781 52.101562 L 49.398438 53.898438 Z M 49.398438 50.300781 "/>
<path style="fill-rule:nonzero;fill:rgb(31.372549%,31.372549%,31.372549%);fill-opacity:1;stroke-width:0.25;stroke-linecap:butt;stroke-linejoin:miter;stroke:rgb(100%,100%,100%);stroke-opacity:1;stroke-miterlimit:10;" d="M 45.300781 43.199219 L 42.199219 41.398438 L 42.199219 45 L 45.300781 46.699219 Z M 45.300781 43.199219 "/>
<path style="fill-rule:nonzero;fill:rgb(31.372549%,31.372549%,31.372549%);fill-opacity:1;stroke-width:0.25;stroke-linecap:butt;stroke-linejoin:miter;stroke:rgb(100%,100%,100%);stroke-opacity:1;stroke-miterlimit:10;" d="M 49.398438 45.5 L 46.300781 43.699219 L 46.300781 47.300781 L 49.398438 49.101562 Z M 49.398438 45.5 "/>
<path style="fill-rule:nonzero;fill:rgb(31.372549%,31.372549%,31.372549%);fill-opacity:1;stroke-width:0.25;stroke-linecap:butt;stroke-linejoin:miter;stroke:rgb(100%,100%,100%);stroke-opacity:1;stroke-miterlimit:10;" d="M 45.300781 48 L 42.199219 46.101562 L 42.199219 49.800781 L 45.300781 51.5 Z M 45.300781 48 "/>
<path style="fill-rule:nonzero;fill:rgb(31.372549%,31.372549%,31.372549%);fill-opacity:1;stroke-width:0.25;stroke-linecap:butt;stroke-linejoin:miter;stroke:rgb(100%,100%,100%);stroke-opacity:1;stroke-miterlimit:10;" d="M 53.601562 43.699219 L 50.5 45.5 L 50.5 49.101562 L 53.601562 47.300781 Z M 53.601562 43.699219 "/>
<path style="fill-rule:nonzero;fill:rgb(31.372549%,31.372549%,31.372549%);fill-opacity:1;stroke-width:0.25;stroke-linecap:butt;stroke-linejoin:miter;stroke:rgb(100%,100%,100%);stroke-opacity:1;stroke-miterlimit:10;" d="M 53.601562 48.5 L 50.5 50.300781 L 50.5 53.898438 L 53.601562 52.101562 Z M 53.601562 48.5 "/>
<path style="fill-rule:nonzero;fill:rgb(31.372549%,31.372549%,31.372549%);fill-opacity:1;stroke-width:0.25;stroke-linecap:butt;stroke-linejoin:miter;stroke:rgb(100%,100%,100%);stroke-opacity:1;stroke-miterlimit:10;" d="M 57.601562 41.398438 L 54.601562 43.199219 L 54.601562 46.699219 L 57.601562 45 Z M 57.601562 41.398438 "/>
<path style="fill-rule:nonzero;fill:rgb(31.372549%,31.372549%,31.372549%);fill-opacity:1;stroke-width:0.25;stroke-linecap:butt;stroke-linejoin:miter;stroke:rgb(100%,100%,100%);stroke-opacity:1;stroke-miterlimit:10;" d="M 57.601562 46.101562 L 54.601562 48 L 54.601562 51.5 L 57.601562 49.800781 Z M 57.601562 46.101562 "/>
</g>
</svg>
