<?xml version="1.0" encoding="UTF-8"?>
<svg xmlns="http://www.w3.org/2000/svg" xmlns:xlink="http://www.w3.org/1999/xlink" width="100pt" height="100pt" viewBox="0 0 100 100" version="1.1">
<g id="surface83">
<path style=" stroke:none;fill-rule:nonzero;fill:rgb(45.882353%,60.784314%,51.764706%);fill-opacity:1;" d="M 60.398438 16.398438 C 60.398438 21.039062 56.640625 24.800781 52 24.800781 C 47.359375 24.800781 43.601562 21.039062 43.601562 16.398438 C 43.601562 11.761719 47.359375 8 52 8 C 56.640625 8 60.398438 11.761719 60.398438 16.398438 Z M 60.398438 16.398438 "/>
<path style=" stroke:none;fill-rule:nonzero;fill:rgb(45.882353%,60.784314%,51.764706%);fill-opacity:1;" d="M 94 79.398438 C 94 84.039062 90.238281 87.800781 85.601562 87.800781 C 80.960938 87.800781 77.199219 84.039062 77.199219 79.398438 C 77.199219 74.761719 80.960938 71 85.601562 71 C 90.238281 71 94 74.761719 94 79.398438 Z M 94 79.398438 "/>
<path style=" stroke:none;fill-rule:nonzero;fill:rgb(45.882353%,60.784314%,51.764706%);fill-opacity:1;" d="M 26.800781 79.398438 C 26.800781 84.039062 23.039062 87.800781 18.398438 87.800781 C 13.761719 87.800781 10 84.039062 10 79.398438 C 10 74.761719 13.761719 71 18.398438 71 C 23.039062 71 26.800781 74.761719 26.800781 79.398438 Z M 26.800781 79.398438 "/>
<path style=" stroke:none;fill-rule:nonzero;fill:rgb(45.882353%,60.784314%,51.764706%);fill-opacity:1;" d="M 39.199219 53.199219 L 39.199219 71 L 31.199219 71 L 31.199219 36.300781 L 52 53.199219 L 72.800781 36.300781 L 72.800781 71 L 64.800781 71 L 64.800781 53.199219 L 52 63.601562 "/>
<path style=" stroke:none;fill-rule:nonzero;fill:rgb(43.921569%,43.921569%,43.921569%);fill-opacity:1;" d="M 30.199219 34.199219 L 30.199219 72 L 40.199219 72 L 40.199219 55.300781 L 44.101562 58.5 L 45.398438 56.898438 L 38.300781 51.101562 L 38.300781 70 L 32.300781 70 L 32.300781 38.398438 L 52 54.5 L 71.800781 38.398438 L 71.800781 52 L 73.800781 52 L 73.800781 34.199219 L 52 52 Z M 30.199219 34.199219 "/>
<path style=" stroke:none;fill-rule:nonzero;fill:rgb(43.921569%,43.921569%,43.921569%);fill-opacity:1;" d="M 71.800781 70 L 65.800781 70 L 65.800781 51.101562 L 52 62.300781 L 48.300781 59.300781 L 47 60.800781 L 52 64.800781 L 63.800781 55.199219 L 63.800781 72 L 73.800781 72 L 73.800781 64 L 71.800781 64 Z M 71.800781 70 "/>
<path style=" stroke:none;fill-rule:nonzero;fill:rgb(43.921569%,43.921569%,43.921569%);fill-opacity:1;" d="M 71.800781 56 L 73.800781 56 L 73.800781 60 L 71.800781 60 Z M 71.800781 56 "/>
<path style=" stroke:none;fill-rule:nonzero;fill:rgb(43.921569%,43.921569%,43.921569%);fill-opacity:1;" d="M 87.398438 70.199219 C 89.699219 65.199219 90.898438 59.699219 90.800781 54.199219 C 90.699219 36.398438 78.601562 20.898438 61.398438 16.601562 C 61.398438 16.5 61.398438 16.5 61.398438 16.398438 C 61.398438 11.199219 57.199219 7 52 7 C 46.800781 7 42.601562 11.199219 42.601562 16.398438 C 42.601562 16.5 42.601562 16.5 42.601562 16.601562 C 21.800781 21.800781 9.199219 42.800781 14.300781 63.601562 C 14.898438 65.898438 15.601562 68.101562 16.601562 70.199219 C 11.5 71.199219 8.101562 76.101562 9.101562 81.199219 C 10.101562 86.300781 15 89.699219 20.101562 88.699219 C 23 88.199219 25.398438 86.300781 26.699219 83.699219 C 41.199219 96.199219 62.601562 96.199219 77.199219 83.699219 C 79.601562 88.300781 85.199219 90.199219 89.800781 87.800781 C 94.398438 85.398438 96.300781 79.800781 93.898438 75.199219 C 92.699219 72.5 90.199219 70.699219 87.398438 70.199219 Z M 52 9 C 56.101562 9 59.398438 12.300781 59.398438 16.398438 C 59.398438 20.5 56.101562 23.800781 52 23.800781 C 47.898438 23.800781 44.601562 20.5 44.601562 16.398438 C 44.601562 12.300781 47.898438 9 52 9 Z M 18.398438 86.800781 C 14.300781 86.800781 11 83.5 11 79.398438 C 11 75.300781 14.300781 72 18.398438 72 C 22.5 72 25.800781 75.300781 25.800781 79.398438 C 25.800781 83.5 22.5 86.800781 18.398438 86.800781 Z M 52 91 C 43 91 34.199219 87.699219 27.5 81.699219 C 28.800781 76.699219 25.699219 71.601562 20.699219 70.300781 C 20.101562 70.101562 19.398438 70 18.699219 70 C 10 51.699219 17.699219 29.699219 36.101562 21 C 38.199219 20 40.5 19.199219 42.800781 18.601562 C 44 23.601562 49 26.800781 54.101562 25.601562 C 57.601562 24.800781 60.300781 22.101562 61.101562 18.601562 C 77.300781 22.898438 88.699219 37.5 88.800781 54.199219 C 88.800781 59.699219 87.601562 65.101562 85.199219 70 C 80 70.199219 76 74.5 76.199219 79.699219 C 76.199219 80.398438 76.300781 81 76.5 81.699219 C 69.800781 87.699219 61 91 52 91 Z M 85.601562 86.800781 C 81.5 86.800781 78.199219 83.5 78.199219 79.398438 C 78.199219 75.300781 81.5 72 85.601562 72 C 89.699219 72 93 75.300781 93 79.398438 C 93 83.5 89.699219 86.800781 85.601562 86.800781 Z M 85.601562 86.800781 "/>
</g>
</svg>
