<?xml version="1.0" encoding="UTF-8"?>
<svg xmlns="http://www.w3.org/2000/svg" xmlns:xlink="http://www.w3.org/1999/xlink" width="100pt" height="100pt" viewBox="0 0 100 100" version="1.1">
<g id="surface34">
<path style=" stroke:none;fill-rule:nonzero;fill:rgb(83.921569%,83.921569%,83.921569%);fill-opacity:1;" d="M 92 56 C 92 53.789062 86.628906 52 80 52 C 73.371094 52 68 53.789062 68 56 C 68 58.210938 73.371094 60 80 60 C 86.628906 60 92 58.210938 92 56 Z M 92 56 "/>
<path style=" stroke:none;fill-rule:nonzero;fill:rgb(83.921569%,83.921569%,83.921569%);fill-opacity:1;" d="M 76 68 C 76 65.789062 70.628906 64 64 64 C 57.371094 64 52 65.789062 52 68 C 52 70.210938 57.371094 72 64 72 C 70.628906 72 76 70.210938 76 68 Z M 76 68 "/>
<path style=" stroke:none;fill-rule:nonzero;fill:rgb(83.921569%,83.921569%,83.921569%);fill-opacity:1;" d="M 32 24 L 46 24 L 46 38 L 32 38 Z M 32 24 "/>
<path style=" stroke:none;fill-rule:nonzero;fill:rgb(31.372549%,31.372549%,31.372549%);fill-opacity:1;" d="M 12 60 L 14 60 L 14 64 L 12 64 Z M 12 60 "/>
<path style=" stroke:none;fill-rule:nonzero;fill:rgb(31.372549%,31.372549%,31.372549%);fill-opacity:1;" d="M 92 58 C 92.601562 57.5 92.898438 56.800781 93 56 C 93 52.699219 86.5 51 80 51 C 73.5 51 67 52.699219 67 56 C 67 56.800781 67.398438 57.5 68 58 C 66.898438 58.898438 66.699219 60.5 67.601562 61.601562 C 67.699219 61.699219 67.800781 61.898438 68 62 C 67.699219 62.300781 67.398438 62.699219 67.199219 63.199219 C 66.800781 63.199219 66.398438 63.101562 66 63.101562 L 66 39 L 71 39 L 71 23 L 52.601562 23 C 56.5 19.898438 57.101562 14.199219 54 10.398438 C 50.898438 6.601562 45.199219 5.898438 41.398438 9 C 40.398438 9.800781 39.601562 10.800781 39 11.898438 C 36.699219 7.5 31.300781 5.699219 26.898438 8 C 22.5 10.300781 20.699219 15.699219 23 20.101562 C 23.601562 21.199219 24.398438 22.199219 25.398438 23 L 7 23 L 7 39 L 12 39 L 12 56 L 14 56 L 14 39 L 64 39 L 64 63 C 57.5 63 51 64.699219 51 68 C 51 68.800781 51.398438 69.5 52 70 C 50.898438 70.898438 50.699219 72.5 51.601562 73.601562 C 51.699219 73.699219 51.800781 73.898438 52 74 C 51.699219 74.300781 51.398438 74.601562 51.300781 75 L 14 75 L 14 68 L 12 68 L 12 77 L 51.199219 77 C 51.398438 77.398438 51.601562 77.699219 51.898438 78 C 50.800781 78.898438 50.601562 80.5 51.5 81.601562 C 51.601562 81.699219 51.699219 81.898438 51.898438 82 C 50.800781 82.898438 50.601562 84.5 51.5 85.601562 C 51.601562 85.699219 51.699219 85.898438 51.898438 86 C 51.300781 86.5 51 87.199219 50.898438 88 C 50.898438 91.300781 57.398438 93 63.898438 93 C 69.800781 93 75.699219 91.601562 76.699219 88.800781 C 77.699219 88.898438 78.800781 89 79.898438 89 C 86.398438 89 92.898438 87.300781 92.898438 84 C 92.898438 83.199219 92.5 82.5 91.898438 82 C 93 81.101562 93.199219 79.5 92.300781 78.398438 C 92.199219 78.300781 92.101562 78.101562 91.898438 78 C 93 77.101562 93.199219 75.5 92.300781 74.398438 C 92.199219 74.300781 92.101562 74.101562 91.898438 74 C 93 73.101562 93.199219 71.5 92.300781 70.398438 C 92.199219 70.300781 92.101562 70.101562 91.898438 70 C 93 69.101562 93.199219 67.5 92.300781 66.398438 C 92.199219 66.300781 92.101562 66.101562 91.898438 66 C 93 65.101562 93.199219 63.5 92.300781 62.398438 C 92.199219 62.300781 92.101562 62.101562 91.898438 62 C 93 61.101562 93.199219 59.5 92.300781 58.398438 C 92.300781 58.199219 92.199219 58.101562 92 58 Z M 31 37 L 9 37 L 9 25 L 31 25 Z M 24 16 C 24 12.101562 27.101562 9 31 9 C 34.898438 9 38 12.101562 38 16 L 38 23 L 31 23 C 27.101562 23 24 19.898438 24 16 Z M 45 37 L 33 37 L 33 25 L 45 25 Z M 40 23 L 40 16 C 40 12.101562 43.101562 9 47 9 C 50.898438 9 54 12.101562 54 16 C 54 19.898438 50.898438 23 47 23 Z M 47 37 L 47 25 L 69 25 L 69 37 Z M 51 76 C 51 76.199219 51 76.300781 51.101562 76.5 C 51 76.300781 51 76.199219 51 76 Z M 64 91 C 56.898438 91 53 89 53 88 C 53 87.800781 53.199219 87.5 53.699219 87.199219 C 56.199219 88.398438 60.101562 89 64 89 C 67.898438 89 71.800781 88.398438 74.300781 87.199219 C 74.699219 87.5 75 87.800781 75 88 C 75 89 71.101562 91 64 91 Z M 64 87 C 56.898438 87 53 85 53 84 C 53 83.800781 53.199219 83.5 53.699219 83.199219 C 56.199219 84.398438 60.101562 85 64 85 C 67.898438 85 71.800781 84.398438 74.300781 83.199219 C 74.699219 83.5 75 83.800781 75 84 C 75 85 71.101562 87 64 87 Z M 64 83 C 56.898438 83 53 81 53 80 C 53 79.800781 53.199219 79.5 53.699219 79.199219 C 56.199219 80.398438 60.101562 81 64 81 C 67.898438 81 71.800781 80.398438 74.300781 79.199219 C 74.699219 79.5 75 79.800781 75 80 C 75 81 71.101562 83 64 83 Z M 64 79 C 56.898438 79 53 77 53 76 C 53 75.800781 53.199219 75.5 53.699219 75.199219 C 56.199219 76.398438 60.101562 77 64 77 C 67.898438 77 71.800781 76.398438 74.300781 75.199219 C 74.699219 75.5 75 75.800781 75 76 C 75 77 71.101562 79 64 79 Z M 64 75 C 56.898438 75 53 73 53 72 C 53 71.800781 53.199219 71.5 53.699219 71.199219 C 56.199219 72.398438 60.101562 73 64 73 C 67.898438 73 71.800781 72.398438 74.300781 71.199219 C 74.699219 71.5 75 71.800781 75 72 C 75 73 71.101562 75 64 75 Z M 64 71 C 56.898438 71 53 69 53 68 C 53 67 56.898438 65 64 65 C 71.101562 65 75 67 75 68 C 75 69 71.101562 71 64 71 Z M 80 87 C 78.800781 87 77.699219 86.898438 76.699219 86.800781 C 76.5 86.5 76.300781 86.199219 76.101562 86 C 76.398438 85.699219 76.699219 85.300781 76.898438 84.800781 C 77.898438 84.898438 79 85 80.101562 85 C 84 85 87.898438 84.398438 90.398438 83.199219 C 90.800781 83.5 91.101562 83.800781 91.101562 84 C 91 85 87.101562 87 80 87 Z M 80 83 C 78.800781 83 77.699219 82.898438 76.699219 82.800781 C 76.5 82.5 76.300781 82.199219 76.101562 82 C 76.398438 81.699219 76.699219 81.300781 76.898438 80.800781 C 77.898438 80.898438 79 81 80.101562 81 C 84 81 87.898438 80.398438 90.398438 79.199219 C 90.800781 79.5 91.101562 79.800781 91.101562 80 C 91 81 87.101562 83 80 83 Z M 80 79 C 78.800781 79 77.699219 78.898438 76.699219 78.800781 C 76.5 78.5 76.300781 78.199219 76.101562 78 C 76.398438 77.699219 76.699219 77.300781 76.898438 76.800781 C 77.898438 76.898438 79 77 80.101562 77 C 84 77 87.898438 76.398438 90.398438 75.199219 C 90.800781 75.5 91.101562 75.800781 91.101562 76 C 91 77 87.101562 79 80 79 Z M 80 75 C 78.800781 75 77.699219 74.898438 76.699219 74.800781 C 76.5 74.5 76.300781 74.199219 76.101562 74 C 76.398438 73.699219 76.699219 73.300781 76.898438 72.800781 C 77.898438 72.898438 79 73 80.101562 73 C 84 73 87.898438 72.398438 90.398438 71.199219 C 90.800781 71.5 91.101562 71.800781 91.101562 72 C 91 73 87.101562 75 80 75 Z M 80 71 C 78.800781 71 77.699219 70.898438 76.699219 70.800781 C 76.5 70.5 76.300781 70.199219 76.101562 70 C 76.398438 69.699219 76.699219 69.300781 76.898438 68.800781 C 77.898438 68.898438 79 69 80.101562 69 C 84 69 87.898438 68.398438 90.398438 67.199219 C 90.800781 67.5 91.101562 67.800781 91.101562 68 C 91 69 87.101562 71 80 71 Z M 80 67 C 78.800781 67 77.699219 66.898438 76.699219 66.800781 C 76.101562 65.601562 74.5 64.699219 72.5 64.101562 C 75 64.699219 77.5 65 80 65 C 83.898438 65 87.800781 64.398438 90.300781 63.199219 C 90.699219 63.5 91 63.800781 91 64 C 91 65 87.101562 67 80 67 Z M 69.398438 63.398438 C 69.5 63.300781 69.601562 63.199219 69.699219 63.101562 C 70.300781 63.398438 70.898438 63.601562 71.5 63.800781 C 70.800781 63.699219 70.101562 63.5 69.398438 63.398438 Z M 80 63 C 72.898438 63 69 61 69 60 C 69 59.800781 69.199219 59.5 69.699219 59.199219 C 72.199219 60.398438 76.101562 61 80 61 C 83.898438 61 87.800781 60.398438 90.300781 59.199219 C 90.699219 59.5 91 59.800781 91 60 C 91 61 87.101562 63 80 63 Z M 80 59 C 72.898438 59 69 57 69 56 C 69 55 72.898438 53 80 53 C 87.101562 53 91 55 91 56 C 91 57 87.101562 59 80 59 Z M 80 59 "/>
<path style="fill-rule:nonzero;fill:rgb(31.372549%,31.372549%,31.372549%);fill-opacity:1;stroke-width:0.5;stroke-linecap:butt;stroke-linejoin:miter;stroke:rgb(100%,100%,100%);stroke-opacity:1;stroke-miterlimit:10;" d="M 44.199219 58.398438 L 47.300781 60.199219 L 50.398438 58.398438 L 47.300781 56.601562 Z M 44.199219 58.398438 "/>
<path style="fill-rule:nonzero;fill:rgb(31.372549%,31.372549%,31.372549%);fill-opacity:1;stroke-width:0.5;stroke-linecap:butt;stroke-linejoin:miter;stroke:rgb(100%,100%,100%);stroke-opacity:1;stroke-miterlimit:10;" d="M 40 60.699219 L 43.101562 62.5 L 46.199219 60.699219 L 43.101562 59 Z M 40 60.699219 "/>
<path style="fill-rule:nonzero;fill:rgb(31.372549%,31.372549%,31.372549%);fill-opacity:1;stroke-width:0.5;stroke-linecap:butt;stroke-linejoin:miter;stroke:rgb(100%,100%,100%);stroke-opacity:1;stroke-miterlimit:10;" d="M 31.601562 60.800781 L 34.800781 62.601562 L 37.898438 60.800781 L 34.800781 59 Z M 31.601562 60.800781 "/>
<path style="fill-rule:nonzero;fill:rgb(31.372549%,31.372549%,31.372549%);fill-opacity:1;stroke-width:0.5;stroke-linecap:butt;stroke-linejoin:miter;stroke:rgb(100%,100%,100%);stroke-opacity:1;stroke-miterlimit:10;" d="M 27.398438 58.300781 L 30.5 60.101562 L 33.699219 58.300781 L 30.5 56.5 Z M 27.398438 58.300781 "/>
<path style="fill-rule:nonzero;fill:rgb(31.372549%,31.372549%,31.372549%);fill-opacity:1;stroke-width:0.5;stroke-linecap:butt;stroke-linejoin:miter;stroke:rgb(100%,100%,100%);stroke-opacity:1;stroke-miterlimit:10;" d="M 35.800781 63.101562 L 38.898438 64.898438 L 42 63.101562 L 38.898438 61.300781 Z M 35.800781 63.101562 "/>
<path style="fill-rule:nonzero;fill:rgb(31.372549%,31.372549%,31.372549%);fill-opacity:1;stroke-width:0.5;stroke-linecap:butt;stroke-linejoin:miter;stroke:rgb(100%,100%,100%);stroke-opacity:1;stroke-miterlimit:10;" d="M 27.398438 63.199219 L 30.601562 65 L 33.699219 63.199219 L 30.601562 61.300781 Z M 27.398438 63.199219 "/>
<path style="fill-rule:nonzero;fill:rgb(31.372549%,31.372549%,31.372549%);fill-opacity:1;stroke-width:0.5;stroke-linecap:butt;stroke-linejoin:miter;stroke:rgb(100%,100%,100%);stroke-opacity:1;stroke-miterlimit:10;" d="M 48.300781 60.699219 L 51.398438 62.5 L 54.5 60.699219 L 51.398438 58.898438 Z M 48.300781 60.699219 "/>
<path style="fill-rule:nonzero;fill:rgb(31.372549%,31.372549%,31.372549%);fill-opacity:1;stroke-width:0.5;stroke-linecap:butt;stroke-linejoin:miter;stroke:rgb(100%,100%,100%);stroke-opacity:1;stroke-miterlimit:10;" d="M 44.101562 63.101562 L 47.199219 64.898438 L 50.300781 63.101562 L 47.199219 61.300781 Z M 44.101562 63.101562 "/>
<path style="fill-rule:nonzero;fill:rgb(31.372549%,31.372549%,31.372549%);fill-opacity:1;stroke-width:0.5;stroke-linecap:butt;stroke-linejoin:miter;stroke:rgb(100%,100%,100%);stroke-opacity:1;stroke-miterlimit:10;" d="M 40 65.5 L 43.101562 67.300781 L 46.199219 65.5 L 43.101562 63.699219 Z M 40 65.5 "/>
<path style="fill-rule:nonzero;fill:rgb(31.372549%,31.372549%,31.372549%);fill-opacity:1;stroke-width:0.5;stroke-linecap:butt;stroke-linejoin:miter;stroke:rgb(100%,100%,100%);stroke-opacity:1;stroke-miterlimit:10;" d="M 35.898438 68 L 39 69.699219 L 42.101562 68 L 39 66.199219 Z M 35.898438 68 "/>
<path style="fill-rule:nonzero;fill:rgb(31.372549%,31.372549%,31.372549%);fill-opacity:1;stroke-width:0.5;stroke-linecap:butt;stroke-linejoin:miter;stroke:rgb(100%,100%,100%);stroke-opacity:1;stroke-miterlimit:10;" d="M 31.601562 65.5 L 34.699219 67.300781 L 37.800781 65.5 L 34.699219 63.699219 Z M 31.601562 65.5 "/>
<path style="fill-rule:nonzero;fill:rgb(31.372549%,31.372549%,31.372549%);fill-opacity:1;stroke-width:0.5;stroke-linecap:butt;stroke-linejoin:miter;stroke:rgb(100%,100%,100%);stroke-opacity:1;stroke-miterlimit:10;" d="M 23.5 60.699219 L 26.601562 62.5 L 29.699219 60.699219 L 26.601562 58.898438 Z M 23.5 60.699219 "/>
<path style="fill-rule:nonzero;fill:rgb(31.372549%,31.372549%,31.372549%);fill-opacity:1;stroke-width:0.5;stroke-linecap:butt;stroke-linejoin:miter;stroke:rgb(100%,100%,100%);stroke-opacity:1;stroke-miterlimit:10;" d="M 37.898438 46.398438 L 34.800781 44.601562 L 31.699219 46.398438 L 34.800781 48.199219 Z M 37.898438 46.398438 "/>
<path style="fill-rule:nonzero;fill:rgb(31.372549%,31.372549%,31.372549%);fill-opacity:1;stroke-width:0.5;stroke-linecap:butt;stroke-linejoin:miter;stroke:rgb(100%,100%,100%);stroke-opacity:1;stroke-miterlimit:10;" d="M 46.199219 46.398438 L 43.101562 44.601562 L 40 46.398438 L 43.101562 48.199219 Z M 46.199219 46.398438 "/>
<path style="fill-rule:nonzero;fill:rgb(31.372549%,31.372549%,31.372549%);fill-opacity:1;stroke-width:0.5;stroke-linecap:butt;stroke-linejoin:miter;stroke:rgb(100%,100%,100%);stroke-opacity:1;stroke-miterlimit:10;" d="M 42.101562 48.800781 L 39 47 L 35.898438 48.800781 L 39 50.601562 Z M 42.101562 48.800781 "/>
<path style="fill-rule:nonzero;fill:rgb(31.372549%,31.372549%,31.372549%);fill-opacity:1;stroke-width:0.5;stroke-linecap:butt;stroke-linejoin:miter;stroke:rgb(100%,100%,100%);stroke-opacity:1;stroke-miterlimit:10;" d="M 42.101562 44 L 39 42.300781 L 35.898438 44 L 35.898438 44.101562 L 39 45.800781 L 42.101562 44.101562 Z M 42.101562 44 "/>
<path style="fill-rule:nonzero;fill:rgb(31.372549%,31.372549%,31.372549%);fill-opacity:1;stroke-width:0.5;stroke-linecap:butt;stroke-linejoin:miter;stroke:rgb(100%,100%,100%);stroke-opacity:1;stroke-miterlimit:10;" d="M 38.398438 56.300781 L 35.300781 54.5 L 35.300781 58.101562 L 38.398438 59.898438 Z M 38.398438 56.300781 "/>
<path style="fill-rule:nonzero;fill:rgb(31.372549%,31.372549%,31.372549%);fill-opacity:1;stroke-width:0.5;stroke-linecap:butt;stroke-linejoin:miter;stroke:rgb(100%,100%,100%);stroke-opacity:1;stroke-miterlimit:10;" d="M 34.300781 49.101562 L 31.199219 47.300781 L 31.199219 50.898438 L 34.300781 52.699219 Z M 34.300781 49.101562 "/>
<path style="fill-rule:nonzero;fill:rgb(31.372549%,31.372549%,31.372549%);fill-opacity:1;stroke-width:0.5;stroke-linecap:butt;stroke-linejoin:miter;stroke:rgb(100%,100%,100%);stroke-opacity:1;stroke-miterlimit:10;" d="M 38.398438 51.5 L 35.300781 49.699219 L 35.300781 53.300781 L 38.398438 55.101562 Z M 38.398438 51.5 "/>
<path style="fill-rule:nonzero;fill:rgb(31.372549%,31.372549%,31.372549%);fill-opacity:1;stroke-width:0.5;stroke-linecap:butt;stroke-linejoin:miter;stroke:rgb(100%,100%,100%);stroke-opacity:1;stroke-miterlimit:10;" d="M 34.300781 53.898438 L 31.199219 52.101562 L 31.199219 55.699219 L 34.300781 57.5 Z M 34.300781 53.898438 "/>
<path style="fill-rule:nonzero;fill:rgb(31.372549%,31.372549%,31.372549%);fill-opacity:1;stroke-width:0.5;stroke-linecap:butt;stroke-linejoin:miter;stroke:rgb(100%,100%,100%);stroke-opacity:1;stroke-miterlimit:10;" d="M 42.601562 49.699219 L 39.5 51.5 L 39.5 55.101562 L 42.601562 53.300781 Z M 42.601562 49.699219 "/>
<path style="fill-rule:nonzero;fill:rgb(31.372549%,31.372549%,31.372549%);fill-opacity:1;stroke-width:0.5;stroke-linecap:butt;stroke-linejoin:miter;stroke:rgb(100%,100%,100%);stroke-opacity:1;stroke-miterlimit:10;" d="M 42.601562 54.5 L 39.5 56.300781 L 39.5 59.898438 L 42.601562 58.101562 Z M 42.601562 54.5 "/>
<path style="fill-rule:nonzero;fill:rgb(31.372549%,31.372549%,31.372549%);fill-opacity:1;stroke-width:0.5;stroke-linecap:butt;stroke-linejoin:miter;stroke:rgb(100%,100%,100%);stroke-opacity:1;stroke-miterlimit:10;" d="M 46.699219 47.300781 L 43.601562 49.101562 L 43.601562 52.699219 L 46.699219 50.898438 Z M 46.699219 47.300781 "/>
<path style="fill-rule:nonzero;fill:rgb(31.372549%,31.372549%,31.372549%);fill-opacity:1;stroke-width:0.5;stroke-linecap:butt;stroke-linejoin:miter;stroke:rgb(100%,100%,100%);stroke-opacity:1;stroke-miterlimit:10;" d="M 46.699219 52.101562 L 43.601562 53.898438 L 43.601562 57.5 L 46.699219 55.699219 Z M 46.699219 52.101562 "/>
</g>
</svg>
