<?xml version="1.0" encoding="UTF-8"?>
<svg xmlns="http://www.w3.org/2000/svg" xmlns:xlink="http://www.w3.org/1999/xlink" width="100pt" height="100pt" viewBox="0 0 100 100" version="1.1">
<g id="surface252">
<path style=" stroke:none;fill-rule:nonzero;fill:rgb(45.882353%,60.784314%,51.764706%);fill-opacity:1;" d="M 41 28 L 59 28 L 59 46 L 41 46 Z M 41 28 "/>
<path style=" stroke:none;fill-rule:nonzero;fill:rgb(43.921569%,43.921569%,43.921569%);fill-opacity:1;" d="M 81 58 L 83 58 L 83 62 L 81 62 Z M 81 58 "/>
<path style=" stroke:none;fill-rule:nonzero;fill:rgb(43.921569%,43.921569%,43.921569%);fill-opacity:1;" d="M 81 91 L 19 91 L 19 84 L 17 84 L 17 93 L 83 93 L 83 66 L 81 66 Z M 81 91 "/>
<path style=" stroke:none;fill-rule:nonzero;fill:rgb(43.921569%,43.921569%,43.921569%);fill-opacity:1;" d="M 17 76 L 19 76 L 19 80 L 17 80 Z M 17 76 "/>
<path style=" stroke:none;fill-rule:nonzero;fill:rgb(43.921569%,43.921569%,43.921569%);fill-opacity:1;" d="M 80 27 L 80 29 L 87 29 L 87 45 L 60 45 L 60 29 L 76 29 L 76 27 L 66.300781 27 C 71.300781 23.5 72.5 16.699219 69 11.699219 C 65.5 6.699219 58.699219 5.5 53.699219 9 C 52.101562 10.101562 50.800781 11.699219 50 13.5 C 47.5 8 41 5.5 35.398438 8 C 29.898438 10.5 27.398438 17 29.898438 22.601562 C 30.699219 24.398438 32 25.898438 33.601562 27.101562 L 11 27.101562 L 11 47.101562 L 17 47.101562 L 17 72.101562 L 19 72.101562 L 19 47 L 81 47 L 81 54 L 83 54 L 83 47 L 89 47 L 89 27 Z M 60 9 C 65 9 69 13 69 18 C 69 23 65 27 60 27 L 51 27 L 51 18 C 51 13 55 9 60 9 Z M 31 18 C 31 13 35 9 40 9 C 45 9 49 13 49 18 L 49 27 L 40 27 C 35 27 31 23 31 18 Z M 17 45 L 13 45 L 13 29 L 40 29 L 40 45 Z M 42 45 L 42 29 L 58 29 L 58 45 Z M 42 45 "/>
</g>
</svg>
