<?xml version="1.0" encoding="UTF-8"?>
<svg xmlns="http://www.w3.org/2000/svg" xmlns:xlink="http://www.w3.org/1999/xlink" width="100pt" height="100pt" viewBox="0 0 100 100" version="1.1">
<g id="surface206">
<path style=" stroke:none;fill-rule:nonzero;fill:rgb(62.745098%,61.960784%,64.705882%);fill-opacity:1;" d="M 62 50 C 62 56.628906 56.628906 62 50 62 C 43.371094 62 38 56.628906 38 50 C 38 43.371094 43.371094 38 50 38 C 56.628906 38 62 43.371094 62 50 Z M 62 50 "/>
<path style=" stroke:none;fill-rule:nonzero;fill:rgb(62.745098%,61.960784%,64.705882%);fill-opacity:1;" d="M 58 16 C 58 20.417969 54.417969 24 50 24 C 45.582031 24 42 20.417969 42 16 C 42 11.582031 45.582031 8 50 8 C 54.417969 8 58 11.582031 58 16 Z M 58 16 "/>
<path style=" stroke:none;fill-rule:nonzero;fill:rgb(62.745098%,61.960784%,64.705882%);fill-opacity:1;" d="M 58 84 C 58 88.417969 54.417969 92 50 92 C 45.582031 92 42 88.417969 42 84 C 42 79.582031 45.582031 76 50 76 C 54.417969 76 58 79.582031 58 84 Z M 58 84 "/>
<path style=" stroke:none;fill-rule:nonzero;fill:rgb(62.745098%,61.960784%,64.705882%);fill-opacity:1;" d="M 28.601562 33 C 28.601562 37.417969 25.019531 41 20.601562 41 C 16.183594 41 12.601562 37.417969 12.601562 33 C 12.601562 28.582031 16.183594 25 20.601562 25 C 25.019531 25 28.601562 28.582031 28.601562 33 Z M 28.601562 33 "/>
<path style=" stroke:none;fill-rule:nonzero;fill:rgb(62.745098%,61.960784%,64.705882%);fill-opacity:1;" d="M 87.398438 67 C 87.398438 71.417969 83.816406 75 79.398438 75 C 74.980469 75 71.398438 71.417969 71.398438 67 C 71.398438 62.582031 74.980469 59 79.398438 59 C 83.816406 59 87.398438 62.582031 87.398438 67 Z M 87.398438 67 "/>
<path style=" stroke:none;fill-rule:nonzero;fill:rgb(62.745098%,61.960784%,64.705882%);fill-opacity:1;" d="M 28.601562 67 C 28.601562 71.417969 25.019531 75 20.601562 75 C 16.183594 75 12.601562 71.417969 12.601562 67 C 12.601562 62.582031 16.183594 59 20.601562 59 C 25.019531 59 28.601562 62.582031 28.601562 67 Z M 28.601562 67 "/>
<path style=" stroke:none;fill-rule:nonzero;fill:rgb(62.745098%,61.960784%,64.705882%);fill-opacity:1;" d="M 87.398438 33 C 87.398438 37.417969 83.816406 41 79.398438 41 C 74.980469 41 71.398438 37.417969 71.398438 33 C 71.398438 28.582031 74.980469 25 79.398438 25 C 83.816406 25 87.398438 28.582031 87.398438 33 Z M 87.398438 33 "/>
<path style=" stroke:none;fill-rule:nonzero;fill:rgb(31.372549%,31.372549%,31.372549%);fill-opacity:1;" d="M 83.898438 59.199219 C 82.800781 58.601562 81.601562 58.199219 80.398438 58.101562 L 80.398438 48 L 78.398438 48 L 78.398438 58.101562 C 75.898438 58.398438 73.699219 59.699219 72.199219 61.699219 L 61.699219 55.601562 C 63.398438 52.101562 63.398438 47.898438 61.699219 44.398438 L 72.199219 38.300781 C 73.699219 40.300781 75.898438 41.601562 78.398438 41.898438 L 78.398438 44 L 80.398438 44 L 80.398438 41.898438 C 85.300781 41.398438 88.898438 36.898438 88.398438 32 C 87.898438 27.101562 83.398438 23.5 78.5 24 C 76 24.300781 73.699219 25.601562 72.199219 27.601562 L 58.199219 19.5 C 60.199219 14.898438 58.101562 9.601562 53.601562 7.601562 C 49.101562 5.601562 43.699219 7.699219 41.699219 12.199219 C 40.699219 14.5 40.699219 17.101562 41.699219 19.398438 L 27.699219 27.5 C 24.800781 23.5 19.101562 22.601562 15.101562 25.601562 C 11.101562 28.601562 10.199219 34.199219 13.199219 38.199219 C 14.699219 40.199219 17 41.5 19.5 41.800781 L 19.5 52 L 21.5 52 L 21.5 41.898438 C 24 41.601562 26.199219 40.300781 27.699219 38.300781 L 38.199219 44.398438 C 36.5 47.898438 36.5 52.101562 38.199219 55.601562 L 27.699219 61.699219 C 26.199219 59.699219 24 58.398438 21.5 58.101562 L 21.5 56 L 19.5 56 L 19.5 58.101562 C 14.601562 58.601562 11 63.101562 11.5 68 C 12 72.898438 16.5 76.5 21.398438 76 C 23.898438 75.699219 26.199219 74.398438 27.699219 72.398438 L 41.699219 80.5 C 39.699219 85.101562 41.800781 90.398438 46.300781 92.398438 C 50.800781 94.398438 56.199219 92.300781 58.199219 87.800781 C 59.199219 85.5 59.199219 82.898438 58.199219 80.601562 L 72.199219 72.5 C 75.101562 76.5 80.800781 77.398438 84.800781 74.398438 C 88.800781 71.5 89.699219 65.800781 86.699219 61.800781 C 86 60.699219 85 59.800781 83.898438 59.199219 Z M 50 61 C 43.898438 61 39 56.101562 39 50 C 39 43.898438 43.898438 39 50 39 C 56.101562 39 61 43.898438 61 50 C 61 56.101562 56.101562 61 50 61 Z M 75.898438 26.898438 C 79.199219 25 83.5 26.101562 85.5 29.5 C 87.398438 32.800781 86.300781 37.101562 82.898438 39.101562 C 79.601562 41 75.300781 39.898438 73.300781 36.5 C 72.398438 34.898438 72.101562 33 72.601562 31.199219 C 73.199219 29.398438 74.300781 27.898438 75.898438 26.898438 Z M 50 9 C 53.898438 9 57 12.101562 57 16 C 57 19.898438 53.898438 23 50 23 C 46.101562 23 43 19.898438 43 16 C 43 12.101562 46.101562 9 50 9 Z M 26.601562 36.5 C 24.699219 39.800781 20.398438 41 17 39.101562 C 15.398438 38.199219 14.199219 36.601562 13.699219 34.898438 C 13.199219 33.101562 13.5 31.199219 14.398438 29.601562 C 16.300781 26.300781 20.601562 25.101562 24 27 C 27.398438 28.898438 28.601562 33.199219 26.601562 36.5 Z M 28.800781 36.601562 C 29.601562 34.699219 29.800781 32.601562 29.300781 30.699219 C 29.199219 30.300781 29 29.800781 28.800781 29.398438 L 42.800781 21.300781 C 44.300781 23.300781 46.5 24.601562 49 24.898438 L 49 28 L 51 28 L 51 24.898438 C 53.5 24.601562 55.699219 23.300781 57.199219 21.300781 L 71.199219 29.398438 C 71 29.800781 70.898438 30.199219 70.699219 30.699219 C 70.199219 32.699219 70.300781 34.800781 71.101562 36.601562 L 60.601562 42.699219 C 58.398438 39.5 54.800781 37.398438 50.898438 37.101562 L 50.898438 32 L 48.898438 32 L 48.898438 37.101562 C 45 37.398438 41.398438 39.5 39.199219 42.699219 Z M 24.101562 73.101562 C 20.800781 75 16.5 73.898438 14.5 70.5 C 12.601562 67.199219 13.699219 62.898438 17.101562 60.898438 C 20.398438 59 24.699219 60.101562 26.699219 63.5 C 27.601562 65.101562 27.898438 67 27.398438 68.800781 C 26.800781 70.601562 25.699219 72.101562 24.101562 73.101562 Z M 50 91 C 46.101562 91 43 87.898438 43 84 C 43 80.101562 46.101562 77 50 77 C 53.898438 77 57 80.101562 57 84 C 57 87.898438 53.898438 91 50 91 Z M 57.199219 78.699219 C 55.699219 76.699219 53.5 75.398438 51 75.101562 L 51 72 L 49 72 L 49 75.101562 C 46.5 75.398438 44.300781 76.699219 42.800781 78.699219 L 28.800781 70.601562 C 29 70.199219 29.101562 69.800781 29.300781 69.300781 C 29.800781 67.300781 29.699219 65.199219 28.898438 63.398438 L 39.398438 57.300781 C 41.601562 60.5 45.199219 62.601562 49.101562 62.898438 L 49.101562 68 L 51.101562 68 L 51.101562 62.898438 C 55 62.601562 58.601562 60.5 60.800781 57.300781 L 71.300781 63.398438 C 70.5 65.300781 70.300781 67.398438 70.800781 69.300781 C 70.898438 69.699219 71.101562 70.199219 71.300781 70.601562 Z M 85.5 70.5 C 83.601562 73.800781 79.300781 75 75.898438 73.101562 C 72.601562 71.199219 71.398438 66.898438 73.300781 63.5 C 75.300781 60.199219 79.5 59 82.898438 61 C 86.300781 62.898438 87.398438 67.199219 85.5 70.5 Z M 85.5 70.5 "/>
</g>
</svg>
