<?xml version="1.0" encoding="UTF-8"?>
<svg xmlns="http://www.w3.org/2000/svg" xmlns:xlink="http://www.w3.org/1999/xlink" width="61pt" height="75pt" viewBox="0 0 61 75" version="1.1">
<g id="surface76">
<path style=" stroke:none;fill-rule:nonzero;fill:rgb(100%,100%,100%);fill-opacity:1;" d="M 40.625 42 L 40.625 42.125 L 46.5 45.5 L 52.5 42.125 L 52.5 42 L 46.5 38.625 Z M 40.625 42 "/>
<path style=" stroke:none;fill-rule:nonzero;fill:rgb(100%,100%,100%);fill-opacity:1;" d="M 32.5 46.625 L 38.5 50.125 L 44.5 46.625 L 38.5 43.25 Z M 32.5 46.625 "/>
<path style=" stroke:none;fill-rule:nonzero;fill:rgb(100%,100%,100%);fill-opacity:1;" d="M 16.5 46.75 L 22.5 50.25 L 28.5 46.75 L 22.5 43.25 Z M 16.5 46.75 "/>
<path style=" stroke:none;fill-rule:nonzero;fill:rgb(100%,100%,100%);fill-opacity:1;" d="M 8.25 42 L 14.25 45.5 L 20.375 42 L 14.25 38.5 Z M 8.25 42 "/>
<path style=" stroke:none;fill-rule:nonzero;fill:rgb(100%,100%,100%);fill-opacity:1;" d="M 24.5 51.25 L 30.5 54.75 L 36.5 51.25 L 30.5 47.75 Z M 24.5 51.25 "/>
<path style=" stroke:none;fill-rule:nonzero;fill:rgb(100%,100%,100%);fill-opacity:1;" d="M 8.375 51.25 L 14.375 54.75 L 20.5 51.25 L 14.375 47.75 Z M 8.375 51.25 "/>
<path style=" stroke:none;fill-rule:nonzero;fill:rgb(100%,100%,100%);fill-opacity:1;" d="M 48.625 46.625 L 54.5 50 L 60.5 46.625 L 54.5 43.125 Z M 48.625 46.625 "/>
<path style=" stroke:none;fill-rule:nonzero;fill:rgb(100%,100%,100%);fill-opacity:1;" d="M 40.375 51.25 L 46.375 54.75 L 52.375 51.25 L 46.375 47.75 Z M 40.375 51.25 "/>
<path style=" stroke:none;fill-rule:nonzero;fill:rgb(100%,100%,100%);fill-opacity:1;" d="M 32.5 55.875 L 38.5 59.25 L 44.375 55.875 L 38.5 52.375 Z M 32.5 55.875 "/>
<path style=" stroke:none;fill-rule:nonzero;fill:rgb(100%,100%,100%);fill-opacity:1;" d="M 24.625 60.5 L 30.625 64 L 36.625 60.5 L 30.625 57.125 Z M 24.625 60.5 "/>
<path style=" stroke:none;fill-rule:nonzero;fill:rgb(100%,100%,100%);fill-opacity:1;" d="M 16.5 55.875 L 22.375 59.25 L 28.375 55.875 L 22.375 52.375 Z M 16.5 55.875 "/>
<path style=" stroke:none;fill-rule:nonzero;fill:rgb(100%,100%,100%);fill-opacity:1;" d="M 0.75 46.625 L 6.75 50 L 12.625 46.625 L 6.75 43.125 Z M 0.75 46.625 "/>
<path style=" stroke:none;fill-rule:nonzero;fill:rgb(100%,100%,100%);fill-opacity:1;" d="M 28.5 19 L 22.5 15.625 L 16.625 19 L 16.625 19.125 L 22.5 22.5 L 28.5 19.125 Z M 28.5 19 "/>
<path style=" stroke:none;fill-rule:nonzero;fill:rgb(100%,100%,100%);fill-opacity:1;" d="M 44.5 19 L 38.5 15.625 L 32.5 19 L 32.5 19.125 L 38.5 22.5 L 44.5 19.125 Z M 44.5 19 "/>
<path style=" stroke:none;fill-rule:nonzero;fill:rgb(100%,100%,100%);fill-opacity:1;" d="M 36.5 23.625 L 30.5 20.125 L 24.625 23.625 L 30.5 27.125 Z M 36.5 23.625 "/>
<path style=" stroke:none;fill-rule:nonzero;fill:rgb(100%,100%,100%);fill-opacity:1;" d="M 36.5 14.5 L 30.5 11 L 24.625 14.5 L 30.5 17.875 Z M 36.5 14.5 "/>
<path style=" stroke:none;fill-rule:nonzero;fill:rgb(100%,100%,100%);fill-opacity:1;" d="M 29.5 38 L 23.5 34.625 L 23.5 41.5 L 29.5 44.875 Z M 29.5 38 "/>
<path style=" stroke:none;fill-rule:nonzero;fill:rgb(100%,100%,100%);fill-opacity:1;" d="M 21.625 24.25 L 15.625 20.75 L 15.625 27.625 L 21.625 31.125 Z M 21.625 24.25 "/>
<path style=" stroke:none;fill-rule:nonzero;fill:rgb(100%,100%,100%);fill-opacity:1;" d="M 29.5 28.75 L 23.5 25.375 L 23.5 32.25 L 29.5 35.75 Z M 29.5 28.75 "/>
<path style=" stroke:none;fill-rule:nonzero;fill:rgb(100%,100%,100%);fill-opacity:1;" d="M 21.625 33.375 L 15.625 30 L 15.625 36.875 L 21.625 40.375 Z M 21.625 33.375 "/>
<path style=" stroke:none;fill-rule:nonzero;fill:rgb(100%,100%,100%);fill-opacity:1;" d="M 37.5 25.375 L 31.5 28.75 L 31.5 35.75 L 37.5 32.25 Z M 37.5 25.375 "/>
<path style=" stroke:none;fill-rule:nonzero;fill:rgb(100%,100%,100%);fill-opacity:1;" d="M 37.5 34.625 L 31.5 38 L 31.5 44.875 L 37.5 41.5 Z M 37.5 34.625 "/>
<path style=" stroke:none;fill-rule:nonzero;fill:rgb(100%,100%,100%);fill-opacity:1;" d="M 45.5 20.75 L 39.5 24.125 L 39.5 31.125 L 45.5 27.625 Z M 45.5 20.75 "/>
<path style=" stroke:none;fill-rule:nonzero;fill:rgb(100%,100%,100%);fill-opacity:1;" d="M 45.5 30 L 39.5 33.375 L 39.5 40.375 L 45.5 36.875 Z M 45.5 30 "/>
</g>
</svg>
