<?xml version="1.0" encoding="UTF-8"?>
<svg xmlns="http://www.w3.org/2000/svg" xmlns:xlink="http://www.w3.org/1999/xlink" width="100pt" height="100pt" viewBox="0 0 100 100" version="1.1">
<g id="surface265">
<path style=" stroke:none;fill-rule:nonzero;fill:rgb(31.372549%,31.372549%,31.372549%);fill-opacity:1;" d="M 64 65 L 73.699219 65 L 50 21.898438 L 26.300781 65 L 60 65 L 60 63 L 29.699219 63 L 50 26.101562 L 70.300781 63 L 64 63 Z M 64 65 "/>
<path style=" stroke:none;fill-rule:nonzero;fill:rgb(31.372549%,31.372549%,31.372549%);fill-opacity:1;" d="M 45.898438 36 L 47.101562 50 L 52.898438 50 L 54.101562 36 Z M 51.101562 48 L 48.898438 48 L 48.101562 38 L 51.898438 38 Z M 51.101562 48 "/>
<path style=" stroke:none;fill-rule:nonzero;fill:rgb(31.372549%,31.372549%,31.372549%);fill-opacity:1;" d="M 50 52 C 47.800781 52 46 53.800781 46 56 C 46 58.199219 47.800781 60 50 60 C 52.199219 60 54 58.199219 54 56 C 54 53.800781 52.199219 52 50 52 Z M 50 58 C 48.898438 58 48 57.101562 48 56 C 48 54.898438 48.898438 54 50 54 C 51.101562 54 52 54.898438 52 56 C 52 57.101562 51.101562 58 50 58 Z M 50 58 "/>
</g>
</svg>
