<?xml version="1.0" encoding="UTF-8"?>
<svg xmlns="http://www.w3.org/2000/svg" xmlns:xlink="http://www.w3.org/1999/xlink" width="100pt" height="100pt" viewBox="0 0 100 100" version="1.1">
<g id="surface408">
<path style=" stroke:none;fill-rule:nonzero;fill:rgb(62.745098%,61.960784%,64.705882%);fill-opacity:1;" d="M 45 18 L 55 18 L 55 27 L 45 27 Z M 45 18 "/>
<path style=" stroke:none;fill-rule:nonzero;fill:rgb(62.745098%,61.960784%,64.705882%);fill-opacity:1;" d="M 14 66 L 20 66 L 20 76 L 14 76 Z M 14 66 "/>
<path style=" stroke:none;fill-rule:nonzero;fill:rgb(62.745098%,61.960784%,64.705882%);fill-opacity:1;" d="M 80 66 L 86 66 L 86 76 L 80 76 Z M 80 66 "/>
<path style=" stroke:none;fill-rule:nonzero;fill:rgb(62.745098%,61.960784%,64.705882%);fill-opacity:1;" d="M 47 66 L 53 66 L 53 76 L 47 76 Z M 47 66 "/>
<path style=" stroke:none;fill-rule:nonzero;fill:rgb(31.372549%,31.372549%,31.372549%);fill-opacity:1;" d="M 67 40 L 69 40 L 69 44 L 67 44 Z M 67 40 "/>
<path style=" stroke:none;fill-rule:nonzero;fill:rgb(31.372549%,31.372549%,31.372549%);fill-opacity:1;" d="M 51 73 C 51 73.550781 50.550781 74 50 74 C 49.449219 74 49 73.550781 49 73 C 49 72.449219 49.449219 72 50 72 C 50.550781 72 51 72.449219 51 73 Z M 51 73 "/>
<path style=" stroke:none;fill-rule:nonzero;fill:rgb(31.372549%,31.372549%,31.372549%);fill-opacity:1;" d="M 84 73 C 84 73.550781 83.550781 74 83 74 C 82.449219 74 82 73.550781 82 73 C 82 72.449219 82.449219 72 83 72 C 83.550781 72 84 72.449219 84 73 Z M 84 73 "/>
<path style=" stroke:none;fill-rule:nonzero;fill:rgb(31.372549%,31.372549%,31.372549%);fill-opacity:1;" d="M 32 58 L 36 58 L 36 60 L 32 60 Z M 32 58 "/>
<path style=" stroke:none;fill-rule:nonzero;fill:rgb(31.372549%,31.372549%,31.372549%);fill-opacity:1;" d="M 16 65 L 13 65 L 13 68 L 7 68 L 7 72 L 9 72 L 9 70 L 13 70 L 13 77 L 21 77 L 21 70 L 25 70 L 25 91 L 9 91 L 9 76 L 7 76 L 7 93 L 27 93 L 27 68 L 21 68 L 21 65 L 18 65 L 18 60 L 28 60 L 28 58 L 16 58 Z M 19 67 L 19 75 L 15 75 L 15 67 Z M 19 67 "/>
<path style=" stroke:none;fill-rule:nonzero;fill:rgb(31.372549%,31.372549%,31.372549%);fill-opacity:1;" d="M 18 73 C 18 73.550781 17.550781 74 17 74 C 16.449219 74 16 73.550781 16 73 C 16 72.449219 16.449219 72 17 72 C 17.550781 72 18 72.449219 18 73 Z M 18 73 "/>
<path style=" stroke:none;fill-rule:nonzero;fill:rgb(31.372549%,31.372549%,31.372549%);fill-opacity:1;" d="M 87 68 L 87 65 L 84 65 L 84 58 L 51 58 L 51 53 L 69 53 L 69 48 L 67 48 L 67 51 L 33 51 L 33 28 L 67 28 L 67 36 L 69 36 L 69 28 L 73 28 L 73 17 L 59.5 17 C 61.699219 14.5 61.5 10.699219 59 8.5 C 56.5 6.300781 52.699219 6.5 50.5 9 C 50.300781 9.199219 50.101562 9.5 50 9.699219 C 48.199219 6.898438 44.5 6.199219 41.699219 8 C 38.898438 9.800781 38.199219 13.5 40 16.300781 C 40.199219 16.601562 40.398438 16.800781 40.601562 17 L 27 17 L 27 28 L 31 28 L 31 53 L 49 53 L 49 58 L 40 58 L 40 60 L 49 60 L 49 65 L 46 65 L 46 68 L 40 68 L 40 84 L 42 84 L 42 70 L 46 70 L 46 77 L 54 77 L 54 70 L 58 70 L 58 91 L 42 91 L 42 88 L 40 88 L 40 93 L 60 93 L 60 68 L 54 68 L 54 65 L 51 65 L 51 60 L 82 60 L 82 65 L 79 65 L 79 68 L 73 68 L 73 80 L 75 80 L 75 70 L 79 70 L 79 77 L 87 77 L 87 70 L 91 70 L 91 91 L 75 91 L 75 84 L 73 84 L 73 93 L 93 93 L 93 68 Z M 71 19 L 71 26 L 56 26 L 56 19 Z M 51 13 C 51 10.800781 52.800781 9 55 9 C 57.199219 9 59 10.800781 59 13 C 59 15.199219 57.199219 17 55 17 L 51 17 Z M 51 19 L 54 19 L 54 26 L 46 26 L 46 19 Z M 45 9 C 47.199219 9 49 10.800781 49 13 L 49 17 L 45 17 C 42.800781 17 41 15.199219 41 13 C 41 10.800781 42.800781 9 45 9 Z M 29 26 L 29 19 L 44 19 L 44 26 Z M 52 67 L 52 75 L 48 75 L 48 67 Z M 85 75 L 81 75 L 81 67 L 85 67 Z M 85 75 "/>
</g>
</svg>
