<?xml version="1.0" encoding="UTF-8"?>
<svg xmlns="http://www.w3.org/2000/svg" xmlns:xlink="http://www.w3.org/1999/xlink" width="100pt" height="100pt" viewBox="0 0 100 100" version="1.1">
<g id="surface164">
<path style=" stroke:none;fill-rule:nonzero;fill:rgb(21.176471%,61.176471%,38.431373%);fill-opacity:1;" d="M 50 26 C 36.699219 26 26 36.699219 26 50 C 26 63.300781 36.699219 74 50 74 C 63.300781 74 74 63.300781 74 50 C 74 36.699219 63.300781 26 50 26 Z M 50 68 C 40.101562 68 32 59.898438 32 50 C 32 40.101562 40.101562 32 50 32 C 59.898438 32 68 40.101562 68 50 C 68 59.898438 59.898438 68 50 68 Z M 50 68 "/>
<path style=" stroke:none;fill-rule:nonzero;fill:rgb(43.921569%,43.921569%,43.921569%);fill-opacity:1;" d="M 50 31 C 39.5 31 31 39.5 31 50 C 31 60.5 39.5 69 50 69 C 60.5 69 69 60.5 69 50 C 69 39.5 60.5 31 50 31 Z M 50 67 C 40.601562 67 33 59.398438 33 50 C 33 40.601562 40.601562 33 50 33 C 59.398438 33 67 40.601562 67 50 C 67 59.398438 59.398438 67 50 67 Z M 50 67 "/>
<path style=" stroke:none;fill-rule:nonzero;fill:rgb(43.921569%,43.921569%,43.921569%);fill-opacity:1;" d="M 83 56 L 85 56 L 85 60 L 83 60 Z M 83 56 "/>
<path style=" stroke:none;fill-rule:nonzero;fill:rgb(43.921569%,43.921569%,43.921569%);fill-opacity:1;" d="M 83 44 L 85 44 L 85 52 L 83 52 Z M 83 44 "/>
<path style=" stroke:none;fill-rule:nonzero;fill:rgb(43.921569%,43.921569%,43.921569%);fill-opacity:1;" d="M 15 48 L 17 48 L 17 56 L 15 56 Z M 15 48 "/>
<path style=" stroke:none;fill-rule:nonzero;fill:rgb(43.921569%,43.921569%,43.921569%);fill-opacity:1;" d="M 15 40 L 17 40 L 17 44 L 15 44 Z M 15 40 "/>
<path style=" stroke:none;fill-rule:nonzero;fill:rgb(43.921569%,43.921569%,43.921569%);fill-opacity:1;" d="M 95.199219 71 L 85 71 L 85 64 L 83 64 L 83 73 L 90.800781 73 L 76 90.5 L 61.199219 73 L 68 73 L 68 71 L 63.5 71 C 75.101562 63.5 78.5 48.101562 71 36.5 C 64.601562 26.601562 52.101562 22.5 41.101562 26.699219 L 24 6.5 L 4.800781 29 L 15 29 L 15 36 L 17 36 L 17 27 L 9.199219 27 L 24 9.5 L 38.800781 27 L 32 27 L 32 29 L 36.5 29 C 24.898438 36.5 21.5 51.898438 29 63.5 C 35.398438 73.398438 47.898438 77.5 58.898438 73.300781 L 76 93.5 Z M 27 50 C 27 37.300781 37.300781 27 50 27 C 62.699219 27 73 37.300781 73 50 C 73 62.699219 62.699219 73 50 73 C 37.300781 73 27 62.699219 27 50 Z M 27 50 "/>
<path style="fill-rule:nonzero;fill:rgb(21.176471%,61.176471%,38.431373%);fill-opacity:1;stroke-width:0.25;stroke-linecap:butt;stroke-linejoin:miter;stroke:rgb(100%,100%,100%);stroke-opacity:1;stroke-miterlimit:10;" d="M 53.898438 51.800781 L 56.300781 53.199219 L 58.699219 51.800781 L 56.300781 50.398438 Z M 53.898438 51.800781 "/>
<path style="fill-rule:nonzero;fill:rgb(21.176471%,61.176471%,38.431373%);fill-opacity:1;stroke-width:0.25;stroke-linecap:butt;stroke-linejoin:miter;stroke:rgb(100%,100%,100%);stroke-opacity:1;stroke-miterlimit:10;" d="M 50.800781 53.601562 L 53.101562 55 L 55.5 53.601562 L 53.101562 52.300781 Z M 50.800781 53.601562 "/>
<path style="fill-rule:nonzero;fill:rgb(21.176471%,61.176471%,38.431373%);fill-opacity:1;stroke-width:0.25;stroke-linecap:butt;stroke-linejoin:miter;stroke:rgb(100%,100%,100%);stroke-opacity:1;stroke-miterlimit:10;" d="M 44.398438 53.601562 L 46.800781 55 L 49.199219 53.601562 L 46.800781 52.300781 Z M 44.398438 53.601562 "/>
<path style="fill-rule:nonzero;fill:rgb(21.176471%,61.176471%,38.431373%);fill-opacity:1;stroke-width:0.25;stroke-linecap:butt;stroke-linejoin:miter;stroke:rgb(100%,100%,100%);stroke-opacity:1;stroke-miterlimit:10;" d="M 41.101562 51.800781 L 43.5 53.199219 L 45.898438 51.800781 L 43.5 50.398438 Z M 41.101562 51.800781 "/>
<path style="fill-rule:nonzero;fill:rgb(21.176471%,61.176471%,38.431373%);fill-opacity:1;stroke-width:0.25;stroke-linecap:butt;stroke-linejoin:miter;stroke:rgb(100%,100%,100%);stroke-opacity:1;stroke-miterlimit:10;" d="M 47.601562 55.398438 L 50 56.800781 L 52.300781 55.398438 L 50 54.101562 Z M 47.601562 55.398438 "/>
<path style="fill-rule:nonzero;fill:rgb(21.176471%,61.176471%,38.431373%);fill-opacity:1;stroke-width:0.25;stroke-linecap:butt;stroke-linejoin:miter;stroke:rgb(100%,100%,100%);stroke-opacity:1;stroke-miterlimit:10;" d="M 41.199219 55.5 L 43.601562 56.800781 L 46 55.5 L 43.601562 54.101562 Z M 41.199219 55.5 "/>
<path style="fill-rule:nonzero;fill:rgb(21.176471%,61.176471%,38.431373%);fill-opacity:1;stroke-width:0.25;stroke-linecap:butt;stroke-linejoin:miter;stroke:rgb(100%,100%,100%);stroke-opacity:1;stroke-miterlimit:10;" d="M 57.101562 53.601562 L 59.5 55 L 61.800781 53.601562 L 59.5 52.199219 Z M 57.101562 53.601562 "/>
<path style="fill-rule:nonzero;fill:rgb(21.176471%,61.176471%,38.431373%);fill-opacity:1;stroke-width:0.25;stroke-linecap:butt;stroke-linejoin:miter;stroke:rgb(100%,100%,100%);stroke-opacity:1;stroke-miterlimit:10;" d="M 53.898438 55.398438 L 56.199219 56.800781 L 58.601562 55.398438 L 56.199219 54.101562 Z M 53.898438 55.398438 "/>
<path style="fill-rule:nonzero;fill:rgb(21.176471%,61.176471%,38.431373%);fill-opacity:1;stroke-width:0.25;stroke-linecap:butt;stroke-linejoin:miter;stroke:rgb(100%,100%,100%);stroke-opacity:1;stroke-miterlimit:10;" d="M 50.699219 57.300781 L 53.101562 58.601562 L 55.5 57.300781 L 53.101562 55.898438 Z M 50.699219 57.300781 "/>
<path style="fill-rule:nonzero;fill:rgb(21.176471%,61.176471%,38.431373%);fill-opacity:1;stroke-width:0.25;stroke-linecap:butt;stroke-linejoin:miter;stroke:rgb(100%,100%,100%);stroke-opacity:1;stroke-miterlimit:10;" d="M 47.601562 59.101562 L 50 60.5 L 52.398438 59.101562 L 50 57.699219 Z M 47.601562 59.101562 "/>
<path style="fill-rule:nonzero;fill:rgb(21.176471%,61.176471%,38.431373%);fill-opacity:1;stroke-width:0.25;stroke-linecap:butt;stroke-linejoin:miter;stroke:rgb(100%,100%,100%);stroke-opacity:1;stroke-miterlimit:10;" d="M 44.398438 57.300781 L 46.800781 58.601562 L 49.101562 57.300781 L 46.800781 55.898438 Z M 44.398438 57.300781 "/>
<path style="fill-rule:nonzero;fill:rgb(21.176471%,61.176471%,38.431373%);fill-opacity:1;stroke-width:0.25;stroke-linecap:butt;stroke-linejoin:miter;stroke:rgb(100%,100%,100%);stroke-opacity:1;stroke-miterlimit:10;" d="M 38.199219 53.601562 L 40.5 55 L 42.898438 53.601562 L 40.5 52.199219 Z M 38.199219 53.601562 "/>
<path style="fill-rule:nonzero;fill:rgb(0%,0%,0%);fill-opacity:1;stroke-width:0.25;stroke-linecap:butt;stroke-linejoin:miter;stroke:rgb(100%,100%,100%);stroke-opacity:1;stroke-miterlimit:10;" d="M 49.199219 42.699219 L 46.800781 41.300781 L 44.398438 42.699219 L 46.800781 44.101562 Z M 49.199219 42.699219 "/>
<path style="fill-rule:nonzero;fill:rgb(0%,0%,0%);fill-opacity:1;stroke-width:0.25;stroke-linecap:butt;stroke-linejoin:miter;stroke:rgb(100%,100%,100%);stroke-opacity:1;stroke-miterlimit:10;" d="M 55.5 42.699219 L 53.101562 41.300781 L 50.800781 42.699219 L 53.101562 44.101562 Z M 55.5 42.699219 "/>
<path style="fill-rule:nonzero;fill:rgb(0%,0%,0%);fill-opacity:1;stroke-width:0.25;stroke-linecap:butt;stroke-linejoin:miter;stroke:rgb(100%,100%,100%);stroke-opacity:1;stroke-miterlimit:10;" d="M 52.300781 44.5 L 50 43.101562 L 47.601562 44.5 L 50 45.898438 Z M 52.300781 44.5 "/>
<path style="fill-rule:nonzero;fill:rgb(0%,0%,0%);fill-opacity:1;stroke-width:0.25;stroke-linecap:butt;stroke-linejoin:miter;stroke:rgb(100%,100%,100%);stroke-opacity:1;stroke-miterlimit:10;" d="M 50 39.5 L 47.601562 40.898438 L 50 42.300781 L 52.300781 40.898438 L 50 39.5 "/>
<path style="fill-rule:nonzero;fill:rgb(0%,0%,0%);fill-opacity:1;stroke-width:0.25;stroke-linecap:butt;stroke-linejoin:miter;stroke:rgb(100%,100%,100%);stroke-opacity:1;stroke-miterlimit:10;" d="M 49.601562 50.199219 L 47.199219 48.800781 L 47.199219 51.601562 L 49.601562 52.898438 Z M 49.601562 50.199219 "/>
<path style="fill-rule:nonzero;fill:rgb(0%,0%,0%);fill-opacity:1;stroke-width:0.25;stroke-linecap:butt;stroke-linejoin:miter;stroke:rgb(100%,100%,100%);stroke-opacity:1;stroke-miterlimit:10;" d="M 46.398438 44.699219 L 44 43.398438 L 44 46.101562 L 46.398438 47.5 Z M 46.398438 44.699219 "/>
<path style="fill-rule:nonzero;fill:rgb(0%,0%,0%);fill-opacity:1;stroke-width:0.25;stroke-linecap:butt;stroke-linejoin:miter;stroke:rgb(100%,100%,100%);stroke-opacity:1;stroke-miterlimit:10;" d="M 49.601562 46.601562 L 47.199219 45.199219 L 47.199219 47.898438 L 49.601562 49.300781 Z M 49.601562 46.601562 "/>
<path style="fill-rule:nonzero;fill:rgb(0%,0%,0%);fill-opacity:1;stroke-width:0.25;stroke-linecap:butt;stroke-linejoin:miter;stroke:rgb(100%,100%,100%);stroke-opacity:1;stroke-miterlimit:10;" d="M 46.398438 48.398438 L 44 47 L 44 49.800781 L 46.398438 51.101562 Z M 46.398438 48.398438 "/>
<path style="fill-rule:nonzero;fill:rgb(0%,0%,0%);fill-opacity:1;stroke-width:0.25;stroke-linecap:butt;stroke-linejoin:miter;stroke:rgb(100%,100%,100%);stroke-opacity:1;stroke-miterlimit:10;" d="M 52.699219 45.199219 L 50.398438 46.601562 L 50.398438 49.300781 L 52.699219 47.898438 Z M 52.699219 45.199219 "/>
<path style="fill-rule:nonzero;fill:rgb(0%,0%,0%);fill-opacity:1;stroke-width:0.25;stroke-linecap:butt;stroke-linejoin:miter;stroke:rgb(100%,100%,100%);stroke-opacity:1;stroke-miterlimit:10;" d="M 52.699219 48.800781 L 50.398438 50.199219 L 50.398438 52.898438 L 52.699219 51.601562 Z M 52.699219 48.800781 "/>
<path style="fill-rule:nonzero;fill:rgb(0%,0%,0%);fill-opacity:1;stroke-width:0.25;stroke-linecap:butt;stroke-linejoin:miter;stroke:rgb(100%,100%,100%);stroke-opacity:1;stroke-miterlimit:10;" d="M 55.898438 43.398438 L 53.5 44.699219 L 53.5 47.5 L 55.898438 46.101562 Z M 55.898438 43.398438 "/>
<path style="fill-rule:nonzero;fill:rgb(0%,0%,0%);fill-opacity:1;stroke-width:0.25;stroke-linecap:butt;stroke-linejoin:miter;stroke:rgb(100%,100%,100%);stroke-opacity:1;stroke-miterlimit:10;" d="M 55.898438 47 L 53.5 48.398438 L 53.5 51.101562 L 55.898438 49.800781 Z M 55.898438 47 "/>
</g>
</svg>
