<?xml version="1.0" encoding="UTF-8"?>
<svg xmlns="http://www.w3.org/2000/svg" xmlns:xlink="http://www.w3.org/1999/xlink" width="91pt" height="91pt" viewBox="0 0 91 91" version="1.1">
<g id="surface67">
<path style=" stroke:none;fill-rule:nonzero;fill:rgb(100%,100%,100%);fill-opacity:1;" d="M 43.351562 12.9375 L 43.351562 4.25 C 41.933594 4.25 40.640625 4.25 39.339844 4.3125 C 39.21875 4.3125 38.910156 4.742188 38.910156 4.992188 C 38.847656 6.164062 38.910156 7.328125 38.910156 8.5625 L 34.664062 8.5625 L 34.664062 0 L 47.613281 0 L 47.613281 8.625 L 52.050781 8.625 L 52.050781 0 L 56.296875 0 L 56.296875 12.9375 L 51.988281 12.9375 L 51.988281 21.6875 L 56.234375 21.6875 L 56.234375 38.941406 L 60.609375 38.941406 L 60.609375 34.75 L 64.859375 34.75 L 64.859375 43.316406 L 51.988281 43.316406 L 51.988281 48.183594 C 51.988281 49.105469 51.921875 50.09375 51.988281 51.019531 C 52.046875 51.757812 51.734375 52.007812 51 51.945312 C 49.886719 51.882812 48.835938 51.945312 47.542969 51.945312 L 47.542969 56.382812 L 43.296875 56.382812 L 43.296875 60.628906 C 42.0625 60.628906 40.890625 60.695312 39.78125 60.628906 C 39.101562 60.628906 38.914062 60.816406 38.914062 61.492188 C 38.980469 62.664062 38.914062 63.773438 38.914062 65.003906 L 43.355469 65.003906 L 43.355469 69.320312 L 34.722656 69.320312 L 34.722656 56.445312 L 38.96875 56.445312 L 38.96875 52.128906 L 43.285156 52.128906 L 43.285156 43.507812 L 38.96875 43.507812 L 38.96875 52.007812 L 34.722656 52.007812 L 34.722656 39.195312 L 38.914062 39.195312 L 38.914062 34.75 L 34.59375 34.75 L 34.59375 26.25 L 38.84375 26.25 C 38.84375 27.359375 38.90625 28.46875 38.84375 29.574219 C 38.785156 30.382812 39.027344 30.625 39.828125 30.5625 C 41 30.503906 42.113281 30.5625 43.285156 30.5625 L 43.285156 39.0625 L 47.535156 39.0625 L 47.535156 30.5 C 48.769531 30.5 50 30.4375 51.234375 30.5 C 51.792969 30.5 51.972656 30.316406 51.972656 29.761719 L 51.972656 26.75 C 51.972656 26.195312 51.792969 26.011719 51.234375 26.011719 L 47.597656 26.011719 L 47.597656 13.0625 C 46.1875 12.898438 44.765625 12.859375 43.34375 12.9375 Z M 43.351562 12.9375 "/>
<path style=" stroke:none;fill-rule:nonzero;fill:rgb(100%,100%,100%);fill-opacity:1;" d="M 30.34375 0 C 30.34375 0.375 30.277344 0.742188 30.277344 1.171875 L 30.277344 29.148438 C 30.277344 30.074219 30.03125 30.257812 29.171875 30.257812 C 19.859375 30.195312 10.484375 30.257812 1.167969 30.257812 C 0.796875 30.257812 0.429688 30.316406 -0.00390625 30.316406 L -0.00390625 0 Z M 25.898438 4.3125 C 25.589844 4.3125 25.347656 4.253906 25.097656 4.253906 L 5.117188 4.253906 C 4.378906 4.253906 4.253906 4.5 4.253906 5.175781 L 4.253906 25.140625 C 4.253906 25.394531 4.316406 25.632812 4.316406 25.882812 L 25.898438 25.882812 Z M 25.898438 4.3125 "/>
<path style=" stroke:none;fill-rule:nonzero;fill:rgb(100%,100%,100%);fill-opacity:1;" d="M 90.835938 30.316406 C 90.460938 30.316406 90.09375 30.257812 89.664062 30.257812 L 61.660156 30.257812 C 60.738281 30.257812 60.550781 30.007812 60.550781 29.148438 C 60.617188 19.84375 60.550781 10.476562 60.550781 1.171875 C 60.550781 0.796875 60.492188 0.429688 60.492188 0 L 90.828125 0 Z M 86.519531 25.878906 C 86.519531 25.507812 86.578125 25.203125 86.578125 24.890625 L 86.578125 5.238281 C 86.578125 4.375 86.269531 4.253906 85.53125 4.253906 L 64.929688 4.253906 L 64.929688 25.875 Z M 86.519531 25.878906 "/>
<path style=" stroke:none;fill-rule:nonzero;fill:rgb(100%,100%,100%);fill-opacity:1;" d="M 0 60.453125 C 0.375 60.453125 0.742188 60.511719 1.171875 60.511719 L 29.226562 60.511719 C 30.152344 60.511719 30.335938 60.761719 30.335938 61.621094 C 30.277344 70.984375 30.335938 80.292969 30.335938 89.664062 C 30.335938 90.035156 30.398438 90.398438 30.398438 90.828125 L 0.0625 90.828125 C 0 80.664062 0 70.554688 0 60.453125 Z M 25.898438 64.886719 C 25.648438 64.886719 25.527344 64.828125 25.347656 64.828125 L 5.058594 64.828125 C 4.316406 64.828125 4.257812 65.203125 4.257812 65.75 L 4.257812 85.53125 C 4.257812 86.332031 4.507812 86.582031 5.304688 86.582031 C 11.839844 86.519531 18.378906 86.519531 24.917969 86.582031 C 25.777344 86.582031 26.023438 86.398438 26.023438 85.53125 C 25.960938 79 26.023438 72.46875 26.023438 65.9375 C 25.960938 65.566406 25.960938 65.257812 25.898438 64.886719 Z M 25.898438 64.886719 "/>
<path style=" stroke:none;fill-rule:nonzero;fill:rgb(100%,100%,100%);fill-opacity:1;" d="M 0 34.570312 L 4.195312 34.570312 L 4.195312 56.195312 L 0 56.195312 Z M 0 34.570312 "/>
<path style=" stroke:none;fill-rule:nonzero;fill:rgb(100%,100%,100%);fill-opacity:1;" d="M 90.835938 38.824219 L 82.261719 38.824219 L 82.261719 34.570312 L 90.835938 34.570312 Z M 90.835938 38.824219 "/>
<path style=" stroke:none;fill-rule:nonzero;fill:rgb(100%,100%,100%);fill-opacity:1;" d="M 60.488281 82.078125 L 60.488281 90.773438 L 56.242188 90.773438 C 56.242188 87.875 56.296875 84.980469 56.296875 82.023438 L 56.242188 82.023438 C 57.65625 82.078125 59.078125 82.078125 60.488281 82.078125 Z M 60.488281 82.078125 "/>
<path style=" stroke:none;fill-rule:nonzero;fill:rgb(100%,100%,100%);fill-opacity:1;" d="M 34.59375 90.773438 L 34.59375 86.519531 L 43.289062 86.519531 L 43.289062 90.773438 Z M 34.59375 90.773438 "/>
<path style=" stroke:none;fill-rule:nonzero;fill:rgb(100%,100%,100%);fill-opacity:1;" d="M 90.828125 86.519531 L 86.578125 86.519531 L 86.578125 82.078125 L 90.828125 82.078125 Z M 90.828125 86.519531 "/>
<path style=" stroke:none;fill-rule:nonzero;fill:rgb(100%,100%,100%);fill-opacity:1;" d="M 90.835938 47.507812 L 86.640625 47.507812 L 86.640625 43.261719 L 90.835938 43.261719 Z M 90.835938 47.507812 "/>
<path style=" stroke:none;fill-rule:nonzero;fill:rgb(100%,100%,100%);fill-opacity:1;" d="M 90.828125 73.394531 L 86.578125 73.394531 L 86.578125 69.140625 L 90.828125 69.140625 Z M 90.828125 73.394531 "/>
<path style=" stroke:none;fill-rule:nonzero;fill:rgb(100%,100%,100%);fill-opacity:1;" d="M 69.1875 90.773438 L 69.1875 86.519531 L 73.4375 86.519531 L 73.4375 90.773438 Z M 69.1875 90.773438 "/>
<path style=" stroke:none;fill-rule:nonzero;fill:rgb(100%,100%,100%);fill-opacity:1;" d="M 69.1875 86.519531 L 64.9375 86.519531 L 64.9375 82.074219 L 60.4375 82.074219 C 60.5 80.164062 60.5 78.257812 60.5625 76.347656 L 60.5625 73.453125 L 51.984375 73.453125 L 51.984375 69.203125 L 64.875 69.203125 L 64.875 60.453125 L 69.066406 60.453125 L 69.066406 64.828125 L 73.378906 64.828125 C 73.378906 65.257812 73.441406 65.628906 73.441406 65.9375 L 73.441406 72.652344 C 73.441406 73.328125 73.628906 73.515625 74.304688 73.515625 L 86.390625 73.515625 L 86.390625 77.769531 L 69.125 77.769531 C 69.1875 80.789062 69.1875 83.6875 69.1875 86.519531 Z M 69.1875 86.519531 "/>
<path style=" stroke:none;fill-rule:nonzero;fill:rgb(100%,100%,100%);fill-opacity:1;" d="M 77.886719 56.203125 L 77.886719 51.882812 L 69.25 51.882812 L 69.25 56.203125 L 64.929688 56.203125 L 64.929688 51.828125 L 60.617188 51.828125 C 60.617188 50.46875 60.617188 49.175781 60.679688 47.945312 C 60.679688 47.816406 61.171875 47.570312 61.480469 47.570312 L 73.628906 47.570312 L 73.628906 34.691406 L 77.875 34.691406 L 77.875 43.261719 L 82.128906 43.261719 L 82.128906 56.257812 C 80.71875 56.203125 79.300781 56.203125 77.886719 56.203125 Z M 77.886719 56.203125 "/>
<path style=" stroke:none;fill-rule:nonzero;fill:rgb(100%,100%,100%);fill-opacity:1;" d="M 43.289062 86.519531 L 43.289062 82.078125 L 34.71875 82.078125 L 34.71875 73.515625 L 43.289062 73.515625 L 43.289062 69.082031 L 47.539062 69.082031 L 47.539062 73.457031 C 48.710938 73.457031 49.820312 73.515625 50.929688 73.457031 C 51.671875 73.394531 51.914062 73.636719 51.914062 74.378906 C 51.855469 75.488281 51.914062 76.539062 51.914062 77.703125 L 47.597656 77.703125 L 47.597656 86.453125 C 46.0625 86.519531 44.707031 86.519531 43.289062 86.519531 Z M 43.289062 86.519531 "/>
<path style=" stroke:none;fill-rule:nonzero;fill:rgb(100%,100%,100%);fill-opacity:1;" d="M 47.480469 56.257812 L 51.855469 56.257812 L 51.855469 60.511719 L 56.171875 60.511719 L 56.171875 64.761719 L 47.539062 64.761719 C 47.539062 61.867188 47.539062 59.027344 47.480469 56.257812 Z M 47.480469 56.257812 "/>
<path style=" stroke:none;fill-rule:nonzero;fill:rgb(100%,100%,100%);fill-opacity:1;" d="M 77.882812 64.886719 L 73.628906 64.886719 L 73.628906 56.203125 L 77.882812 56.203125 Z M 77.882812 64.886719 "/>
<path style=" stroke:none;fill-rule:nonzero;fill:rgb(100%,100%,100%);fill-opacity:1;" d="M 86.640625 69.140625 L 77.945312 69.140625 L 77.945312 64.886719 L 86.640625 64.886719 Z M 86.640625 69.140625 "/>
<path style=" stroke:none;fill-rule:nonzero;fill:rgb(100%,100%,100%);fill-opacity:1;" d="M 64.929688 56.203125 L 64.929688 60.449219 L 60.617188 60.449219 L 60.617188 56.203125 Z M 64.929688 56.203125 "/>
<path style=" stroke:none;fill-rule:nonzero;fill:rgb(100%,100%,100%);fill-opacity:1;" d="M 56.175781 56.132812 L 51.984375 56.132812 L 51.984375 52.011719 L 56.175781 52.011719 Z M 56.175781 56.132812 "/>
<path style=" stroke:none;fill-rule:nonzero;fill:rgb(100%,100%,100%);fill-opacity:1;" d="M 56.292969 82.078125 L 52.046875 82.078125 L 52.046875 77.953125 L 56.292969 77.953125 C 56.234375 79.328125 56.234375 80.703125 56.292969 82.078125 Z M 56.292969 82.078125 "/>
<path style=" stroke:none;fill-rule:nonzero;fill:rgb(100%,100%,100%);fill-opacity:1;" d="M 25.839844 47.453125 C 25.839844 48.679688 25.898438 49.914062 25.898438 51.148438 C 25.898438 51.699219 26.085938 51.949219 26.640625 51.882812 C 27.808594 51.828125 28.921875 51.882812 30.152344 51.882812 L 30.152344 56.074219 L 8.695312 56.074219 L 8.695312 51.882812 L 12.890625 51.882812 L 12.890625 43.199219 L 21.582031 43.199219 L 21.582031 47.386719 C 23 47.5 24.417969 47.519531 25.835938 47.453125 Z M 25.839844 47.453125 "/>
<path style=" stroke:none;fill-rule:nonzero;fill:rgb(100%,100%,100%);fill-opacity:1;" d="M 12.949219 43.257812 L 8.753906 43.257812 L 8.753906 34.632812 L 17.207031 34.632812 L 17.207031 38.757812 L 12.953125 38.757812 C 12.894531 40.257812 12.894531 41.757812 12.953125 43.257812 Z M 12.949219 43.257812 "/>
<path style=" stroke:none;fill-rule:nonzero;fill:rgb(100%,100%,100%);fill-opacity:1;" d="M 34.59375 34.507812 L 34.59375 38.757812 L 21.703125 38.757812 L 21.703125 34.507812 C 26.019531 34.570312 30.277344 34.570312 34.59375 34.507812 Z M 34.59375 34.507812 "/>
<path style=" stroke:none;fill-rule:nonzero;fill:rgb(100%,100%,100%);fill-opacity:1;" d="M 43.289062 12.882812 L 43.289062 17.128906 L 34.65625 17.128906 L 34.65625 12.882812 C 37.554688 12.9375 40.453125 12.9375 43.289062 12.882812 Z M 43.289062 12.882812 "/>
<path style=" stroke:none;fill-rule:nonzero;fill:rgb(100%,100%,100%);fill-opacity:1;" d="M 43.289062 30.320312 L 43.289062 25.882812 L 47.480469 25.882812 L 47.480469 30.320312 Z M 43.289062 30.320312 "/>
<path style=" stroke:none;fill-rule:nonzero;fill:rgb(100%,100%,100%);fill-opacity:1;" d="M 25.839844 47.507812 L 25.839844 43.320312 L 30.152344 43.320312 L 30.152344 47.445312 C 28.734375 47.445312 27.257812 47.445312 25.839844 47.507812 Z M 25.839844 47.507812 "/>
<path style=" stroke:none;fill-rule:nonzero;fill:rgb(100%,100%,100%);fill-opacity:1;" d="M 82.074219 86.398438 L 77.945312 86.398438 L 77.945312 82.207031 L 82.074219 82.207031 Z M 82.074219 86.398438 "/>
<path style=" stroke:none;fill-rule:nonzero;fill:rgb(100%,100%,100%);fill-opacity:1;" d="M 21.582031 8.75 L 21.582031 21.5 L 8.753906 21.5 L 8.753906 8.75 Z M 21.582031 8.75 "/>
<path style=" stroke:none;fill-rule:nonzero;fill:rgb(100%,100%,100%);fill-opacity:1;" d="M 69.3125 8.6875 L 82.140625 8.6875 L 82.140625 21.503906 L 69.3125 21.503906 Z M 69.3125 8.6875 "/>
<path style=" stroke:none;fill-rule:nonzero;fill:rgb(100%,100%,100%);fill-opacity:1;" d="M 21.523438 82.078125 L 8.753906 82.078125 L 8.753906 69.261719 L 21.523438 69.261719 Z M 21.523438 82.078125 "/>
</g>
</svg>
