<?xml version="1.0" encoding="UTF-8"?>
<svg xmlns="http://www.w3.org/2000/svg" xmlns:xlink="http://www.w3.org/1999/xlink" width="375pt" height="125pt" viewBox="0 0 375 125" version="1.1">
<g id="surface36">
<path style="fill-rule:nonzero;fill:rgb(21.176471%,61.176471%,38.431373%);fill-opacity:1;stroke-width:0.75;stroke-linecap:butt;stroke-linejoin:miter;stroke:rgb(78.431373%,78.431373%,78.431373%);stroke-opacity:1;stroke-miterlimit:10;" d="M 68.7 57.7 L 78.8 63.5 L 88.9 57.7 L 78.8 51.9 Z M 68.7 57.7 " transform="matrix(1.25,0,0,1.25,0,0)"/>
<path style="fill-rule:nonzero;fill:rgb(21.176471%,61.176471%,38.431373%);fill-opacity:1;stroke-width:0.75;stroke-linecap:butt;stroke-linejoin:miter;stroke:rgb(78.431373%,78.431373%,78.431373%);stroke-opacity:1;stroke-miterlimit:10;" d="M 55.2 65.4 L 65.3 71.2 L 75.3 65.4 L 65.3 59.6 Z M 55.2 65.4 " transform="matrix(1.25,0,0,1.25,0,0)"/>
<path style="fill-rule:nonzero;fill:rgb(21.176471%,61.176471%,38.431373%);fill-opacity:1;stroke-width:0.75;stroke-linecap:butt;stroke-linejoin:miter;stroke:rgb(78.431373%,78.431373%,78.431373%);stroke-opacity:1;stroke-miterlimit:10;" d="M 28.1 65.5 L 38.3 71.4 L 48.5 65.5 L 38.3 59.6 Z M 28.1 65.5 " transform="matrix(1.25,0,0,1.25,0,0)"/>
<path style="fill-rule:nonzero;fill:rgb(21.176471%,61.176471%,38.431373%);fill-opacity:1;stroke-width:0.75;stroke-linecap:butt;stroke-linejoin:miter;stroke:rgb(78.431373%,78.431373%,78.431373%);stroke-opacity:1;stroke-miterlimit:10;" d="M 14.3 57.6 L 24.5 63.5 L 34.7 57.6 L 24.5 51.7 Z M 14.3 57.6 " transform="matrix(1.25,0,0,1.25,0,0)"/>
<path style="fill-rule:nonzero;fill:rgb(21.176471%,61.176471%,38.431373%);fill-opacity:1;stroke-width:0.75;stroke-linecap:butt;stroke-linejoin:miter;stroke:rgb(78.431373%,78.431373%,78.431373%);stroke-opacity:1;stroke-miterlimit:10;" d="M 41.7 73.1 L 51.7 79 L 61.8 73.1 L 51.7 67.3 Z M 41.7 73.1 " transform="matrix(1.25,0,0,1.25,0,0)"/>
<path style="fill-rule:nonzero;fill:rgb(21.176471%,61.176471%,38.431373%);fill-opacity:1;stroke-width:0.75;stroke-linecap:butt;stroke-linejoin:miter;stroke:rgb(78.431373%,78.431373%,78.431373%);stroke-opacity:1;stroke-miterlimit:10;" d="M 14.4 73.2 L 24.6 79.1 L 34.8 73.2 L 24.6 67.3 Z M 14.4 73.2 " transform="matrix(1.25,0,0,1.25,0,0)"/>
<path style="fill-rule:nonzero;fill:rgb(21.176471%,61.176471%,38.431373%);fill-opacity:1;stroke-width:0.75;stroke-linecap:butt;stroke-linejoin:miter;stroke:rgb(78.431373%,78.431373%,78.431373%);stroke-opacity:1;stroke-miterlimit:10;" d="M 82.2 65.3 L 92.3 71.1 L 102.3 65.3 L 92.3 59.5 Z M 82.2 65.3 " transform="matrix(1.25,0,0,1.25,0,0)"/>
<path style="fill-rule:nonzero;fill:rgb(21.176471%,61.176471%,38.431373%);fill-opacity:1;stroke-width:0.75;stroke-linecap:butt;stroke-linejoin:miter;stroke:rgb(78.431373%,78.431373%,78.431373%);stroke-opacity:1;stroke-miterlimit:10;" d="M 68.5 73.1 L 78.5 79 L 88.6 73.1 L 78.5 67.3 Z M 68.5 73.1 " transform="matrix(1.25,0,0,1.25,0,0)"/>
<path style="fill-rule:nonzero;fill:rgb(21.176471%,61.176471%,38.431373%);fill-opacity:1;stroke-width:0.75;stroke-linecap:butt;stroke-linejoin:miter;stroke:rgb(78.431373%,78.431373%,78.431373%);stroke-opacity:1;stroke-miterlimit:10;" d="M 55.1 80.9 L 65.1 86.7 L 75.2 80.9 L 65.1 75 Z M 55.1 80.9 " transform="matrix(1.25,0,0,1.25,0,0)"/>
<path style="fill-rule:nonzero;fill:rgb(21.176471%,61.176471%,38.431373%);fill-opacity:1;stroke-width:0.75;stroke-linecap:butt;stroke-linejoin:miter;stroke:rgb(78.431373%,78.431373%,78.431373%);stroke-opacity:1;stroke-miterlimit:10;" d="M 41.9 88.8 L 52 94.6 L 62 88.8 L 52 83 Z M 41.9 88.8 " transform="matrix(1.25,0,0,1.25,0,0)"/>
<path style="fill-rule:nonzero;fill:rgb(21.176471%,61.176471%,38.431373%);fill-opacity:1;stroke-width:0.75;stroke-linecap:butt;stroke-linejoin:miter;stroke:rgb(78.431373%,78.431373%,78.431373%);stroke-opacity:1;stroke-miterlimit:10;" d="M 28.1 80.9 L 38.2 86.7 L 48.2 80.9 L 38.2 75 Z M 28.1 80.9 " transform="matrix(1.25,0,0,1.25,0,0)"/>
<path style="fill-rule:nonzero;fill:rgb(21.176471%,61.176471%,38.431373%);fill-opacity:1;stroke-width:0.75;stroke-linecap:butt;stroke-linejoin:miter;stroke:rgb(78.431373%,78.431373%,78.431373%);stroke-opacity:1;stroke-miterlimit:10;" d="M 1.6 65.3 L 11.7 71.1 L 21.7 65.3 L 11.7 59.5 Z M 1.6 65.3 " transform="matrix(1.25,0,0,1.25,0,0)"/>
<path style="fill-rule:nonzero;fill:rgb(0%,0%,0%);fill-opacity:1;stroke-width:0.75;stroke-linecap:butt;stroke-linejoin:miter;stroke:rgb(78.431373%,78.431373%,78.431373%);stroke-opacity:1;stroke-miterlimit:10;" d="M 48.4 18.9 L 38.3 13.1 L 28.3 18.9 L 38.3 24.7 Z M 48.4 18.9 " transform="matrix(1.25,0,0,1.25,0,0)"/>
<path style="fill-rule:nonzero;fill:rgb(0%,0%,0%);fill-opacity:1;stroke-width:0.75;stroke-linecap:butt;stroke-linejoin:miter;stroke:rgb(78.431373%,78.431373%,78.431373%);stroke-opacity:1;stroke-miterlimit:10;" d="M 75.3 18.9 L 65.3 13.1 L 55.2 18.9 L 65.3 24.7 Z M 75.3 18.9 " transform="matrix(1.25,0,0,1.25,0,0)"/>
<path style="fill-rule:nonzero;fill:rgb(0%,0%,0%);fill-opacity:1;stroke-width:0.75;stroke-linecap:butt;stroke-linejoin:miter;stroke:rgb(78.431373%,78.431373%,78.431373%);stroke-opacity:1;stroke-miterlimit:10;" d="M 61.9 26.6 L 51.8 20.8 L 41.8 26.6 L 41.8 26.7 L 51.8 32.5 L 61.9 26.7 Z M 61.9 26.6 " transform="matrix(1.25,0,0,1.25,0,0)"/>
<path style="fill-rule:nonzero;fill:rgb(0%,0%,0%);fill-opacity:1;stroke-width:0.75;stroke-linecap:butt;stroke-linejoin:miter;stroke:rgb(78.431373%,78.431373%,78.431373%);stroke-opacity:1;stroke-miterlimit:10;" d="M 61.9 11.2 L 51.8 5.4 L 41.8 11.2 L 51.8 17 Z M 61.9 11.2 " transform="matrix(1.25,0,0,1.25,0,0)"/>
<path style="fill-rule:nonzero;fill:rgb(0%,0%,0%);fill-opacity:1;stroke-width:0.75;stroke-linecap:butt;stroke-linejoin:miter;stroke:rgb(78.431373%,78.431373%,78.431373%);stroke-opacity:1;stroke-miterlimit:10;" d="M 50.1 50.9 L 40.1 45.1 L 40.1 56.7 L 50.1 62.5 Z M 50.1 50.9 " transform="matrix(1.25,0,0,1.25,0,0)"/>
<path style="fill-rule:nonzero;fill:rgb(0%,0%,0%);fill-opacity:1;stroke-width:0.75;stroke-linecap:butt;stroke-linejoin:miter;stroke:rgb(78.431373%,78.431373%,78.431373%);stroke-opacity:1;stroke-miterlimit:10;" d="M 36.7 27.6 L 26.6 21.8 L 26.6 33.4 L 36.7 39.2 Z M 36.7 27.6 " transform="matrix(1.25,0,0,1.25,0,0)"/>
<path style="fill-rule:nonzero;fill:rgb(0%,0%,0%);fill-opacity:1;stroke-width:0.75;stroke-linecap:butt;stroke-linejoin:miter;stroke:rgb(78.431373%,78.431373%,78.431373%);stroke-opacity:1;stroke-miterlimit:10;" d="M 50.1 35.3 L 40.1 29.5 L 40.1 41.2 L 50.1 47 Z M 50.1 35.3 " transform="matrix(1.25,0,0,1.25,0,0)"/>
<path style="fill-rule:nonzero;fill:rgb(0%,0%,0%);fill-opacity:1;stroke-width:0.75;stroke-linecap:butt;stroke-linejoin:miter;stroke:rgb(78.431373%,78.431373%,78.431373%);stroke-opacity:1;stroke-miterlimit:10;" d="M 36.7 43.1 L 26.6 37.3 L 26.6 49 L 36.7 54.8 Z M 36.7 43.1 " transform="matrix(1.25,0,0,1.25,0,0)"/>
<path style="fill-rule:nonzero;fill:rgb(0%,0%,0%);fill-opacity:1;stroke-width:0.75;stroke-linecap:butt;stroke-linejoin:miter;stroke:rgb(78.431373%,78.431373%,78.431373%);stroke-opacity:1;stroke-miterlimit:10;" d="M 63.5 29.6 L 53.5 35.4 L 53.5 47 L 63.5 41.2 Z M 63.5 29.6 " transform="matrix(1.25,0,0,1.25,0,0)"/>
<path style="fill-rule:nonzero;fill:rgb(0%,0%,0%);fill-opacity:1;stroke-width:0.75;stroke-linecap:butt;stroke-linejoin:miter;stroke:rgb(78.431373%,78.431373%,78.431373%);stroke-opacity:1;stroke-miterlimit:10;" d="M 63.5 45.1 L 53.5 50.9 L 53.5 62.5 L 63.5 56.7 Z M 63.5 45.1 " transform="matrix(1.25,0,0,1.25,0,0)"/>
<path style="fill-rule:nonzero;fill:rgb(0%,0%,0%);fill-opacity:1;stroke-width:0.75;stroke-linecap:butt;stroke-linejoin:miter;stroke:rgb(78.431373%,78.431373%,78.431373%);stroke-opacity:1;stroke-miterlimit:10;" d="M 77 21.7 L 66.9 27.5 L 66.9 39.2 L 77 33.4 Z M 77 21.7 " transform="matrix(1.25,0,0,1.25,0,0)"/>
<path style="fill-rule:nonzero;fill:rgb(0%,0%,0%);fill-opacity:1;stroke-width:0.75;stroke-linecap:butt;stroke-linejoin:miter;stroke:rgb(78.431373%,78.431373%,78.431373%);stroke-opacity:1;stroke-miterlimit:10;" d="M 77 37.4 L 66.9 43.2 L 66.9 54.8 L 77 49 Z M 77 37.4 " transform="matrix(1.25,0,0,1.25,0,0)"/>
<path style=" stroke:none;fill-rule:nonzero;fill:rgb(78.431373%,78.431373%,78.431373%);fill-opacity:1;" d="M 134 46.875 C 132.75 46.375 132 45.125 131.875 43.125 C 131.75 41.125 132.5 39.5 134 38.5 L 163.375 38.5 C 164.75 39.125 165.5 40.625 165.375 43 C 165.375 45.375 164.625 46.625 163.25 47 L 151.875 47 L 151.875 86.25 C 151.625 88 150.75 89 149 89.125 C 147.375 89.125 146.375 88.125 146 86.125 L 146 46.875 Z M 134 46.875 "/>
<path style=" stroke:none;fill-rule:nonzero;fill:rgb(78.431373%,78.431373%,78.431373%);fill-opacity:1;" d="M 180.5 38.875 L 203.5 38.875 C 204 38.875 204.5 39.25 204.75 40 C 205 40.75 205.25 41.625 205.25 42.875 C 205.375 45.25 204.75 46.75 203.625 47.5 L 182.125 47.5 L 181 47.875 C 179.125 49 177.875 50.75 177.375 53.375 L 177.375 59.875 L 199.25 59.875 C 200.25 60.25 200.75 61.75 200.75 64.25 C 200.75 66.75 200.125 68.125 199.125 68.625 L 177.375 68.625 L 177.375 74.625 C 177.875 77.875 179.375 79.875 182 80.625 L 183.5 80.75 L 203.375 80.75 C 204.625 80.75 205.25 82.125 205.25 84.875 C 205.25 87.5 204.625 89 203.375 89.375 L 180.125 89.375 C 174.375 87.125 171.625 81.625 171.875 72.875 L 171.875 52.125 C 172.875 43.25 175.875 38.875 180.5 38.875 Z M 180.5 38.875 "/>
<path style=" stroke:none;fill-rule:nonzero;fill:rgb(78.431373%,78.431373%,78.431373%);fill-opacity:1;" d="M 211.25 85.25 L 211.25 38.25 L 236.25 38.25 C 239.5 40 241.75 42 242.75 44.25 C 243.875 46.5 244.5 48.75 244.75 51.125 L 244.75 85.25 C 244.625 87.875 243.625 89.25 242 89.125 C 240.25 89 239.375 87.75 239.125 85.375 L 239.125 52.875 C 238.875 51.625 238.625 50.5 238.25 49.625 C 237.875 48.75 237.125 47.75 236 46.875 L 217.125 46.75 L 217 85.375 C 216.875 87.625 215.875 88.75 214.125 88.875 C 212.125 89 211.25 87.75 211.25 85.25 Z M 211.25 85.25 "/>
<path style=" stroke:none;fill-rule:nonzero;fill:rgb(78.431373%,78.431373%,78.431373%);fill-opacity:1;" d="M 260.375 39 L 277.5 39 L 278.25 39.25 C 281 41 283.5 44 285.375 48.25 C 286.125 50.75 285.875 52.625 284.75 53.75 C 283.625 54.875 282.25 54.75 280.75 53.5 L 278.625 49.875 L 277.5 48.625 L 276.625 47.875 C 276.25 47.75 276 47.75 275.5 47.625 C 275.125 47.5 274.625 47.5 274.125 47.625 L 260.75 47.625 C 258.5 49.125 257.375 51.25 257.5 53.875 C 257.625 56.625 258.75 58.5 260.75 59.75 C 261.125 59.875 262.375 59.875 264.75 59.875 C 267.125 59.875 270.625 59.875 275.125 59.875 L 275.625 59.875 L 277.5 60.125 C 283 62.875 285.5 68.75 285 77.875 C 284.25 84.125 282.125 87.75 278.375 88.75 L 276.75 89.375 L 260.25 89.25 L 259.75 89.25 C 258.125 88.75 256.5 87.5 255 85.625 L 254.75 85.375 C 251.625 81.75 250.625 78.875 251.625 76.5 C 252.625 74.125 254.125 74 256.125 76.25 C 257.375 77.75 258.5 78.875 259.5 79.75 C 260.5 80.625 261.625 80.875 262.875 80.75 L 275.375 80.875 L 276.125 80.625 L 276.375 80.625 C 278.25 79.5 279.125 77.375 279.25 74.25 C 278.75 71.625 277.5 69.75 275.625 68.75 L 275 68.75 L 259.875 68.625 L 258.125 67.875 C 257.875 67.75 257.75 67.75 257.75 67.75 C 255.125 66 253.25 62.875 252 58.375 C 251.125 48.625 253.75 42.25 260.375 39 Z M 260.375 39 "/>
<path style=" stroke:none;fill-rule:nonzero;fill:rgb(78.431373%,78.431373%,78.431373%);fill-opacity:1;" d="M 294 47.875 C 295.5 43.5 298 40.5 301.375 39 L 318.625 39 C 318.875 39.125 319.125 39.25 319.5 39.375 C 319.75 39.5 320.125 39.75 320.5 40 L 320.75 40 C 322.625 41.375 324.125 43.625 325.375 46.5 L 325.625 46.625 L 326.125 48.375 L 326.25 48.75 L 326.5 49.75 C 326.5 49.875 326.5 50 326.625 50.125 L 326.625 50.5 L 326.75 50.875 L 326.75 75.5 L 326.625 77.5 C 324.875 85.25 321.25 89 315.875 88.75 L 301.5 88.75 L 300.875 88.625 C 295.25 85.75 292.75 79.5 293.375 69.75 L 293.375 51 L 293.5 50.125 L 293.75 48.875 C 293.75 48.875 293.875 48.375 294 47.875 Z M 315.75 47.625 L 302.625 47.625 C 301.375 48.25 300.375 49.375 299.375 51.125 C 299.25 51.75 299 52.5 298.875 53.5 L 298.875 75 C 299 75.375 299 75.75 299.125 76.25 C 299.25 76.625 299.375 77.125 299.5 77.625 C 300 78.5 300.625 79.375 301.5 80.25 C 301.75 80.375 306.875 80.375 316.75 80.25 C 319.375 79.625 320.75 77.5 320.875 73.625 L 320.875 54.125 C 320.875 53.5 320.75 52.625 320.625 51.625 C 320.375 50.875 320 50.125 319.375 49.5 L 318.875 48.625 C 318.375 48.25 317.875 48 317.375 47.75 L 317.125 47.625 Z M 315.75 47.625 "/>
<path style=" stroke:none;fill-rule:nonzero;fill:rgb(78.431373%,78.431373%,78.431373%);fill-opacity:1;" d="M 332.875 43.375 C 333.625 41.25 334.75 39.75 336.5 38.875 L 356.25 38.875 C 356.875 38.75 357.5 38.875 358.25 39.125 L 358.5 39.125 L 359.125 39.375 C 363.125 41.875 365.375 46.25 366 52.375 C 366.75 62.125 364.625 68.875 359.375 72.625 C 359.5 72.875 360 73.625 360.875 75 C 361.75 76.375 363.125 78.375 364.875 81 C 364.875 81.125 365 81.25 365.125 81.25 C 365.25 81.5 365.375 81.875 365.75 82.25 C 365.75 82.5 365.875 82.875 366 83.125 C 366.25 85.625 365.75 87.5 364.25 88.875 L 362.25 88.875 C 362 88.625 361.75 88.375 361.5 88.125 C 361.25 87.75 361 87.375 360.625 86.875 L 351.5 73.75 L 338.25 73.75 L 338.25 84.75 L 338.125 86.625 C 336.875 89.625 335.25 90.125 333.125 88.125 L 332.5 86.25 L 332.5 45 L 332.625 44.75 L 332.625 44.125 L 332.875 43.875 Z M 355.625 47.5 L 338.25 47.5 L 338.25 65 L 356.5 65 L 357.125 64.75 C 358.75 63.375 359.75 61.125 360.125 57.875 C 360.75 52.75 359.375 49.25 356.125 47.375 L 355.625 47.375 Z M 355.625 47.5 "/>
</g>
</svg>
